STARTFONT 2.1
COMMENT
COMMENT Converted from OpenType font "Comfortaa-Regular.otf" by "otf2bdf 3.0".
COMMENT
FONT -FreeType-Comfortaa-Medium-R-Normal--22-160-100-100-P-125-ISO10646-1
SIZE 16 100 100
FONTBOUNDINGBOX 33 34 -5 -6
STARTPROPERTIES 19
FOUNDRY "FreeType"
FAMILY_NAME "Comfortaa"
WEIGHT_NAME "Medium"
SLANT "R"
SETWIDTH_NAME "Normal"
ADD_STYLE_NAME ""
PIXEL_SIZE 22
POINT_SIZE 160
RESOLUTION_X 100
RESOLUTION_Y 100
SPACING "P"
AVERAGE_WIDTH 125
CHARSET_REGISTRY "ISO10646"
CHARSET_ENCODING "1"
FONT_ASCENT 19
FONT_DESCENT 5
COPYRIGHT "Copyright 2011 The Comfortaa Project Authors (https://github.com/alexeiva/comfortaa), with Reserved Font Name "Comfortaa"."
_OTF_FONTFILE "Comfortaa-Regular.otf"
_OTF_PSNAME "Comfortaa-Regular"
ENDPROPERTIES
CHARS 850
STARTCHAR 0000
ENCODING 0
SWIDTH 0 0
DWIDTH 0 0
BBX 0 0 0 0
BITMAP
ENDCHAR
STARTCHAR 000D
ENCODING 13
SWIDTH 315 0
DWIDTH 7 0
BBX 0 0 0 0
BITMAP
ENDCHAR
STARTCHAR 0020
ENCODING 32
SWIDTH 315 0
DWIDTH 7 0
BBX 0 0 0 0
BITMAP
ENDCHAR
STARTCHAR 0021
ENCODING 33
SWIDTH 270 0
DWIDTH 6 0
BBX 3 17 1 0
BITMAP
40
40
40
40
40
40
40
40
40
40
40
40
40
00
40
E0
C0
ENDCHAR
STARTCHAR 0022
ENCODING 34
SWIDTH 270 0
DWIDTH 6 0
BBX 4 4 1 13
BITMAP
D0
D0
90
90
ENDCHAR
STARTCHAR 0023
ENCODING 35
SWIDTH 720 0
DWIDTH 16 0
BBX 14 17 1 0
BITMAP
0410
0410
0C30
0C30
0C30
7FFC
0820
1860
1860
1860
FFF8
7FF8
10C0
30C0
30C0
30C0
2080
ENDCHAR
STARTCHAR 0024
ENCODING 36
SWIDTH 585 0
DWIDTH 13 0
BBX 11 21 1 -2
BITMAP
0400
0400
1F80
3DC0
6460
4420
4400
6400
6400
3C00
0F80
04C0
0460
0460
0420
C460
C460
75C0
3F80
0400
0400
ENDCHAR
STARTCHAR 0025
ENCODING 37
SWIDTH 855 0
DWIDTH 19 0
BBX 17 17 1 0
BITMAP
3E0300
670600
C30C00
C11C00
C11800
C33000
676000
3EC000
01CC00
01BF00
037180
066080
0C6080
1C6080
186180
303F00
201E00
ENDCHAR
STARTCHAR 0026
ENCODING 38
SWIDTH 720 0
DWIDTH 16 0
BBX 14 18 1 0
BITMAP
0C00
3F00
6180
6180
6180
6180
3300
1E00
0C00
1E00
3300
6188
C0D8
C070
C070
C0D8
638C
3E04
ENDCHAR
STARTCHAR 0027
ENCODING 39
SWIDTH 135 0
DWIDTH 3 0
BBX 2 4 1 13
BITMAP
C0
C0
80
80
ENDCHAR
STARTCHAR 0028
ENCODING 40
SWIDTH 270 0
DWIDTH 6 0
BBX 4 22 1 -5
BITMAP
10
30
30
60
60
60
40
C0
C0
C0
C0
C0
C0
C0
C0
40
60
60
60
30
30
10
ENDCHAR
STARTCHAR 0029
ENCODING 41
SWIDTH 270 0
DWIDTH 6 0
BBX 5 22 0 -5
BITMAP
C0
60
60
60
30
30
30
10
10
10
18
18
10
10
10
30
30
30
60
60
40
C0
ENDCHAR
STARTCHAR 002A
ENCODING 42
SWIDTH 360 0
DWIDTH 8 0
BBX 7 6 1 11
BITMAP
30
94
FE
30
68
6C
ENDCHAR
STARTCHAR 002B
ENCODING 43
SWIDTH 540 0
DWIDTH 12 0
BBX 10 10 1 3
BITMAP
0C00
0C00
0C00
0C00
FFC0
FFC0
0C00
0C00
0C00
0C00
ENDCHAR
STARTCHAR 002C
ENCODING 44
SWIDTH 225 0
DWIDTH 5 0
BBX 3 6 1 -4
BITMAP
E0
E0
60
60
40
80
ENDCHAR
STARTCHAR 002D
ENCODING 45
SWIDTH 405 0
DWIDTH 9 0
BBX 7 2 1 5
BITMAP
FE
FE
ENDCHAR
STARTCHAR 002E
ENCODING 46
SWIDTH 225 0
DWIDTH 5 0
BBX 3 2 1 0
BITMAP
E0
E0
ENDCHAR
STARTCHAR 002F
ENCODING 47
SWIDTH 450 0
DWIDTH 10 0
BBX 9 19 1 -2
BITMAP
0180
0300
0300
0200
0600
0600
0C00
0C00
0800
1800
1800
3000
3000
2000
6000
6000
C000
C000
8000
ENDCHAR
STARTCHAR 0030
ENCODING 48
SWIDTH 585 0
DWIDTH 13 0
BBX 11 17 1 0
BITMAP
1F00
3380
6180
60C0
C0C0
C040
C040
C060
C060
C060
C040
C040
40C0
60C0
6180
3F80
1E00
ENDCHAR
STARTCHAR 0031
ENCODING 49
SWIDTH 360 0
DWIDTH 8 0
BBX 5 17 1 0
BITMAP
38
F8
98
18
18
18
18
18
18
18
18
18
18
18
18
18
08
ENDCHAR
STARTCHAR 0032
ENCODING 50
SWIDTH 585 0
DWIDTH 13 0
BBX 11 17 1 0
BITMAP
1F00
3180
60C0
4040
C040
4040
00C0
00C0
0180
0300
0600
0C00
1800
1800
3000
7FE0
7FE0
ENDCHAR
STARTCHAR 0033
ENCODING 51
SWIDTH 585 0
DWIDTH 13 0
BBX 11 17 1 0
BITMAP
1F80
31C0
60C0
6040
4040
00C0
0180
0700
0380
00C0
0060
C060
C060
C060
60C0
3BC0
1F00
ENDCHAR
STARTCHAR 0034
ENCODING 52
SWIDTH 630 0
DWIDTH 14 0
BBX 13 17 0 0
BITMAP
0060
00E0
01E0
01E0
0360
0660
0C60
0C60
1860
3060
6060
FFF8
FFF8
0060
0060
0060
0060
ENDCHAR
STARTCHAR 0035
ENCODING 53
SWIDTH 630 0
DWIDTH 14 0
BBX 12 17 1 0
BITMAP
7FE0
6000
6000
6000
6000
6000
7F80
01C0
0060
0020
0030
C030
4030
6060
70E0
3FC0
0F00
ENDCHAR
STARTCHAR 0036
ENCODING 54
SWIDTH 585 0
DWIDTH 13 0
BBX 11 17 1 0
BITMAP
0300
0300
0600
0600
0C00
1800
1800
3F80
71C0
60C0
4060
C060
C060
4060
60C0
3F80
1F00
ENDCHAR
STARTCHAR 0037
ENCODING 55
SWIDTH 585 0
DWIDTH 13 0
BBX 11 17 1 0
BITMAP
FFE0
00C0
00C0
0080
0180
0180
0300
0300
0600
0600
0C00
0C00
1800
1800
3000
3000
2000
ENDCHAR
STARTCHAR 0038
ENCODING 56
SWIDTH 585 0
DWIDTH 13 0
BBX 11 17 1 0
BITMAP
1F00
3180
60C0
60C0
60C0
20C0
3B80
1F00
31C0
60C0
4060
C060
C060
4060
60C0
3B80
1F00
ENDCHAR
STARTCHAR 0039
ENCODING 57
SWIDTH 585 0
DWIDTH 13 0
BBX 10 17 1 0
BITMAP
3F00
7180
C0C0
C040
C040
C040
C0C0
60C0
7F80
1F80
0300
0600
0600
0C00
1C00
1800
1000
ENDCHAR
STARTCHAR 003A
ENCODING 58
SWIDTH 180 0
DWIDTH 4 0
BBX 2 12 1 0
BITMAP
C0
C0
80
00
00
00
00
00
00
00
C0
C0
ENDCHAR
STARTCHAR 003B
ENCODING 59
SWIDTH 180 0
DWIDTH 4 0
BBX 3 16 1 -4
BITMAP
C0
C0
40
00
00
00
00
00
00
00
E0
E0
60
60
40
80
ENDCHAR
STARTCHAR 003C
ENCODING 60
SWIDTH 540 0
DWIDTH 12 0
BBX 10 12 1 1
BITMAP
0040
01C0
0700
0E00
3800
E000
E000
7800
1C00
0700
03C0
00C0
ENDCHAR
STARTCHAR 003D
ENCODING 61
SWIDTH 495 0
DWIDTH 11 0
BBX 9 7 1 4
BITMAP
FF80
0000
0000
0000
0000
FF80
FF80
ENDCHAR
STARTCHAR 003E
ENCODING 62
SWIDTH 540 0
DWIDTH 12 0
BBX 10 12 1 1
BITMAP
C000
E000
3800
1E00
0700
01C0
01C0
0380
0E00
3C00
7000
C000
ENDCHAR
STARTCHAR 003F
ENCODING 63
SWIDTH 540 0
DWIDTH 12 0
BBX 10 18 1 0
BITMAP
0E00
3F80
6180
C0C0
C0C0
C040
00C0
00C0
0180
0300
0600
0400
0C00
0C00
0000
0400
0C00
0C00
ENDCHAR
STARTCHAR 0040
ENCODING 64
SWIDTH 1080 0
DWIDTH 24 0
BBX 22 22 1 -5
BITMAP
01FF00
07C7C0
1C00E0
380070
300038
60FC18
61FE0C
C3030C
C2018C
C60184
C60184
C60184
C60184
C3018C
C3838C
61FE98
6078F8
300070
180000
0E0000
07FF00
01FE00
ENDCHAR
STARTCHAR 0041
ENCODING 65
SWIDTH 720 0
DWIDTH 16 0
BBX 15 17 0 0
BITMAP
0180
0380
03C0
02C0
0640
0660
0C20
0C30
0830
1818
1818
3FF8
3FFC
600C
6006
4006
C002
ENDCHAR
STARTCHAR 0042
ENCODING 66
SWIDTH 675 0
DWIDTH 15 0
BBX 12 17 2 0
BITMAP
FF80
C0C0
C060
C020
C020
C060
C0C0
FF80
FFE0
C030
C030
C030
C030
C030
C070
FFE0
FF80
ENDCHAR
STARTCHAR 0043
ENCODING 67
SWIDTH 765 0
DWIDTH 17 0
BBX 15 18 1 0
BITMAP
00C0
07F8
1E0E
3804
3000
6000
6000
4000
C000
C000
C000
4000
6000
6000
3000
1806
0F3C
03F8
ENDCHAR
STARTCHAR 0044
ENCODING 68
SWIDTH 765 0
DWIDTH 17 0
BBX 14 17 2 0
BITMAP
FF80
C1E0
C070
C030
C018
C008
C00C
C00C
C00C
C00C
C00C
C018
C018
C030
C060
FFC0
FF00
ENDCHAR
STARTCHAR 0045
ENCODING 69
SWIDTH 675 0
DWIDTH 15 0
BBX 12 17 2 0
BITMAP
FFF0
C000
C000
C000
C000
C000
C000
FF80
FFC0
C000
C000
C000
C000
C000
C000
FFF0
FFF0
ENDCHAR
STARTCHAR 0046
ENCODING 70
SWIDTH 630 0
DWIDTH 14 0
BBX 12 17 1 0
BITMAP
FFF0
C000
C000
C000
C000
C000
C000
FF80
FF80
C000
C000
C000
C000
C000
C000
C000
8000
ENDCHAR
STARTCHAR 0047
ENCODING 71
SWIDTH 765 0
DWIDTH 17 0
BBX 15 18 1 0
BITMAP
00C0
07F8
1E0E
3804
3000
6000
6000
4000
C000
C07C
C07E
4006
6006
6006
3006
1806
0F3C
03F8
ENDCHAR
STARTCHAR 0048
ENCODING 72
SWIDTH 855 0
DWIDTH 19 0
BBX 15 17 2 0
BITMAP
C006
C006
C006
C006
C006
C006
C006
FFFE
FFFE
C006
C006
C006
C006
C006
C006
C006
C004
ENDCHAR
STARTCHAR 0049
ENCODING 73
SWIDTH 270 0
DWIDTH 6 0
BBX 2 17 2 0
BITMAP
C0
C0
C0
C0
C0
C0
C0
C0
C0
C0
C0
C0
C0
C0
C0
C0
C0
ENDCHAR
STARTCHAR 004A
ENCODING 74
SWIDTH 630 0
DWIDTH 14 0
BBX 10 17 1 0
BITMAP
0040
0040
0040
0040
0040
0040
0040
0040
0040
0040
0040
C040
C040
C0C0
60C0
7380
3F00
ENDCHAR
STARTCHAR 004B
ENCODING 75
SWIDTH 675 0
DWIDTH 15 0
BBX 12 17 2 0
BITMAP
C030
C060
C0C0
C180
C300
C600
CC00
D800
FC00
E600
C700
C300
C180
C0C0
C0E0
C060
C020
ENDCHAR
STARTCHAR 004C
ENCODING 76
SWIDTH 630 0
DWIDTH 14 0
BBX 11 17 2 0
BITMAP
C000
C000
C000
C000
C000
C000
C000
C000
C000
C000
C000
C000
C000
C000
C000
FFE0
FFE0
ENDCHAR
STARTCHAR 004D
ENCODING 77
SWIDTH 990 0
DWIDTH 22 0
BBX 18 17 2 0
BITMAP
C000C0
E001C0
E001C0
F003C0
F002C0
D806C0
D804C0
CC0CC0
CC08C0
C618C0
C610C0
C330C0
C320C0
C1E0C0
C1C0C0
C0C0C0
C08080
ENDCHAR
STARTCHAR 004E
ENCODING 78
SWIDTH 810 0
DWIDTH 18 0
BBX 14 17 2 0
BITMAP
C00C
E00C
F00C
D00C
D80C
CC0C
C60C
C20C
C30C
C18C
C0CC
C06C
C06C
C03C
C01C
C00C
C00C
ENDCHAR
STARTCHAR 004F
ENCODING 79
SWIDTH 900 0
DWIDTH 20 0
BBX 18 18 1 0
BITMAP
00C000
07FC00
1E0E00
380300
300180
600180
6000C0
4000C0
C000C0
C000C0
C000C0
4000C0
6000C0
600180
300380
180700
0F3E00
03F800
ENDCHAR
STARTCHAR 0050
ENCODING 80
SWIDTH 630 0
DWIDTH 14 0
BBX 11 17 2 0
BITMAP
FF80
C1C0
C0C0
C060
C060
C060
C060
C060
C0C0
FF80
FF00
C000
C000
C000
C000
C000
C000
ENDCHAR
STARTCHAR 0051
ENCODING 81
SWIDTH 900 0
DWIDTH 20 0
BBX 18 18 1 0
BITMAP
00C000
07FC00
1E0E00
380300
300180
600180
6000C0
4000C0
C000C0
C000C0
C000C0
4000C0
6018C0
600D80
300780
180700
0F3F80
03F880
ENDCHAR
STARTCHAR 0052
ENCODING 82
SWIDTH 630 0
DWIDTH 14 0
BBX 11 17 2 0
BITMAP
FF00
C1C0
C0C0
C060
C060
C060
C060
C0C0
C380
FF00
C300
C300
C180
C0C0
C0C0
C060
C020
ENDCHAR
STARTCHAR 0053
ENCODING 83
SWIDTH 675 0
DWIDTH 15 0
BBX 12 18 1 0
BITMAP
0200
1FC0
3060
6030
6000
6000
6000
3000
1F00
07E0
0070
0030
0010
0010
C030
6030
3CE0
1FC0
ENDCHAR
STARTCHAR 0054
ENCODING 84
SWIDTH 675 0
DWIDTH 15 0
BBX 14 17 0 0
BITMAP
FFFC
0300
0300
0300
0300
0300
0300
0300
0300
0300
0300
0300
0300
0300
0300
0300
0300
ENDCHAR
STARTCHAR 0055
ENCODING 85
SWIDTH 810 0
DWIDTH 18 0
BBX 14 17 2 0
BITMAP
C00C
C00C
C00C
C00C
C00C
C00C
C00C
C00C
C00C
C00C
C00C
C00C
C00C
600C
6018
3870
1FE0
ENDCHAR
STARTCHAR 0056
ENCODING 86
SWIDTH 720 0
DWIDTH 16 0
BBX 15 17 0 0
BITMAP
C002
6006
6006
200C
300C
3008
1818
1818
0C30
0C30
0420
0660
0640
03C0
03C0
0180
0180
ENDCHAR
STARTCHAR 0057
ENCODING 87
SWIDTH 945 0
DWIDTH 21 0
BBX 20 17 0 0
BITMAP
C02010
406030
607030
607030
205020
30D860
309860
308840
1188C0
198CC0
190C80
090480
0F0780
0F0780
060700
060300
060300
ENDCHAR
STARTCHAR 0058
ENCODING 88
SWIDTH 720 0
DWIDTH 16 0
BBX 14 17 1 0
BITMAP
C00C
6018
3030
3070
1860
0CC0
0780
0780
0700
0780
0CC0
18E0
1860
3030
6018
C018
C00C
ENDCHAR
STARTCHAR 0059
ENCODING 89
SWIDTH 630 0
DWIDTH 14 0
BBX 14 17 0 0
BITMAP
C00C
600C
6018
3018
3030
1860
0C60
0CC0
0680
0380
0300
0300
0300
0300
0300
0300
0300
ENDCHAR
STARTCHAR 005A
ENCODING 90
SWIDTH 720 0
DWIDTH 16 0
BBX 14 17 1 0
BITMAP
FFFC
0008
0018
0030
0060
00C0
0080
0180
0300
0600
0C00
0800
1800
3000
6000
FFF8
FFFC
ENDCHAR
STARTCHAR 005B
ENCODING 91
SWIDTH 315 0
DWIDTH 7 0
BBX 6 22 1 -5
BITMAP
FC
C0
C0
C0
C0
C0
C0
C0
C0
C0
C0
C0
C0
C0
C0
C0
C0
C0
C0
C0
F8
FC
ENDCHAR
STARTCHAR 005C
ENCODING 92
SWIDTH 450 0
DWIDTH 10 0
BBX 8 19 1 -2
BITMAP
C0
C0
40
60
60
30
30
10
18
18
0C
0C
04
06
06
03
03
01
01
ENDCHAR
STARTCHAR 005D
ENCODING 93
SWIDTH 315 0
DWIDTH 7 0
BBX 5 22 0 -5
BITMAP
F8
08
08
08
08
08
08
08
08
08
08
08
08
08
08
08
08
08
08
08
78
F8
ENDCHAR
STARTCHAR 005E
ENCODING 94
SWIDTH 450 0
DWIDTH 10 0
BBX 9 7 1 10
BITMAP
1800
1C00
3600
6600
6300
C180
8100
ENDCHAR
STARTCHAR 005F
ENCODING 95
SWIDTH 450 0
DWIDTH 10 0
BBX 12 2 -1 -2
BITMAP
FFF0
FFF0
ENDCHAR
STARTCHAR 0060
ENCODING 96
SWIDTH 270 0
DWIDTH 6 0
BBX 4 4 1 13
BITMAP
C0
60
30
10
ENDCHAR
STARTCHAR 0061
ENCODING 97
SWIDTH 675 0
DWIDTH 15 0
BBX 13 12 1 0
BITMAP
1FC0
38E0
6030
6030
C018
C018
C018
4018
6038
7078
3DD8
0F98
ENDCHAR
STARTCHAR 0062
ENCODING 98
SWIDTH 720 0
DWIDTH 16 0
BBX 12 17 2 0
BITMAP
C000
C000
C000
C000
C000
DF80
F8E0
E060
C030
C030
C010
C010
C030
4030
6060
39C0
1F80
ENDCHAR
STARTCHAR 0063
ENCODING 99
SWIDTH 585 0
DWIDTH 13 0
BBX 11 12 1 0
BITMAP
1F80
38C0
6060
6000
C000
C000
C000
4000
6000
6040
3DE0
0F80
ENDCHAR
STARTCHAR 0064
ENCODING 100
SWIDTH 720 0
DWIDTH 16 0
BBX 13 17 1 0
BITMAP
0018
0018
0018
0018
0018
1F98
38F8
6038
6038
C018
C018
C018
4018
6030
7070
3DE0
0F80
ENDCHAR
STARTCHAR 0065
ENCODING 101
SWIDTH 630 0
DWIDTH 14 0
BBX 12 12 1 0
BITMAP
1F80
38C0
6060
4020
C030
FFF0
FFE0
4000
6000
6000
3DE0
0F80
ENDCHAR
STARTCHAR 0066
ENCODING 102
SWIDTH 360 0
DWIDTH 8 0
BBX 7 17 1 0
BITMAP
0E
18
30
30
20
FE
FE
20
20
20
20
20
20
20
20
20
20
ENDCHAR
STARTCHAR 0067
ENCODING 103
SWIDTH 675 0
DWIDTH 15 0
BBX 13 17 1 -5
BITMAP
1FC0
38E0
6030
6030
C018
C018
C018
4018
6038
7038
3DD8
0F98
0010
6030
7060
3FC0
0F80
ENDCHAR
STARTCHAR 0068
ENCODING 104
SWIDTH 675 0
DWIDTH 15 0
BBX 11 17 2 0
BITMAP
C000
C000
C000
C000
C000
DF80
F1C0
E060
C060
C060
C020
C020
C020
C020
C020
C020
C020
ENDCHAR
STARTCHAR 0069
ENCODING 105
SWIDTH 270 0
DWIDTH 6 0
BBX 2 17 2 0
BITMAP
C0
C0
40
00
00
C0
C0
C0
C0
C0
C0
C0
C0
C0
C0
C0
C0
ENDCHAR
STARTCHAR 006A
ENCODING 106
SWIDTH 270 0
DWIDTH 6 0
BBX 6 22 -2 -5
BITMAP
0C
0C
00
00
00
0C
0C
0C
0C
0C
0C
0C
0C
0C
0C
0C
0C
0C
0C
18
78
F0
ENDCHAR
STARTCHAR 006B
ENCODING 107
SWIDTH 585 0
DWIDTH 13 0
BBX 9 17 2 0
BITMAP
C000
C000
C000
C000
C000
C180
C380
C600
CC00
D800
F800
EC00
CE00
C600
C300
C180
C080
ENDCHAR
STARTCHAR 006C
ENCODING 108
SWIDTH 270 0
DWIDTH 6 0
BBX 4 17 2 0
BITMAP
80
80
80
80
80
80
80
80
80
80
80
80
80
80
C0
F0
70
ENDCHAR
STARTCHAR 006D
ENCODING 109
SWIDTH 945 0
DWIDTH 21 0
BBX 17 12 2 0
BITMAP
FF3E00
F3F300
C1C180
C0C180
C0C080
C0C080
C0C080
C0C080
C0C080
C0C080
C0C080
C08080
ENDCHAR
STARTCHAR 006E
ENCODING 110
SWIDTH 675 0
DWIDTH 15 0
BBX 11 12 2 0
BITMAP
DF80
F1C0
E060
C060
C060
C020
C020
C020
C020
C020
C020
C020
ENDCHAR
STARTCHAR 006F
ENCODING 111
SWIDTH 675 0
DWIDTH 15 0
BBX 13 12 1 0
BITMAP
1FC0
38E0
6030
6030
C018
C018
C018
4018
6030
7070
3DE0
0F80
ENDCHAR
STARTCHAR 0070
ENCODING 112
SWIDTH 720 0
DWIDTH 16 0
BBX 12 17 2 -5
BITMAP
1F80
38E0
6060
C030
C030
C010
C010
C030
C030
E060
F9C0
CF80
C000
C000
C000
C000
C000
ENDCHAR
STARTCHAR 0071
ENCODING 113
SWIDTH 720 0
DWIDTH 16 0
BBX 13 17 1 -5
BITMAP
1FC0
38E0
6030
6030
C018
C018
C018
4018
6038
7078
3DD8
0F98
0018
0018
0018
0018
0018
ENDCHAR
STARTCHAR 0072
ENCODING 114
SWIDTH 450 0
DWIDTH 10 0
BBX 7 12 2 0
BITMAP
DE
F0
C0
C0
C0
C0
C0
C0
C0
C0
C0
C0
ENDCHAR
STARTCHAR 0073
ENCODING 115
SWIDTH 540 0
DWIDTH 12 0
BBX 10 12 1 0
BITMAP
3F00
7180
60C0
6000
6000
3E00
0780
00C0
00C0
C0C0
7380
3F00
ENDCHAR
STARTCHAR 0074
ENCODING 116
SWIDTH 405 0
DWIDTH 9 0
BBX 7 16 1 0
BITMAP
20
20
20
20
FC
FE
20
20
20
20
20
20
20
30
1E
0E
ENDCHAR
STARTCHAR 0075
ENCODING 117
SWIDTH 675 0
DWIDTH 15 0
BBX 11 12 2 0
BITMAP
8060
8060
8060
8060
8060
8060
8060
C060
C060
E0E0
7BE0
3F60
ENDCHAR
STARTCHAR 0076
ENCODING 118
SWIDTH 540 0
DWIDTH 12 0
BBX 12 12 0 0
BITMAP
C030
4030
6060
2060
30C0
10C0
1880
1980
0D00
0F00
0600
0600
ENDCHAR
STARTCHAR 0077
ENCODING 119
SWIDTH 720 0
DWIDTH 16 0
BBX 16 12 0 0
BITMAP
C183
4183
61C2
61C2
2346
3264
3264
162C
1C28
1C38
0C18
0C10
ENDCHAR
STARTCHAR 0078
ENCODING 120
SWIDTH 540 0
DWIDTH 12 0
BBX 10 12 1 0
BITMAP
C0C0
60C0
6180
3300
1E00
0C00
1E00
1E00
3300
6180
C0C0
8040
ENDCHAR
STARTCHAR 0079
ENCODING 121
SWIDTH 540 0
DWIDTH 12 0
BBX 12 17 0 -5
BITMAP
C030
6030
6060
2060
3040
10C0
1880
0980
0D00
0700
0700
0600
0600
0C00
0C00
0800
1800
ENDCHAR
STARTCHAR 007A
ENCODING 122
SWIDTH 540 0
DWIDTH 12 0
BBX 10 12 1 0
BITMAP
FFC0
00C0
0180
0300
0600
0600
0C00
1800
3000
2000
7FC0
FFC0
ENDCHAR
STARTCHAR 007B
ENCODING 123
SWIDTH 360 0
DWIDTH 8 0
BBX 7 22 1 -5
BITMAP
0E
18
18
18
18
18
18
18
10
30
F0
F0
10
10
18
18
18
18
18
18
1C
0E
ENDCHAR
STARTCHAR 007C
ENCODING 124
SWIDTH 405 0
DWIDTH 9 0
BBX 2 22 3 -5
BITMAP
C0
C0
C0
C0
C0
C0
C0
C0
C0
C0
C0
C0
C0
C0
C0
C0
C0
C0
C0
C0
C0
C0
ENDCHAR
STARTCHAR 007D
ENCODING 125
SWIDTH 360 0
DWIDTH 8 0
BBX 7 22 0 -5
BITMAP
F0
30
18
18
18
18
18
18
18
18
1E
1E
18
18
18
18
18
18
18
18
70
F0
ENDCHAR
STARTCHAR 007E
ENCODING 126
SWIDTH 450 0
DWIDTH 10 0
BBX 9 3 1 7
BITMAP
2000
F980
CF00
ENDCHAR
STARTCHAR 00A0
ENCODING 160
SWIDTH 315 0
DWIDTH 7 0
BBX 0 0 0 0
BITMAP
ENDCHAR
STARTCHAR 00A1
ENCODING 161
SWIDTH 270 0
DWIDTH 6 0
BBX 3 17 2 -5
BITMAP
E0
E0
00
00
40
40
40
40
40
40
40
40
40
40
40
40
40
ENDCHAR
STARTCHAR 00A2
ENCODING 162
SWIDTH 585 0
DWIDTH 13 0
BBX 11 16 1 -2
BITMAP
0080
0080
1F80
39C0
6160
6200
C200
C600
C400
4400
6C00
7840
3DE0
1F80
1000
3000
ENDCHAR
STARTCHAR 00A3
ENCODING 163
SWIDTH 495 0
DWIDTH 11 0
BBX 10 17 1 0
BITMAP
1F00
3380
6180
6000
6000
6000
6000
2000
FE00
FF00
3000
3000
3000
2000
6040
7FC0
7FC0
ENDCHAR
STARTCHAR 00A4
ENCODING 164
SWIDTH 495 0
DWIDTH 11 0
BBX 9 9 1 4
BITMAP
C080
FF80
7F00
6300
4100
6100
6300
7F80
DD80
ENDCHAR
STARTCHAR 00A5
ENCODING 165
SWIDTH 630 0
DWIDTH 14 0
BBX 14 17 0 0
BITMAP
C00C
600C
6018
3018
3030
1860
0C60
0CC0
0680
1FF0
1FE0
0300
1FF0
0300
0300
0300
0300
ENDCHAR
STARTCHAR 00A6
ENCODING 166
SWIDTH 225 0
DWIDTH 5 0
BBX 1 24 2 -5
BITMAP
80
80
80
80
80
80
80
80
80
00
00
00
00
00
00
80
80
80
80
80
80
80
80
80
ENDCHAR
STARTCHAR 00A7
ENCODING 167
SWIDTH 450 0
DWIDTH 10 0
BBX 9 22 1 -5
BITMAP
3E00
6700
C300
C180
C100
C000
7000
3E00
6700
C300
C180
C180
C300
7F00
3E00
0700
0300
C180
C180
C300
7F00
3E00
ENDCHAR
STARTCHAR 00A8
ENCODING 168
SWIDTH 450 0
DWIDTH 10 0
BBX 7 2 2 14
BITMAP
C6
C6
ENDCHAR
STARTCHAR 00A9
ENCODING 169
SWIDTH 855 0
DWIDTH 19 0
BBX 17 17 1 0
BITMAP
07F000
1C1C00
300600
63E300
663100
CC1980
C80080
980080
980080
C80080
CC0080
4E1180
67F100
31E300
180E00
0F7C00
03F000
ENDCHAR
STARTCHAR 00AA
ENCODING 170
SWIDTH 495 0
DWIDTH 11 0
BBX 9 9 1 9
BITMAP
0800
7E00
E300
C100
C180
C180
C380
7F80
3D80
ENDCHAR
STARTCHAR 00AB
ENCODING 171
SWIDTH 450 0
DWIDTH 10 0
BBX 9 12 1 0
BITMAP
3180
3300
6300
6600
C600
CC00
CC00
4600
6600
2300
3300
1180
ENDCHAR
STARTCHAR 00AC
ENCODING 172
SWIDTH 540 0
DWIDTH 12 0
BBX 10 5 1 5
BITMAP
FFC0
0040
0040
0040
0040
ENDCHAR
STARTCHAR 00AD
ENCODING 173
SWIDTH 405 0
DWIDTH 9 0
BBX 7 2 1 5
BITMAP
FE
FE
ENDCHAR
STARTCHAR 00AE
ENCODING 174
SWIDTH 855 0
DWIDTH 19 0
BBX 17 17 1 0
BITMAP
07F000
1C1C00
300600
67E300
663100
C61180
C61080
863080
87E080
C66080
C66080
463180
661100
300300
180E00
0F7C00
03F000
ENDCHAR
STARTCHAR 00AF
ENCODING 175
SWIDTH 540 0
DWIDTH 12 0
BBX 8 2 2 14
BITMAP
7F
FF
ENDCHAR
STARTCHAR 00B0
ENCODING 176
SWIDTH 450 0
DWIDTH 10 0
BBX 9 8 1 9
BITMAP
3E00
6700
C300
C180
C180
C300
6700
3E00
ENDCHAR
STARTCHAR 00B1
ENCODING 177
SWIDTH 540 0
DWIDTH 12 0
BBX 10 11 1 3
BITMAP
0C00
0C00
0C00
0C00
FFC0
FFC0
0C00
0C00
0C00
FFC0
FFC0
ENDCHAR
STARTCHAR 00B2
ENCODING 178
SWIDTH 360 0
DWIDTH 8 0
BBX 6 9 1 9
BITMAP
30
78
CC
8C
08
10
20
60
FC
ENDCHAR
STARTCHAR 00B3
ENCODING 179
SWIDTH 360 0
DWIDTH 8 0
BBX 6 10 1 8
BITMAP
30
78
CC
8C
38
18
8C
CC
78
30
ENDCHAR
STARTCHAR 00B4
ENCODING 180
SWIDTH 270 0
DWIDTH 6 0
BBX 4 4 1 13
BITMAP
30
70
E0
C0
ENDCHAR
STARTCHAR 00B5
ENCODING 181
SWIDTH 675 0
DWIDTH 15 0
BBX 11 17 2 -5
BITMAP
8060
8060
8060
8060
8060
8060
8060
C060
C060
E0E0
BBE0
9F60
8000
8000
8000
8000
8000
ENDCHAR
STARTCHAR 00B6
ENCODING 182
SWIDTH 585 0
DWIDTH 13 0
BBX 11 17 1 0
BITMAP
3FE0
7CC0
FCC0
FCC0
FCC0
FCC0
7CC0
3CC0
0CC0
0CC0
0CC0
0CC0
0CC0
0CC0
0CC0
0CC0
0CC0
ENDCHAR
STARTCHAR 00B7
ENCODING 183
SWIDTH 180 0
DWIDTH 4 0
BBX 2 2 1 8
BITMAP
C0
C0
ENDCHAR
STARTCHAR 00B8
ENCODING 184
SWIDTH 315 0
DWIDTH 7 0
BBX 5 6 1 -5
BITMAP
30
20
38
08
D8
F8
ENDCHAR
STARTCHAR 00B9
ENCODING 185
SWIDTH 270 0
DWIDTH 6 0
BBX 5 8 0 9
BITMAP
78
F8
18
18
18
18
18
18
ENDCHAR
STARTCHAR 00BA
ENCODING 186
SWIDTH 450 0
DWIDTH 10 0
BBX 9 9 1 9
BITMAP
0800
7E00
E300
C100
C180
C180
C300
7F00
3E00
ENDCHAR
STARTCHAR 00BB
ENCODING 187
SWIDTH 450 0
DWIDTH 10 0
BBX 8 12 1 0
BITMAP
CC
C4
66
62
33
31
33
33
66
66
CC
CC
ENDCHAR
STARTCHAR 00BC
ENCODING 188
SWIDTH 765 0
DWIDTH 17 0
BBX 16 17 0 0
BITMAP
7804
F80C
1818
1810
1830
1860
1840
18C0
0186
010E
031E
0616
0426
0C66
187F
1006
3006
ENDCHAR
STARTCHAR 00BD
ENCODING 189
SWIDTH 810 0
DWIDTH 18 0
BBX 17 17 0 0
BITMAP
780600
F80400
180C00
181800
181000
183000
186000
184000
00CF00
019980
011880
031180
060300
040600
0C0400
080800
101F80
ENDCHAR
STARTCHAR 00BE
ENCODING 190
SWIDTH 855 0
DWIDTH 19 0
BBX 17 18 1 0
BITMAP
300000
780400
CC0C00
8C1800
381000
183000
8C6000
CC4000
78C000
318200
010600
030E00
061A00
043200
0C2200
087F80
180200
300200
ENDCHAR
STARTCHAR 00BF
ENCODING 191
SWIDTH 540 0
DWIDTH 12 0
BBX 10 18 1 -4
BITMAP
0C00
0C00
0C00
0000
0C00
0C00
0C00
1800
3000
6000
C000
C000
C040
C0C0
C0C0
E180
7F80
1E00
ENDCHAR
STARTCHAR 00C0
ENCODING 192
SWIDTH 720 0
DWIDTH 16 0
BBX 15 24 0 0
BITMAP
0400
0E00
0700
0380
0100
0000
0000
0180
0380
03C0
02C0
0640
0660
0C20
0C30
0830
1818
1818
3FF8
3FFC
600C
6006
4006
C002
ENDCHAR
STARTCHAR 00C1
ENCODING 193
SWIDTH 720 0
DWIDTH 16 0
BBX 15 23 0 0
BITMAP
0060
00C0
0180
0100
0000
0000
0180
0380
03C0
02C0
0640
0660
0C20
0C30
0830
1818
1818
3FF8
3FFC
600C
6006
4006
C002
ENDCHAR
STARTCHAR 00C2
ENCODING 194
SWIDTH 720 0
DWIDTH 16 0
BBX 15 23 0 0
BITMAP
0100
03C0
0EE0
0420
0000
0000
0180
0380
03C0
02C0
0640
0660
0C20
0C30
0830
1818
1818
3FF8
3FFC
600C
6006
4006
C002
ENDCHAR
STARTCHAR 00C3
ENCODING 195
SWIDTH 720 0
DWIDTH 16 0
BBX 15 22 0 0
BITMAP
0720
0DE0
0040
0000
0000
0180
0380
03C0
02C0
0640
0660
0C20
0C30
0830
1818
1818
3FF8
3FFC
600C
6006
4006
C002
ENDCHAR
STARTCHAR 00C4
ENCODING 196
SWIDTH 720 0
DWIDTH 16 0
BBX 15 22 0 0
BITMAP
0460
0E60
0000
0000
0000
0180
0380
03C0
02C0
0640
0660
0C20
0C30
0830
1818
1818
3FF8
3FFC
600C
6006
4006
C002
ENDCHAR
STARTCHAR 00C5
ENCODING 197
SWIDTH 720 0
DWIDTH 16 0
BBX 15 23 0 0
BITMAP
0180
0240
0240
02C0
0180
0000
0180
0380
03C0
02C0
0640
0660
0C20
0C30
0830
1818
1818
3FF8
3FFC
600C
6006
4006
C002
ENDCHAR
STARTCHAR 00C6
ENCODING 198
SWIDTH 945 0
DWIDTH 21 0
BBX 20 17 0 0
BITMAP
003FF0
007000
007000
00F000
01B000
01B000
033000
023F80
063FC0
0C3000
0C3000
1FF000
3FF000
303000
603000
603FF0
C03FF0
ENDCHAR
STARTCHAR 00C7
ENCODING 199
SWIDTH 765 0
DWIDTH 17 0
BBX 15 23 1 -5
BITMAP
00C0
07F8
1E0E
3804
3000
6000
6000
4000
C000
C000
C000
4000
6000
6000
3000
1806
0F3C
03F8
00C0
00E0
0030
0330
01E0
ENDCHAR
STARTCHAR 00C8
ENCODING 200
SWIDTH 675 0
DWIDTH 15 0
BBX 12 23 2 1
BITMAP
1800
0C00
0600
0200
0000
0000
FFF0
C000
C000
C000
C000
C000
C000
FF80
FFC0
C000
C000
C000
C000
C000
C000
FFF0
FFF0
ENDCHAR
STARTCHAR 00C9
ENCODING 201
SWIDTH 675 0
DWIDTH 15 0
BBX 12 23 2 0
BITMAP
01C0
0380
0300
0200
0000
0000
FFF0
C000
C000
C000
C000
C000
C000
FF80
FFC0
C000
C000
C000
C000
C000
C000
FFF0
FFF0
ENDCHAR
STARTCHAR 00CA
ENCODING 202
SWIDTH 675 0
DWIDTH 15 0
BBX 12 23 2 0
BITMAP
0200
0F00
1DC0
10C0
0000
0000
FFF0
C000
C000
C000
C000
C000
C000
FF80
FFC0
C000
C000
C000
C000
C000
C000
FFF0
FFF0
ENDCHAR
STARTCHAR 00CB
ENCODING 203
SWIDTH 675 0
DWIDTH 15 0
BBX 12 22 2 0
BITMAP
18C0
18C0
0000
0000
0000
FFF0
C000
C000
C000
C000
C000
C000
FF80
FFC0
C000
C000
C000
C000
C000
C000
FFF0
FFF0
ENDCHAR
STARTCHAR 00CC
ENCODING 204
SWIDTH 270 0
DWIDTH 6 0
BBX 4 24 0 0
BITMAP
80
C0
60
30
10
00
00
30
30
30
30
30
30
30
30
30
30
30
30
30
30
30
30
30
ENDCHAR
STARTCHAR 00CD
ENCODING 205
SWIDTH 270 0
DWIDTH 6 0
BBX 4 23 2 0
BITMAP
30
70
E0
C0
00
00
C0
C0
C0
C0
C0
C0
C0
C0
C0
C0
C0
C0
C0
C0
C0
C0
C0
ENDCHAR
STARTCHAR 00CE
ENCODING 206
SWIDTH 270 0
DWIDTH 6 0
BBX 6 23 0 0
BITMAP
10
78
EC
84
00
00
30
30
30
30
30
30
30
30
30
30
30
30
30
30
30
30
30
ENDCHAR
STARTCHAR 00CF
ENCODING 207
SWIDTH 270 0
DWIDTH 6 0
BBX 7 22 0 0
BITMAP
CC
CE
00
00
00
30
30
30
30
30
30
30
30
30
30
30
30
30
30
30
30
30
ENDCHAR
STARTCHAR 00D0
ENCODING 208
SWIDTH 765 0
DWIDTH 17 0
BBX 16 17 0 0
BITMAP
3FE0
3078
301C
300C
3006
3002
3003
3003
FF03
3003
3003
3006
3006
300C
3018
3FF0
3FC0
ENDCHAR
STARTCHAR 00D1
ENCODING 209
SWIDTH 810 0
DWIDTH 18 0
BBX 14 22 2 0
BITMAP
0600
1FF0
10E0
0000
0000
C00C
E00C
F00C
D00C
D80C
CC0C
C60C
C20C
C30C
C18C
C0CC
C06C
C06C
C03C
C01C
C00C
C00C
ENDCHAR
STARTCHAR 00D2
ENCODING 210
SWIDTH 900 0
DWIDTH 20 0
BBX 18 24 1 0
BITMAP
020000
030000
018000
00C000
004000
000000
00C000
07FC00
1E0E00
380300
300180
600180
6000C0
4000C0
C000C0
C000C0
C000C0
4000C0
6000C0
600180
300380
180700
0F3E00
03F800
ENDCHAR
STARTCHAR 00D3
ENCODING 211
SWIDTH 900 0
DWIDTH 20 0
BBX 18 23 1 0
BITMAP
003000
007000
00E000
00C000
000000
00C000
07FC00
1E0E00
380300
300180
600180
6000C0
4000C0
C000C0
C000C0
C000C0
4000C0
6000C0
600180
300380
180700
0F3E00
03F800
ENDCHAR
STARTCHAR 00D4
ENCODING 212
SWIDTH 900 0
DWIDTH 20 0
BBX 18 23 1 0
BITMAP
004000
01E000
03B800
021000
000000
00C000
07FC00
1E0E00
380300
300180
600180
6000C0
4000C0
C000C0
C000C0
C000C0
4000C0
6000C0
600180
300380
180700
0F3E00
03F800
ENDCHAR
STARTCHAR 00D5
ENCODING 213
SWIDTH 900 0
DWIDTH 20 0
BBX 18 22 1 0
BITMAP
01C000
07FC00
063800
000000
00C000
07FC00
1E0E00
380300
300180
600180
6000C0
4000C0
C000C0
C000C0
C000C0
4000C0
6000C0
600180
300380
180700
0F3E00
03F800
ENDCHAR
STARTCHAR 00D6
ENCODING 214
SWIDTH 900 0
DWIDTH 20 0
BBX 18 22 1 0
BITMAP
031800
033800
000000
000000
00C000
07FC00
1E0E00
380300
300180
600180
6000C0
4000C0
C000C0
C000C0
C000C0
4000C0
6000C0
600180
300380
180700
0F3E00
03F800
ENDCHAR
STARTCHAR 00D7
ENCODING 215
SWIDTH 450 0
DWIDTH 10 0
BBX 9 9 1 3
BITMAP
C180
E300
7600
3C00
1C00
3E00
6700
C380
8100
ENDCHAR
STARTCHAR 00D8
ENCODING 216
SWIDTH 900 0
DWIDTH 20 0
BBX 18 18 1 0
BITMAP
00C000
07FCC0
1E0F80
380300
300780
600D80
6018C0
4030C0
C060C0
C0C0C0
C180C0
4300C0
6600C0
6C0180
380380
380700
6F3E00
C3F800
ENDCHAR
STARTCHAR 00D9
ENCODING 217
SWIDTH 810 0
DWIDTH 18 0
BBX 14 24 2 0
BITMAP
0800
0C00
0600
0300
0100
0000
0000
C00C
C00C
C00C
C00C
C00C
C00C
C00C
C00C
C00C
C00C
C00C
C00C
C00C
600C
6018
3870
1FE0
ENDCHAR
STARTCHAR 00DA
ENCODING 218
SWIDTH 810 0
DWIDTH 18 0
BBX 14 23 2 0
BITMAP
00C0
01C0
0380
0300
0000
0000
C00C
C00C
C00C
C00C
C00C
C00C
C00C
C00C
C00C
C00C
C00C
C00C
C00C
600C
6018
3870
1FE0
ENDCHAR
STARTCHAR 00DB
ENCODING 219
SWIDTH 810 0
DWIDTH 18 0
BBX 14 23 2 0
BITMAP
0100
0780
0EC0
0840
0000
0000
C00C
C00C
C00C
C00C
C00C
C00C
C00C
C00C
C00C
C00C
C00C
C00C
C00C
600C
6018
3870
1FE0
ENDCHAR
STARTCHAR 00DC
ENCODING 220
SWIDTH 810 0
DWIDTH 18 0
BBX 14 22 2 0
BITMAP
0CC0
0CE0
0000
0000
0000
C00C
C00C
C00C
C00C
C00C
C00C
C00C
C00C
C00C
C00C
C00C
C00C
C00C
600C
6018
3870
1FE0
ENDCHAR
STARTCHAR 00DD
ENCODING 221
SWIDTH 630 0
DWIDTH 14 0
BBX 14 23 0 0
BITMAP
00C0
01C0
0380
0300
0000
0000
C00C
600C
6018
3018
3030
1860
0C60
0CC0
0680
0380
0300
0300
0300
0300
0300
0300
0300
ENDCHAR
STARTCHAR 00DE
ENCODING 222
SWIDTH 630 0
DWIDTH 14 0
BBX 11 17 2 0
BITMAP
C000
C000
C000
FF80
C1C0
C060
C060
C060
C060
C060
C0C0
FFC0
FF00
C000
C000
C000
C000
ENDCHAR
STARTCHAR 00DF
ENCODING 223
SWIDTH 540 0
DWIDTH 12 0
BBX 10 17 1 0
BITMAP
3E00
7300
C180
C180
C180
C180
C300
C600
C200
C300
C180
C0C0
C040
C040
D0C0
DFC0
CF80
ENDCHAR
STARTCHAR 00E0
ENCODING 224
SWIDTH 675 0
DWIDTH 15 0
BBX 13 18 1 0
BITMAP
1800
0C00
0600
0200
0000
0000
1FC0
38E0
6030
6030
C018
C018
C018
4018
6038
7078
3DD8
0F98
ENDCHAR
STARTCHAR 00E1
ENCODING 225
SWIDTH 675 0
DWIDTH 15 0
BBX 13 18 1 0
BITMAP
00C0
0180
0300
0200
0000
0000
1FC0
38E0
6030
6030
C018
C018
C018
4018
6038
7078
3DD8
0F98
ENDCHAR
STARTCHAR 00E2
ENCODING 226
SWIDTH 675 0
DWIDTH 15 0
BBX 13 17 1 0
BITMAP
0700
1DC0
18C0
0000
0000
1FC0
38E0
6030
6030
C018
C018
C018
4018
6038
7078
3DD8
0F98
ENDCHAR
STARTCHAR 00E3
ENCODING 227
SWIDTH 675 0
DWIDTH 15 0
BBX 13 17 1 0
BITMAP
0C00
1F60
31E0
0000
0000
1FC0
38E0
6030
6030
C018
C018
C018
4018
6038
7078
3DD8
0F98
ENDCHAR
STARTCHAR 00E4
ENCODING 228
SWIDTH 675 0
DWIDTH 15 0
BBX 13 17 1 0
BITMAP
18C0
18C0
0880
0000
0000
1FC0
38E0
6030
6030
C018
C018
C018
4018
6038
7078
3DD8
0F98
ENDCHAR
STARTCHAR 00E5
ENCODING 229
SWIDTH 675 0
DWIDTH 15 0
BBX 13 18 1 0
BITMAP
0200
0500
0880
0580
0700
0000
1FC0
38E0
6030
6030
C018
C018
C018
4018
6038
7078
3DD8
0F98
ENDCHAR
STARTCHAR 00E6
ENCODING 230
SWIDTH 1080 0
DWIDTH 24 0
BBX 22 12 1 0
BITMAP
1FC3F0
38E638
603C0C
60380C
C01804
C01FFC
C01FFC
401800
603800
707C08
3DDF38
0F9BF0
ENDCHAR
STARTCHAR 00E7
ENCODING 231
SWIDTH 585 0
DWIDTH 13 0
BBX 11 17 1 -5
BITMAP
1F80
38C0
6060
6000
C000
C000
C000
4000
6000
6040
3DE0
0F80
0600
0700
0180
1980
0F00
ENDCHAR
STARTCHAR 00E8
ENCODING 232
SWIDTH 630 0
DWIDTH 14 0
BBX 12 18 1 0
BITMAP
1800
1C00
0E00
0600
0000
0000
1F80
38C0
6060
4020
C030
FFF0
FFE0
4000
6000
6000
3DE0
0F80
ENDCHAR
STARTCHAR 00E9
ENCODING 233
SWIDTH 630 0
DWIDTH 14 0
BBX 12 18 1 0
BITMAP
0180
0380
0700
0600
0000
0000
1F80
38C0
6060
4020
C030
FFF0
FFE0
4000
6000
6000
3DE0
0F80
ENDCHAR
STARTCHAR 00EA
ENCODING 234
SWIDTH 630 0
DWIDTH 14 0
BBX 12 17 1 0
BITMAP
0F00
1F80
1080
0000
0000
1F80
38C0
6060
4020
C030
FFF0
FFE0
4000
6000
6000
3DE0
0F80
ENDCHAR
STARTCHAR 00EB
ENCODING 235
SWIDTH 630 0
DWIDTH 14 0
BBX 12 17 1 0
BITMAP
1880
19C0
1080
0000
0000
1F80
38C0
6060
4020
C030
FFF0
FFE0
4000
6000
6000
3DE0
0F80
ENDCHAR
STARTCHAR 00EC
ENCODING 236
SWIDTH 270 0
DWIDTH 6 0
BBX 4 18 0 0
BITMAP
C0
E0
70
30
00
00
30
30
30
30
30
30
30
30
30
30
30
30
ENDCHAR
STARTCHAR 00ED
ENCODING 237
SWIDTH 270 0
DWIDTH 6 0
BBX 4 18 2 0
BITMAP
30
70
E0
C0
00
00
C0
C0
C0
C0
C0
C0
C0
C0
C0
C0
C0
C0
ENDCHAR
STARTCHAR 00EE
ENCODING 238
SWIDTH 270 0
DWIDTH 6 0
BBX 6 17 0 0
BITMAP
38
FC
C4
00
00
30
30
30
30
30
30
30
30
30
30
30
30
ENDCHAR
STARTCHAR 00EF
ENCODING 239
SWIDTH 270 0
DWIDTH 6 0
BBX 6 17 0 0
BITMAP
CC
CC
00
00
00
30
30
30
30
30
30
30
30
30
30
30
30
ENDCHAR
STARTCHAR 00F0
ENCODING 240
SWIDTH 675 0
DWIDTH 15 0
BBX 12 18 1 1
BITMAP
0200
1E00
0780
0CC0
0060
0020
0030
1F90
30D0
6030
4030
C010
C010
C030
6030
6060
39C0
1F80
ENDCHAR
STARTCHAR 00F1
ENCODING 241
SWIDTH 675 0
DWIDTH 15 0
BBX 11 17 2 0
BITMAP
1800
3EC0
63C0
0000
0000
DF80
F1C0
E060
C060
C060
C020
C020
C020
C020
C020
C020
C020
ENDCHAR
STARTCHAR 00F2
ENCODING 242
SWIDTH 675 0
DWIDTH 15 0
BBX 13 18 1 0
BITMAP
1800
0C00
0600
0200
0000
0000
1FC0
38E0
6030
6030
C018
C018
C018
4018
6030
7070
3DE0
0F80
ENDCHAR
STARTCHAR 00F3
ENCODING 243
SWIDTH 675 0
DWIDTH 15 0
BBX 13 18 1 0
BITMAP
00C0
0180
0300
0200
0000
0000
1FC0
38E0
6030
6030
C018
C018
C018
4018
6030
7070
3DE0
0F80
ENDCHAR
STARTCHAR 00F4
ENCODING 244
SWIDTH 675 0
DWIDTH 15 0
BBX 13 17 1 0
BITMAP
0700
1DC0
18C0
0000
0000
1FC0
38E0
6030
6030
C018
C018
C018
4018
6030
7070
3DE0
0F80
ENDCHAR
STARTCHAR 00F5
ENCODING 245
SWIDTH 675 0
DWIDTH 15 0
BBX 13 17 1 0
BITMAP
0C00
1F60
31E0
0000
0000
1FC0
38E0
6030
6030
C018
C018
C018
4018
6030
7070
3DE0
0F80
ENDCHAR
STARTCHAR 00F6
ENCODING 246
SWIDTH 675 0
DWIDTH 15 0
BBX 13 17 1 0
BITMAP
18C0
18C0
0880
0000
0000
1FC0
38E0
6030
6030
C018
C018
C018
4018
6030
7070
3DE0
0F80
ENDCHAR
STARTCHAR 00F7
ENCODING 247
SWIDTH 450 0
DWIDTH 10 0
BBX 8 9 1 3
BITMAP
18
18
00
FF
FF
00
08
18
08
ENDCHAR
STARTCHAR 00F8
ENCODING 248
SWIDTH 720 0
DWIDTH 16 0
BBX 13 12 1 0
BITMAP
0FC8
1CF0
3030
6058
6098
4118
4218
6418
6818
3030
7CE0
CFC0
ENDCHAR
STARTCHAR 00F9
ENCODING 249
SWIDTH 675 0
DWIDTH 15 0
BBX 11 18 2 0
BITMAP
3000
1800
0C00
0400
0000
0000
8060
8060
8060
8060
8060
8060
8060
C060
C060
E0E0
7BE0
3F60
ENDCHAR
STARTCHAR 00FA
ENCODING 250
SWIDTH 675 0
DWIDTH 15 0
BBX 11 18 2 0
BITMAP
0180
0300
0600
0400
0000
0000
8060
8060
8060
8060
8060
8060
8060
C060
C060
E0E0
7BE0
3F60
ENDCHAR
STARTCHAR 00FB
ENCODING 251
SWIDTH 675 0
DWIDTH 15 0
BBX 11 17 2 0
BITMAP
0E00
3B80
3180
0000
0000
8060
8060
8060
8060
8060
8060
8060
C060
C060
E0E0
7BE0
3F60
ENDCHAR
STARTCHAR 00FC
ENCODING 252
SWIDTH 675 0
DWIDTH 15 0
BBX 11 17 2 0
BITMAP
3180
3180
1100
0000
0000
8060
8060
8060
8060
8060
8060
8060
C060
C060
E0E0
7BE0
3F60
ENDCHAR
STARTCHAR 00FD
ENCODING 253
SWIDTH 540 0
DWIDTH 12 0
BBX 12 23 0 -5
BITMAP
0180
0380
0700
0600
0000
0000
C030
6030
6060
2060
3040
10C0
1880
0980
0D00
0700
0700
0600
0600
0C00
0C00
0800
1800
ENDCHAR
STARTCHAR 00FE
ENCODING 254
SWIDTH 720 0
DWIDTH 16 0
BBX 12 22 2 -5
BITMAP
C000
C000
C000
C000
C000
CF80
F8E0
E060
C030
C030
C010
C010
C030
C030
E060
F9E0
CF80
C000
C000
C000
C000
C000
ENDCHAR
STARTCHAR 00FF
ENCODING 255
SWIDTH 540 0
DWIDTH 12 0
BBX 12 22 0 -5
BITMAP
1880
19C0
1080
0000
0000
C030
6030
6060
2060
3040
10C0
1880
0980
0D00
0700
0700
0600
0600
0C00
0C00
0800
1800
ENDCHAR
STARTCHAR 0100
ENCODING 256
SWIDTH 720 0
DWIDTH 16 0
BBX 15 21 0 0
BITMAP
0FF0
0000
0000
0000
0180
0380
03C0
02C0
0640
0660
0C20
0C30
0830
1818
1818
3FF8
3FFC
600C
6006
4006
C002
ENDCHAR
STARTCHAR 0101
ENCODING 257
SWIDTH 675 0
DWIDTH 15 0
BBX 13 16 1 0
BITMAP
1FC0
0000
0000
0000
1FC0
38E0
6030
6030
C018
C018
C018
4018
6038
7078
3DD8
0F98
ENDCHAR
STARTCHAR 0102
ENCODING 258
SWIDTH 720 0
DWIDTH 16 0
BBX 15 23 0 0
BITMAP
0420
0C20
07E0
0380
0000
0000
0180
0380
03C0
02C0
0640
0660
0C20
0C30
0830
1818
1818
3FF8
3FFC
600C
6006
4006
C002
ENDCHAR
STARTCHAR 0103
ENCODING 259
SWIDTH 675 0
DWIDTH 15 0
BBX 13 17 1 0
BITMAP
18C0
1DC0
0F80
0000
0000
1FC0
38E0
6030
6030
C018
C018
C018
4018
6038
7078
3DD8
0F98
ENDCHAR
STARTCHAR 0104
ENCODING 260
SWIDTH 720 0
DWIDTH 16 0
BBX 17 22 0 -5
BITMAP
018000
038000
03C000
02C000
064000
066000
0C2000
0C3000
083000
181800
181800
3FF800
3FFC00
600C00
600600
400600
C00200
000600
000C00
000C00
000D80
000700
ENDCHAR
STARTCHAR 0105
ENCODING 261
SWIDTH 675 0
DWIDTH 15 0
BBX 15 18 1 -6
BITMAP
1FC0
38E0
6030
6030
C018
C018
C018
4018
6038
7078
3DD8
0F98
0008
0018
0030
0032
003E
001C
ENDCHAR
STARTCHAR 0106
ENCODING 262
SWIDTH 765 0
DWIDTH 17 0
BBX 15 23 1 0
BITMAP
0030
0060
00C0
0080
0000
00C0
07F8
1E0E
3804
3000
6000
6000
4000
C000
C000
C000
4000
6000
6000
3000
1806
0F3C
03F8
ENDCHAR
STARTCHAR 0107
ENCODING 263
SWIDTH 585 0
DWIDTH 13 0
BBX 11 18 1 0
BITMAP
0180
0380
0700
0600
0000
0000
1F80
38C0
6060
6000
C000
C000
C000
4000
6000
6040
3DE0
0F80
ENDCHAR
STARTCHAR 0108
ENCODING 264
SWIDTH 765 0
DWIDTH 17 0
BBX 15 23 1 0
BITMAP
0080
01E0
0370
0210
0000
00C0
07F8
1E0E
3804
3000
6000
6000
4000
C000
C000
C000
4000
6000
6000
3000
1806
0F3C
03F8
ENDCHAR
STARTCHAR 0109
ENCODING 265
SWIDTH 585 0
DWIDTH 13 0
BBX 11 17 1 0
BITMAP
0F00
1F80
10C0
0000
0000
1F80
38C0
6060
6000
C000
C000
C000
4000
6000
6040
3DE0
0F80
ENDCHAR
STARTCHAR 010A
ENCODING 266
SWIDTH 765 0
DWIDTH 17 0
BBX 15 22 1 0
BITMAP
00C0
00C0
0000
0000
00C0
07F8
1E0E
3804
3000
6000
6000
4000
C000
C000
C000
4000
6000
6000
3000
1806
0F3C
03F8
ENDCHAR
STARTCHAR 010B
ENCODING 267
SWIDTH 585 0
DWIDTH 13 0
BBX 11 17 1 0
BITMAP
0600
0600
0200
0000
0000
1F80
38C0
6060
6000
C000
C000
C000
4000
6000
6040
3DE0
0F80
ENDCHAR
STARTCHAR 010C
ENCODING 268
SWIDTH 765 0
DWIDTH 17 0
BBX 15 23 1 0
BITMAP
0210
0330
01E0
0080
0000
00C0
07F8
1E0E
3804
3000
6000
6000
4000
C000
C000
C000
4000
6000
6000
3000
1806
0F3C
03F8
ENDCHAR
STARTCHAR 010D
ENCODING 269
SWIDTH 585 0
DWIDTH 13 0
BBX 11 17 1 1
BITMAP
19C0
0F00
0600
0000
0000
1F80
38C0
6060
6000
C000
C000
C000
4000
6000
6040
3DE0
0F80
ENDCHAR
STARTCHAR 010E
ENCODING 270
SWIDTH 765 0
DWIDTH 17 0
BBX 14 23 2 0
BITMAP
1040
1DC0
0780
0200
0000
0000
FF80
C1E0
C070
C030
C018
C008
C00C
C00C
C00C
C00C
C00C
C018
C018
C030
C060
FFC0
FF00
ENDCHAR
STARTCHAR 010F
ENCODING 271
SWIDTH 810 0
DWIDTH 18 0
BBX 17 17 1 0
BITMAP
001980
001980
001980
001900
001B00
1F9800
38F800
603800
603800
C01800
C01800
C01800
401800
603000
707000
3DE000
0F8000
ENDCHAR
STARTCHAR 0110
ENCODING 272
SWIDTH 765 0
DWIDTH 17 0
BBX 16 17 0 0
BITMAP
3FE0
3078
301C
300C
3006
3002
3003
3003
FF03
3003
3003
3006
3006
300C
3018
3FF0
3FC0
ENDCHAR
STARTCHAR 0111
ENCODING 273
SWIDTH 720 0
DWIDTH 16 0
BBX 15 17 1 0
BITMAP
0018
0018
01FE
0018
0018
1F98
38F8
6038
6038
C018
C018
C018
4018
6030
7070
3DE0
0F80
ENDCHAR
STARTCHAR 0112
ENCODING 274
SWIDTH 675 0
DWIDTH 15 0
BBX 12 21 2 0
BITMAP
1FC0
0000
0000
0000
FFF0
C000
C000
C000
C000
C000
C000
FF80
FFC0
C000
C000
C000
C000
C000
C000
FFF0
FFF0
ENDCHAR
STARTCHAR 0113
ENCODING 275
SWIDTH 630 0
DWIDTH 14 0
BBX 12 16 1 0
BITMAP
3FC0
0000
0000
0000
1F80
38C0
6060
4020
C030
FFF0
FFE0
4000
6000
6000
3DE0
0F80
ENDCHAR
STARTCHAR 0114
ENCODING 276
SWIDTH 675 0
DWIDTH 15 0
BBX 12 23 2 0
BITMAP
1040
18C0
1F80
0700
0000
0000
FFF0
C000
C000
C000
C000
C000
C000
FF80
FFC0
C000
C000
C000
C000
C000
C000
FFF0
FFF0
ENDCHAR
STARTCHAR 0115
ENCODING 277
SWIDTH 630 0
DWIDTH 14 0
BBX 12 17 1 0
BITMAP
10C0
1D80
0F00
0000
0000
1F80
38C0
6060
4020
C030
FFF0
FFE0
4000
6000
6000
3DE0
0F80
ENDCHAR
STARTCHAR 0116
ENCODING 278
SWIDTH 675 0
DWIDTH 15 0
BBX 12 22 2 0
BITMAP
0600
0700
0000
0000
0000
FFF0
C000
C000
C000
C000
C000
C000
FF80
FFC0
C000
C000
C000
C000
C000
C000
FFF0
FFF0
ENDCHAR
STARTCHAR 0117
ENCODING 279
SWIDTH 630 0
DWIDTH 14 0
BBX 12 17 1 0
BITMAP
0600
0600
0000
0000
0000
1F80
38C0
6060
4020
C030
FFF0
FFE0
4000
6000
6000
3DE0
0F80
ENDCHAR
STARTCHAR 0118
ENCODING 280
SWIDTH 675 0
DWIDTH 15 0
BBX 14 23 2 -6
BITMAP
FFF0
C000
C000
C000
C000
C000
C000
FF80
FFC0
C000
C000
C000
C000
C000
C000
FFF0
FFF0
0018
0030
0060
0064
003C
0018
ENDCHAR
STARTCHAR 0119
ENCODING 281
SWIDTH 630 0
DWIDTH 14 0
BBX 12 16 1 -4
BITMAP
1F80
38C0
6060
4020
C030
FFF0
FFE0
4000
6000
6000
3DE0
0F80
0300
0600
0360
03C0
ENDCHAR
STARTCHAR 011A
ENCODING 282
SWIDTH 675 0
DWIDTH 15 0
BBX 12 23 2 0
BITMAP
1040
1DC0
0700
0200
0000
0000
FFF0
C000
C000
C000
C000
C000
C000
FF80
FFC0
C000
C000
C000
C000
C000
C000
FFF0
FFF0
ENDCHAR
STARTCHAR 011B
ENCODING 283
SWIDTH 630 0
DWIDTH 14 0
BBX 12 17 1 1
BITMAP
1980
0F00
0600
0000
0000
1F80
38C0
6060
4020
C030
FFF0
FFE0
4000
6000
6000
3DE0
0F80
ENDCHAR
STARTCHAR 011C
ENCODING 284
SWIDTH 765 0
DWIDTH 17 0
BBX 15 23 1 0
BITMAP
0080
01E0
0770
0210
0000
00C0
07F8
1E0E
3804
3000
6000
6000
4000
C000
C07C
C07E
4006
6006
6006
3006
1806
0F3C
03F8
ENDCHAR
STARTCHAR 011D
ENCODING 285
SWIDTH 675 0
DWIDTH 15 0
BBX 13 22 1 -5
BITMAP
0700
1DC0
18C0
0000
0000
1FC0
38E0
6030
6030
C018
C018
C018
4018
6038
7038
3DD8
0F98
0010
6030
7060
3FC0
0F80
ENDCHAR
STARTCHAR 011E
ENCODING 286
SWIDTH 765 0
DWIDTH 17 0
BBX 15 23 1 0
BITMAP
0210
0630
03F0
01C0
0000
00C0
07F8
1E0E
3804
3000
6000
6000
4000
C000
C07C
C07E
4006
6006
6006
3006
1806
0F3C
03F8
ENDCHAR
STARTCHAR 011F
ENCODING 287
SWIDTH 675 0
DWIDTH 15 0
BBX 13 22 1 -5
BITMAP
18C0
1DC0
0F80
0000
0000
1FC0
38E0
6030
6030
C018
C018
C018
4018
6038
7038
3DD8
0F98
0010
6030
7060
3FC0
0F80
ENDCHAR
STARTCHAR 0120
ENCODING 288
SWIDTH 765 0
DWIDTH 17 0
BBX 15 22 1 0
BITMAP
00C0
00C0
0000
0000
00C0
07F8
1E0E
3804
3000
6000
6000
4000
C000
C07C
C07E
4006
6006
6006
3006
1806
0F3C
03F8
ENDCHAR
STARTCHAR 0121
ENCODING 289
SWIDTH 675 0
DWIDTH 15 0
BBX 13 22 1 -5
BITMAP
0200
0700
0200
0000
0000
1FC0
38E0
6030
6030
C018
C018
C018
4018
6038
7038
3DD8
0F98
0010
6030
7060
3FC0
0F80
ENDCHAR
STARTCHAR 0122
ENCODING 290
SWIDTH 765 0
DWIDTH 17 0
BBX 15 23 1 -5
BITMAP
00C0
07F8
1E0E
3804
3000
6000
6000
4000
C000
C07C
C07E
4006
6006
6006
3006
1806
0F3C
03F8
0000
00E0
0020
0320
03E0
ENDCHAR
STARTCHAR 0123
ENCODING 291
SWIDTH 675 0
DWIDTH 15 0
BBX 13 25 1 -5
BITMAP
0300
0200
0600
0700
0700
0200
0000
0000
1FC0
38E0
6030
6030
C018
C018
C018
4018
6038
7038
3DD8
0F98
0010
6030
7060
3FC0
0F80
ENDCHAR
STARTCHAR 0124
ENCODING 292
SWIDTH 855 0
DWIDTH 19 0
BBX 15 23 2 0
BITMAP
0100
0780
0EE0
0860
0000
0000
C006
C006
C006
C006
C006
C006
C006
FFFE
FFFE
C006
C006
C006
C006
C006
C006
C006
C004
ENDCHAR
STARTCHAR 0125
ENCODING 293
SWIDTH 675 0
DWIDTH 15 0
BBX 13 23 0 0
BITMAP
2000
7800
DC00
8400
0000
0000
3000
3000
3000
3000
3000
37E0
3C70
3818
3018
3018
3008
3008
3008
3008
3008
3008
3008
ENDCHAR
STARTCHAR 0126
ENCODING 294
SWIDTH 855 0
DWIDTH 19 0
BBX 17 17 1 0
BITMAP
600300
600300
600300
FFFF80
600300
600300
600300
7FFF00
7FFF00
600300
600300
600300
600300
600300
600300
600300
600200
ENDCHAR
STARTCHAR 0127
ENCODING 295
SWIDTH 675 0
DWIDTH 15 0
BBX 13 17 0 0
BITMAP
3000
3000
FF80
3000
3000
37E0
3C70
3818
3018
3018
3008
3008
3008
3008
3008
3008
3008
ENDCHAR
STARTCHAR 0128
ENCODING 296
SWIDTH 270 0
DWIDTH 6 0
BBX 7 22 -1 0
BITMAP
72
CE
04
00
00
18
18
18
18
18
18
18
18
18
18
18
18
18
18
18
18
18
ENDCHAR
STARTCHAR 0129
ENCODING 297
SWIDTH 270 0
DWIDTH 6 0
BBX 6 17 0 0
BITMAP
E4
BC
8C
00
00
30
30
30
30
30
30
30
30
30
30
30
30
ENDCHAR
STARTCHAR 012A
ENCODING 298
SWIDTH 270 0
DWIDTH 6 0
BBX 8 21 -1 0
BITMAP
FF
00
00
00
18
18
18
18
18
18
18
18
18
18
18
18
18
18
18
18
18
ENDCHAR
STARTCHAR 012B
ENCODING 299
SWIDTH 270 0
DWIDTH 6 0
BBX 6 16 0 0
BITMAP
FC
00
00
00
30
30
30
30
30
30
30
30
30
30
30
30
ENDCHAR
STARTCHAR 012C
ENCODING 300
SWIDTH 270 0
DWIDTH 6 0
BBX 7 23 0 0
BITMAP
84
86
FC
78
00
00
30
30
30
30
30
30
30
30
30
30
30
30
30
30
30
30
30
ENDCHAR
STARTCHAR 012D
ENCODING 301
SWIDTH 270 0
DWIDTH 6 0
BBX 6 17 0 0
BITMAP
C4
EC
78
00
00
30
30
30
30
30
30
30
30
30
30
30
30
ENDCHAR
STARTCHAR 012E
ENCODING 302
SWIDTH 270 0
DWIDTH 6 0
BBX 6 23 0 -6
BITMAP
30
30
30
30
30
30
30
30
30
30
30
30
30
30
30
30
30
30
70
60
C8
7C
30
ENDCHAR
STARTCHAR 012F
ENCODING 303
SWIDTH 270 0
DWIDTH 6 0
BBX 5 23 1 -6
BITMAP
60
60
20
00
00
60
60
60
60
60
60
60
60
60
60
60
60
60
E0
C0
98
F8
60
ENDCHAR
STARTCHAR 0130
ENCODING 304
SWIDTH 270 0
DWIDTH 6 0
BBX 2 22 2 0
BITMAP
C0
C0
00
00
00
C0
C0
C0
C0
C0
C0
C0
C0
C0
C0
C0
C0
C0
C0
C0
C0
C0
ENDCHAR
STARTCHAR 0131
ENCODING 305
SWIDTH 270 0
DWIDTH 6 0
BBX 2 12 2 0
BITMAP
C0
C0
C0
C0
C0
C0
C0
C0
C0
C0
C0
C0
ENDCHAR
STARTCHAR 0132
ENCODING 306
SWIDTH 630 0
DWIDTH 14 0
BBX 10 17 2 0
BITMAP
C0C0
C0C0
C0C0
C0C0
C0C0
C0C0
C0C0
C0C0
C0C0
C0C0
00C0
00C0
C0C0
C0C0
C180
7380
3F00
ENDCHAR
STARTCHAR 0133
ENCODING 307
SWIDTH 585 0
DWIDTH 13 0
BBX 9 22 2 -5
BITMAP
C100
C380
4100
0000
0000
C100
C100
C100
C100
C100
C100
C100
C100
C100
C100
C100
C100
0100
0300
0300
1E00
3C00
ENDCHAR
STARTCHAR 0134
ENCODING 308
SWIDTH 630 0
DWIDTH 14 0
BBX 13 23 1 0
BITMAP
0040
00F0
03B8
0308
0000
0000
0040
0040
0040
0040
0040
0040
0040
0040
0040
0040
0040
C040
C040
C0C0
60C0
7380
3F00
ENDCHAR
STARTCHAR 0135
ENCODING 309
SWIDTH 270 0
DWIDTH 6 0
BBX 8 22 -2 -5
BITMAP
0E
3F
31
00
00
0C
0C
0C
0C
0C
0C
0C
0C
0C
0C
0C
0C
0C
0C
18
78
F0
ENDCHAR
STARTCHAR 0136
ENCODING 310
SWIDTH 675 0
DWIDTH 15 0
BBX 12 22 2 -5
BITMAP
C030
C060
C0C0
C180
C300
C600
CC00
D800
FC00
E600
C700
C300
C180
C0C0
C0E0
C060
C020
0000
0E00
0100
1100
1F00
ENDCHAR
STARTCHAR 0137
ENCODING 311
SWIDTH 585 0
DWIDTH 13 0
BBX 9 22 2 -5
BITMAP
C000
C000
C000
C000
C000
C180
C380
C600
CC00
D800
F800
EC00
CE00
C600
C300
C180
C080
0000
1C00
0200
2200
3E00
ENDCHAR
STARTCHAR 0138
ENCODING 312
SWIDTH 585 0
DWIDTH 13 0
BBX 9 12 2 0
BITMAP
C180
C380
C600
CC00
D800
F800
EC00
CE00
C600
C300
C180
C080
ENDCHAR
STARTCHAR 0139
ENCODING 313
SWIDTH 630 0
DWIDTH 14 0
BBX 11 23 2 0
BITMAP
3000
7000
E000
C000
0000
0000
C000
C000
C000
C000
C000
C000
C000
C000
C000
C000
C000
C000
C000
C000
C000
FFE0
FFE0
ENDCHAR
STARTCHAR 013A
ENCODING 314
SWIDTH 270 0
DWIDTH 6 0
BBX 5 21 1 0
BITMAP
10
30
60
C0
00
00
40
40
40
40
40
40
40
40
40
40
40
40
60
78
38
ENDCHAR
STARTCHAR 013B
ENCODING 315
SWIDTH 630 0
DWIDTH 14 0
BBX 11 22 2 -5
BITMAP
C000
C000
C000
C000
C000
C000
C000
C000
C000
C000
C000
C000
C000
C000
C000
FFE0
FFE0
0000
0E00
0100
1100
1E00
ENDCHAR
STARTCHAR 013C
ENCODING 316
SWIDTH 270 0
DWIDTH 6 0
BBX 5 22 2 -5
BITMAP
80
80
80
80
80
80
80
80
80
80
80
80
80
80
C0
F0
70
00
38
08
C8
F8
ENDCHAR
STARTCHAR 013D
ENCODING 317
SWIDTH 630 0
DWIDTH 14 0
BBX 11 17 2 0
BITMAP
C180
C180
C180
C100
C300
C000
C000
C000
C000
C000
C000
C000
C000
C000
C000
FFE0
FFE0
ENDCHAR
STARTCHAR 013E
ENCODING 318
SWIDTH 360 0
DWIDTH 8 0
BBX 6 17 2 0
BITMAP
8C
8C
8C
8C
98
80
80
80
80
80
80
80
80
80
C0
F0
70
ENDCHAR
STARTCHAR 013F
ENCODING 319
SWIDTH 585 0
DWIDTH 13 0
BBX 11 17 2 0
BITMAP
C000
C000
C000
C000
C000
C000
C000
C100
C380
C180
C000
C000
C000
C000
C000
FFE0
FFE0
ENDCHAR
STARTCHAR 0140
ENCODING 320
SWIDTH 360 0
DWIDTH 8 0
BBX 6 17 2 0
BITMAP
80
80
80
80
80
80
80
88
9C
9C
80
80
80
80
C0
F0
70
ENDCHAR
STARTCHAR 0141
ENCODING 321
SWIDTH 675 0
DWIDTH 15 0
BBX 14 17 0 0
BITMAP
1000
1000
1000
1100
1300
1700
1E00
1800
3000
7000
D000
1000
1000
1000
1000
1FFC
1FFC
ENDCHAR
STARTCHAR 0142
ENCODING 322
SWIDTH 360 0
DWIDTH 8 0
BBX 7 17 0 0
BITMAP
10
10
10
10
10
16
1C
18
30
70
D0
10
10
10
10
1C
1C
ENDCHAR
STARTCHAR 0143
ENCODING 323
SWIDTH 810 0
DWIDTH 18 0
BBX 14 23 2 0
BITMAP
00C0
01C0
0380
0300
0000
0000
C00C
E00C
F00C
D00C
D80C
CC0C
C60C
C20C
C30C
C18C
C0CC
C06C
C06C
C03C
C01C
C00C
C00C
ENDCHAR
STARTCHAR 0144
ENCODING 324
SWIDTH 675 0
DWIDTH 15 0
BBX 11 18 2 0
BITMAP
0180
0300
0600
0400
0000
0000
DF80
F1C0
E060
C060
C060
C020
C020
C020
C020
C020
C020
C020
ENDCHAR
STARTCHAR 0145
ENCODING 325
SWIDTH 810 0
DWIDTH 18 0
BBX 14 22 2 -5
BITMAP
C00C
E00C
F00C
D00C
D80C
CC0C
C60C
C20C
C30C
C18C
C0CC
C06C
C06C
C03C
C01C
C00C
C00C
0000
0380
00C0
0440
0780
ENDCHAR
STARTCHAR 0146
ENCODING 326
SWIDTH 675 0
DWIDTH 15 0
BBX 11 17 2 -5
BITMAP
DF80
F1C0
E060
C060
C060
C020
C020
C020
C020
C020
C020
C020
0000
0700
0100
1100
1F00
ENDCHAR
STARTCHAR 0147
ENCODING 327
SWIDTH 810 0
DWIDTH 18 0
BBX 14 23 2 0
BITMAP
0800
0CC0
0780
0100
0000
0000
C00C
E00C
F00C
D00C
D80C
CC0C
C60C
C20C
C30C
C18C
C0CC
C06C
C06C
C03C
C01C
C00C
C00C
ENDCHAR
STARTCHAR 0148
ENCODING 328
SWIDTH 675 0
DWIDTH 15 0
BBX 11 17 2 1
BITMAP
3180
1F00
0400
0000
0000
DF80
F1C0
E060
C060
C060
C020
C020
C020
C020
C020
C020
C020
ENDCHAR
STARTCHAR 014A
ENCODING 330
SWIDTH 720 0
DWIDTH 16 0
BBX 12 17 2 0
BITMAP
DF80
F8E0
E060
C030
C030
C010
C010
C010
C010
C010
C010
C010
C030
C030
D820
CEE0
C7C0
ENDCHAR
STARTCHAR 014B
ENCODING 331
SWIDTH 675 0
DWIDTH 15 0
BBX 11 16 2 -4
BITMAP
DF80
F1C0
E0E0
C060
C060
C020
C020
C020
C020
C020
C060
C060
0060
1060
18C0
1F80
ENDCHAR
STARTCHAR 014C
ENCODING 332
SWIDTH 900 0
DWIDTH 20 0
BBX 18 21 1 0
BITMAP
07F800
000000
000000
00C000
07FC00
1E0E00
380300
300180
600180
6000C0
4000C0
C000C0
C000C0
C000C0
4000C0
6000C0
600180
300380
180700
0F3E00
03F800
ENDCHAR
STARTCHAR 014D
ENCODING 333
SWIDTH 675 0
DWIDTH 15 0
BBX 13 16 1 0
BITMAP
1FC0
0000
0000
0000
1FC0
38E0
6030
6030
C018
C018
C018
4018
6030
7070
3DE0
0F80
ENDCHAR
STARTCHAR 014E
ENCODING 334
SWIDTH 900 0
DWIDTH 20 0
BBX 18 23 1 0
BITMAP
021000
021800
03F000
00E000
000000
00C000
07FC00
1E0E00
380300
300180
600180
6000C0
4000C0
C000C0
C000C0
C000C0
4000C0
6000C0
600180
300380
180700
0F3E00
03F800
ENDCHAR
STARTCHAR 014F
ENCODING 335
SWIDTH 675 0
DWIDTH 15 0
BBX 13 17 1 0
BITMAP
18C0
1DC0
0F80
0000
0000
1FC0
38E0
6030
6030
C018
C018
C018
4018
6030
7070
3DE0
0F80
ENDCHAR
STARTCHAR 0150
ENCODING 336
SWIDTH 900 0
DWIDTH 20 0
BBX 18 23 1 1
BITMAP
00D800
019000
01B000
012000
000000
00C000
07FC00
1E0E00
380300
300180
600180
6000C0
4000C0
C000C0
C000C0
C000C0
4000C0
6000C0
600180
300380
180700
0F3E00
03F800
ENDCHAR
STARTCHAR 0151
ENCODING 337
SWIDTH 675 0
DWIDTH 15 0
BBX 13 18 1 0
BITMAP
06C0
04C0
0C80
0C80
0000
0000
1FC0
38E0
6030
6030
C018
C018
C018
4018
6030
7070
3DE0
0F80
ENDCHAR
STARTCHAR 0152
ENCODING 338
SWIDTH 1170 0
DWIDTH 26 0
BBX 24 18 1 0
BITMAP
00E000
07FFFF
1E0C00
380C00
300C00
600C00
600C00
400C00
C00FF0
C00FF8
C00C00
400C00
600C00
600C00
300C00
180C00
0F1FFE
03FFFF
ENDCHAR
STARTCHAR 0153
ENCODING 339
SWIDTH 1080 0
DWIDTH 24 0
BBX 22 12 1 0
BITMAP
1FC3F0
38E638
603C0C
60380C
C01804
C01FFC
C01FFC
401800
603800
703C08
3DE738
0F83F0
ENDCHAR
STARTCHAR 0154
ENCODING 340
SWIDTH 630 0
DWIDTH 14 0
BBX 11 23 2 0
BITMAP
0300
0700
0E00
0C00
0000
0000
FF00
C1C0
C0C0
C060
C060
C060
C060
C0C0
C380
FF00
C300
C300
C180
C0C0
C0C0
C060
C020
ENDCHAR
STARTCHAR 0155
ENCODING 341
SWIDTH 450 0
DWIDTH 10 0
BBX 7 18 2 0
BITMAP
06
0C
18
10
00
00
DE
F0
C0
C0
C0
C0
C0
C0
C0
C0
C0
C0
ENDCHAR
STARTCHAR 0156
ENCODING 342
SWIDTH 630 0
DWIDTH 14 0
BBX 11 22 2 -5
BITMAP
FF00
C1C0
C0C0
C060
C060
C060
C060
C0C0
C380
FF00
C300
C300
C180
C0C0
C0C0
C060
C020
0000
0E00
0300
1100
1E00
ENDCHAR
STARTCHAR 0157
ENCODING 343
SWIDTH 450 0
DWIDTH 10 0
BBX 9 17 0 -5
BITMAP
3780
3C00
3000
3000
3000
3000
3000
3000
3000
3000
3000
3000
0000
3800
0C00
CC00
7800
ENDCHAR
STARTCHAR 0158
ENCODING 344
SWIDTH 630 0
DWIDTH 14 0
BBX 11 23 2 0
BITMAP
2100
3300
1E00
0400
0000
0000
FF00
C1C0
C0C0
C060
C060
C060
C060
C0C0
C380
FF00
C300
C300
C180
C0C0
C0C0
C060
C020
ENDCHAR
STARTCHAR 0159
ENCODING 345
SWIDTH 450 0
DWIDTH 10 0
BBX 7 17 2 1
BITMAP
E6
7C
10
00
00
DE
F0
C0
C0
C0
C0
C0
C0
C0
C0
C0
C0
ENDCHAR
STARTCHAR 015A
ENCODING 346
SWIDTH 675 0
DWIDTH 15 0
BBX 12 23 1 0
BITMAP
01C0
0380
0700
0200
0000
0200
1FC0
3060
6030
6000
6000
6000
3000
1F00
07E0
0070
0030
0010
0010
C030
6030
3CE0
1FC0
ENDCHAR
STARTCHAR 015B
ENCODING 347
SWIDTH 540 0
DWIDTH 12 0
BBX 10 18 1 0
BITMAP
0300
0700
0E00
0C00
0000
0000
3F00
7180
60C0
6000
6000
3E00
0780
00C0
00C0
C0C0
7380
3F00
ENDCHAR
STARTCHAR 015C
ENCODING 348
SWIDTH 675 0
DWIDTH 15 0
BBX 12 23 1 0
BITMAP
0200
0F00
1DC0
10C0
0000
0200
1FC0
3060
6030
6000
6000
6000
3000
1F00
07E0
0070
0030
0010
0010
C030
6030
3CE0
1FC0
ENDCHAR
STARTCHAR 015D
ENCODING 349
SWIDTH 540 0
DWIDTH 12 0
BBX 10 17 1 0
BITMAP
1E00
3F00
2180
0000
0000
3F00
7180
60C0
6000
6000
3E00
0780
00C0
00C0
C0C0
7380
3F00
ENDCHAR
STARTCHAR 015E
ENCODING 350
SWIDTH 675 0
DWIDTH 15 0
BBX 12 23 1 -5
BITMAP
0200
1FC0
3060
6030
6000
6000
6000
3000
1F00
07E0
0070
0030
0010
0010
C030
6030
3CE0
1FC0
0200
0380
0180
0980
0F00
ENDCHAR
STARTCHAR 015F
ENCODING 351
SWIDTH 540 0
DWIDTH 12 0
BBX 10 17 1 -5
BITMAP
3F00
7180
60C0
6000
6000
3E00
0780
00C0
00C0
C0C0
7380
3F00
0C00
0F00
0300
3300
1E00
ENDCHAR
STARTCHAR 0160
ENCODING 352
SWIDTH 675 0
DWIDTH 15 0
BBX 12 23 1 0
BITMAP
1040
1DC0
0F00
0200
0000
0200
1FC0
3060
6030
6000
6000
6000
3000
1F00
07E0
0070
0030
0010
0010
C030
6030
3CE0
1FC0
ENDCHAR
STARTCHAR 0161
ENCODING 353
SWIDTH 540 0
DWIDTH 12 0
BBX 10 17 1 1
BITMAP
3380
1E00
0C00
0000
0000
3F00
7180
60C0
6000
6000
3E00
0780
00C0
00C0
C0C0
7380
3F00
ENDCHAR
STARTCHAR 0162
ENCODING 354
SWIDTH 675 0
DWIDTH 15 0
BBX 14 22 0 -5
BITMAP
FFFC
0300
0300
0300
0300
0300
0300
0300
0300
0300
0300
0300
0300
0300
0300
0300
0380
0100
01C0
00C0
0CC0
0780
ENDCHAR
STARTCHAR 0163
ENCODING 355
SWIDTH 405 0
DWIDTH 9 0
BBX 7 21 1 -5
BITMAP
20
20
20
20
FC
FE
20
20
20
20
20
20
20
30
1E
0E
18
1C
06
66
3C
ENDCHAR
STARTCHAR 0164
ENCODING 356
SWIDTH 675 0
DWIDTH 15 0
BBX 14 23 0 0
BITMAP
0800
0CE0
0780
0100
0000
0000
FFFC
0300
0300
0300
0300
0300
0300
0300
0300
0300
0300
0300
0300
0300
0300
0300
0300
ENDCHAR
STARTCHAR 0165
ENCODING 357
SWIDTH 405 0
DWIDTH 9 0
BBX 7 19 1 0
BITMAP
06
06
06
26
24
20
20
FC
FE
20
20
20
20
20
20
20
30
1E
0E
ENDCHAR
STARTCHAR 0166
ENCODING 358
SWIDTH 675 0
DWIDTH 15 0
BBX 14 17 0 0
BITMAP
FFFC
0300
0300
0300
0300
0300
0300
0300
1FF0
0300
0300
0300
0300
0300
0300
0300
0300
ENDCHAR
STARTCHAR 0167
ENCODING 359
SWIDTH 405 0
DWIDTH 9 0
BBX 7 16 1 0
BITMAP
20
20
20
20
FC
FE
20
20
FC
FC
20
20
20
30
1E
0E
ENDCHAR
STARTCHAR 0168
ENCODING 360
SWIDTH 810 0
DWIDTH 18 0
BBX 14 22 2 0
BITMAP
0600
1FF0
10E0
0000
0000
C00C
C00C
C00C
C00C
C00C
C00C
C00C
C00C
C00C
C00C
C00C
C00C
C00C
600C
6018
3870
1FE0
ENDCHAR
STARTCHAR 0169
ENCODING 361
SWIDTH 675 0
DWIDTH 15 0
BBX 11 17 2 0
BITMAP
1800
3EC0
63C0
0000
0000
8060
8060
8060
8060
8060
8060
8060
C060
C060
E0E0
7BE0
3F60
ENDCHAR
STARTCHAR 016A
ENCODING 362
SWIDTH 810 0
DWIDTH 18 0
BBX 14 21 2 0
BITMAP
1FE0
0000
0000
0000
C00C
C00C
C00C
C00C
C00C
C00C
C00C
C00C
C00C
C00C
C00C
C00C
C00C
600C
6018
3870
1FE0
ENDCHAR
STARTCHAR 016B
ENCODING 363
SWIDTH 675 0
DWIDTH 15 0
BBX 11 16 2 0
BITMAP
3F80
0000
0000
0000
8060
8060
8060
8060
8060
8060
8060
C060
C060
E0E0
7BE0
3F60
ENDCHAR
STARTCHAR 016C
ENCODING 364
SWIDTH 810 0
DWIDTH 18 0
BBX 14 23 2 0
BITMAP
0840
0860
0FC0
0780
0000
0000
C00C
C00C
C00C
C00C
C00C
C00C
C00C
C00C
C00C
C00C
C00C
C00C
C00C
600C
6018
3870
1FE0
ENDCHAR
STARTCHAR 016D
ENCODING 365
SWIDTH 675 0
DWIDTH 15 0
BBX 11 17 2 0
BITMAP
3180
3B80
1F00
0000
0000
8060
8060
8060
8060
8060
8060
8060
C060
C060
E0E0
7BE0
3F60
ENDCHAR
STARTCHAR 016E
ENCODING 366
SWIDTH 810 0
DWIDTH 18 0
BBX 14 23 2 0
BITMAP
0300
0480
0480
0680
0300
0000
C00C
C00C
C00C
C00C
C00C
C00C
C00C
C00C
C00C
C00C
C00C
C00C
C00C
600C
6018
3870
1FE0
ENDCHAR
STARTCHAR 016F
ENCODING 367
SWIDTH 675 0
DWIDTH 15 0
BBX 11 18 2 0
BITMAP
0400
0A00
1100
1B00
0E00
0000
8060
8060
8060
8060
8060
8060
8060
C060
C060
E0E0
7BE0
3F60
ENDCHAR
STARTCHAR 0170
ENCODING 368
SWIDTH 810 0
DWIDTH 18 0
BBX 14 24 2 0
BITMAP
0200
0260
0640
04C0
0480
0000
0000
C00C
C00C
C00C
C00C
C00C
C00C
C00C
C00C
C00C
C00C
C00C
C00C
C00C
600C
6018
3870
1FE0
ENDCHAR
STARTCHAR 0171
ENCODING 369
SWIDTH 675 0
DWIDTH 15 0
BBX 11 18 2 0
BITMAP
0D80
0980
1900
1300
0000
0000
8060
8060
8060
8060
8060
8060
8060
C060
C060
E0E0
7BE0
3F60
ENDCHAR
STARTCHAR 0172
ENCODING 370
SWIDTH 810 0
DWIDTH 18 0
BBX 14 22 2 -5
BITMAP
C00C
C00C
C00C
C00C
C00C
C00C
C00C
C00C
C00C
C00C
C00C
C00C
C00C
600C
6018
3870
1FE0
01C0
0180
01B0
01F0
00C0
ENDCHAR
STARTCHAR 0173
ENCODING 371
SWIDTH 675 0
DWIDTH 15 0
BBX 13 18 2 -6
BITMAP
8060
8060
8060
8060
8060
8060
8060
C060
C060
E0E0
7BE0
3F60
0060
00E0
00C0
0090
00F8
0060
ENDCHAR
STARTCHAR 0174
ENCODING 372
SWIDTH 945 0
DWIDTH 21 0
BBX 20 23 0 0
BITMAP
002000
00F000
01DC00
010C00
000000
000000
C02010
406030
607030
607030
205020
30D860
309860
308840
1188C0
198CC0
190C80
090480
0F0780
0F0780
060700
060300
060300
ENDCHAR
STARTCHAR 0175
ENCODING 373
SWIDTH 720 0
DWIDTH 16 0
BBX 16 17 0 0
BITMAP
01C0
07E0
0630
0000
0000
C183
4183
61C2
61C2
2346
3264
3264
162C
1C28
1C38
0C18
0C10
ENDCHAR
STARTCHAR 0176
ENCODING 374
SWIDTH 630 0
DWIDTH 14 0
BBX 14 23 0 0
BITMAP
0100
0780
0EE0
0840
0000
0000
C00C
600C
6018
3018
3030
1860
0C60
0CC0
0680
0380
0300
0300
0300
0300
0300
0300
0300
ENDCHAR
STARTCHAR 0177
ENCODING 375
SWIDTH 540 0
DWIDTH 12 0
BBX 12 22 0 -5
BITMAP
0700
1F80
18C0
0000
0000
C030
6030
6060
2060
3040
10C0
1880
0980
0D00
0700
0700
0600
0600
0C00
0C00
0800
1800
ENDCHAR
STARTCHAR 0178
ENCODING 376
SWIDTH 630 0
DWIDTH 14 0
BBX 14 22 0 0
BITMAP
0C60
0CE0
0000
0000
0000
C00C
600C
6018
3018
3030
1860
0C60
0CC0
0680
0380
0300
0300
0300
0300
0300
0300
0300
ENDCHAR
STARTCHAR 0179
ENCODING 377
SWIDTH 720 0
DWIDTH 16 0
BBX 14 23 1 0
BITMAP
00C0
01C0
0380
0300
0000
0000
FFFC
0008
0018
0030
0060
00C0
0080
0180
0300
0600
0C00
0800
1800
3000
6000
FFF8
FFFC
ENDCHAR
STARTCHAR 017A
ENCODING 378
SWIDTH 540 0
DWIDTH 12 0
BBX 10 18 1 0
BITMAP
0100
0300
0600
0C00
0000
0000
FFC0
00C0
0180
0300
0600
0600
0C00
1800
3000
2000
7FC0
FFC0
ENDCHAR
STARTCHAR 017B
ENCODING 379
SWIDTH 720 0
DWIDTH 16 0
BBX 14 22 1 0
BITMAP
0300
0300
0000
0000
0000
FFFC
0008
0018
0030
0060
00C0
0080
0180
0300
0600
0C00
0800
1800
3000
6000
FFF8
FFFC
ENDCHAR
STARTCHAR 017C
ENCODING 380
SWIDTH 540 0
DWIDTH 12 0
BBX 10 17 1 0
BITMAP
0C00
0C00
0400
0000
0000
FFC0
00C0
0180
0300
0600
0600
0C00
1800
3000
2000
7FC0
FFC0
ENDCHAR
STARTCHAR 017D
ENCODING 381
SWIDTH 720 0
DWIDTH 16 0
BBX 14 23 1 0
BITMAP
0840
0CC0
0780
0000
0000
0000
FFFC
0008
0018
0030
0060
00C0
0080
0180
0300
0600
0C00
0800
1800
3000
6000
FFF8
FFFC
ENDCHAR
STARTCHAR 017E
ENCODING 382
SWIDTH 540 0
DWIDTH 12 0
BBX 10 17 1 1
BITMAP
3380
1F00
0400
0000
0000
FFC0
00C0
0180
0300
0600
0600
0C00
1800
3000
2000
7FC0
FFC0
ENDCHAR
STARTCHAR 017F
ENCODING 383
SWIDTH 315 0
DWIDTH 7 0
BBX 6 17 1 0
BITMAP
3C
70
60
C0
C0
C0
C0
C0
C0
C0
C0
C0
C0
C0
C0
C0
C0
ENDCHAR
STARTCHAR 018F
ENCODING 399
SWIDTH 855 0
DWIDTH 19 0
BBX 16 18 1 0
BITMAP
0380
1FF0
3838
200C
0006
0002
0003
0003
0001
FFFF
C001
4003
6003
6002
3006
380C
1E78
07F0
ENDCHAR
STARTCHAR 0192
ENCODING 402
SWIDTH 450 0
DWIDTH 10 0
BBX 10 22 0 -5
BITMAP
03C0
0700
0600
0C00
0C00
1F80
1FC0
0C00
0C00
0C00
0C00
0C00
0C00
0C00
0C00
0C00
0C00
0C00
0C00
0C00
7800
F000
ENDCHAR
STARTCHAR 01A0
ENCODING 416
SWIDTH 900 0
DWIDTH 20 0
BBX 18 19 1 0
BITMAP
000180
00C180
07FF80
1E0F00
380300
300180
600180
6000C0
4000C0
C000C0
C000C0
C000C0
4000C0
6000C0
600180
300380
180700
0F3E00
03F800
ENDCHAR
STARTCHAR 01A1
ENCODING 417
SWIDTH 675 0
DWIDTH 15 0
BBX 13 14 1 0
BITMAP
0018
0018
1FF0
38F0
6030
6030
C018
C018
C018
4018
6030
7070
3DE0
0F80
ENDCHAR
STARTCHAR 01AF
ENCODING 431
SWIDTH 810 0
DWIDTH 18 0
BBX 17 20 2 0
BITMAP
000100
000180
000100
C00F00
C00C00
C00C00
C00C00
C00C00
C00C00
C00C00
C00C00
C00C00
C00C00
C00C00
C00C00
C00C00
600C00
601800
387000
1FE000
ENDCHAR
STARTCHAR 01B0
ENCODING 432
SWIDTH 675 0
DWIDTH 15 0
BBX 14 15 2 0
BITMAP
0008
000C
000C
8078
8060
8060
8060
8060
8060
8060
C060
C060
E0E0
7BE0
3F60
ENDCHAR
STARTCHAR 01CE
ENCODING 462
SWIDTH 675 0
DWIDTH 15 0
BBX 13 17 1 1
BITMAP
18C0
0F80
0200
0000
0000
1FC0
38E0
6030
6030
C018
C018
C018
4018
6038
7078
3DD8
0F98
ENDCHAR
STARTCHAR 01D4
ENCODING 468
SWIDTH 675 0
DWIDTH 15 0
BBX 11 17 2 1
BITMAP
3180
1F00
0400
0000
0000
8060
8060
8060
8060
8060
8060
8060
C060
C060
E0E0
7BE0
3F60
ENDCHAR
STARTCHAR 01E6
ENCODING 486
SWIDTH 765 0
DWIDTH 17 0
BBX 15 23 1 0
BITMAP
0010
0730
01E0
0080
0000
00C0
07F8
1E0E
3804
3000
6000
6000
4000
C000
C07C
C07E
4006
6006
6006
3006
1806
0F3C
03F8
ENDCHAR
STARTCHAR 01E7
ENCODING 487
SWIDTH 675 0
DWIDTH 15 0
BBX 13 22 1 -4
BITMAP
18C0
0F80
0200
0000
0000
1FC0
38E0
6030
6030
C018
C018
C018
4018
6038
7038
3DD8
0F98
0010
6030
7060
3FC0
0F80
ENDCHAR
STARTCHAR 01EA
ENCODING 490
SWIDTH 900 0
DWIDTH 20 0
BBX 18 24 1 -6
BITMAP
00C000
07FC00
1E0E00
380300
300180
600180
6000C0
4000C0
C000C0
C000C0
C000C0
4000C0
6000C0
600180
300380
180700
0F3E00
03F800
00C000
01C000
018000
013000
01F000
00C000
ENDCHAR
STARTCHAR 01EB
ENCODING 491
SWIDTH 675 0
DWIDTH 15 0
BBX 13 17 1 -5
BITMAP
1FC0
38E0
6030
6030
C018
C018
C018
4018
6030
7070
3DE0
0F80
0180
0300
0320
03E0
01C0
ENDCHAR
STARTCHAR 01FA
ENCODING 506
SWIDTH 720 0
DWIDTH 16 0
BBX 15 28 0 0
BITMAP
0060
00E0
01C0
0180
0000
0180
0240
0240
02C0
0180
0000
0180
0380
03C0
02C0
0640
0660
0C20
0C30
0830
1818
1818
3FF8
3FFC
600C
6006
4006
C002
ENDCHAR
STARTCHAR 01FB
ENCODING 507
SWIDTH 675 0
DWIDTH 15 0
BBX 13 23 1 0
BITMAP
0080
01C0
0380
0300
0200
0200
0500
0880
0580
0700
0000
1FC0
38E0
6030
6030
C018
C018
C018
4018
6038
7078
3DD8
0F98
ENDCHAR
STARTCHAR 01FC
ENCODING 508
SWIDTH 945 0
DWIDTH 21 0
BBX 20 23 0 0
BITMAP
000300
000700
000E00
000C00
000000
000000
003FF0
007000
007000
00F000
01B000
01B000
033000
023F80
063FC0
0C3000
0C3000
1FF000
3FF000
303000
603000
603FF0
C03FF0
ENDCHAR
STARTCHAR 01FD
ENCODING 509
SWIDTH 1080 0
DWIDTH 24 0
BBX 22 18 1 0
BITMAP
000600
000C00
001800
003000
000000
000000
1FC3F0
38E638
603C0C
60380C
C01804
C01FFC
C01FFC
401800
603800
707C08
3DDF38
0F9BF0
ENDCHAR
STARTCHAR 01FE
ENCODING 510
SWIDTH 900 0
DWIDTH 20 0
BBX 18 23 1 0
BITMAP
003000
007000
00E000
00C000
000000
00C000
07FCC0
1E0F80
380300
300780
600D80
6018C0
4030C0
C060C0
C0C0C0
C180C0
4300C0
6600C0
6C0180
380380
380700
6F3E00
C3F800
ENDCHAR
STARTCHAR 01FF
ENCODING 511
SWIDTH 720 0
DWIDTH 16 0
BBX 13 18 1 0
BITMAP
00C0
01C0
0380
0300
0000
0000
0FC8
1CF0
3030
6058
6098
4118
4218
6418
6818
3030
7CE0
CFC0
ENDCHAR
STARTCHAR 0200
ENCODING 512
SWIDTH 720 0
DWIDTH 16 0
BBX 15 23 0 1
BITMAP
06C0
0640
0260
0220
0000
0000
0180
0380
03C0
02C0
0640
0660
0C20
0C30
0830
1818
1818
3FF8
3FFC
600C
6006
4006
C002
ENDCHAR
STARTCHAR 0201
ENCODING 513
SWIDTH 675 0
DWIDTH 15 0
BBX 13 18 1 0
BITMAP
0980
0D80
0C80
04C0
0000
0000
1FC0
38E0
6030
6030
C018
C018
C018
4018
6038
7078
3DD8
0F98
ENDCHAR
STARTCHAR 0202
ENCODING 514
SWIDTH 720 0
DWIDTH 16 0
BBX 15 23 0 0
BITMAP
0180
07E0
0C60
0420
0000
0000
0180
0380
03C0
02C0
0640
0660
0C20
0C30
0830
1818
1818
3FF8
3FFC
600C
6006
4006
C002
ENDCHAR
STARTCHAR 0203
ENCODING 515
SWIDTH 675 0
DWIDTH 15 0
BBX 13 17 1 0
BITMAP
0F80
18C0
18C0
0000
0000
1FC0
38E0
6030
6030
C018
C018
C018
4018
6038
7078
3DD8
0F98
ENDCHAR
STARTCHAR 0204
ENCODING 516
SWIDTH 675 0
DWIDTH 15 0
BBX 12 23 2 1
BITMAP
1980
0D80
0C80
0480
0000
0000
FFF0
C000
C000
C000
C000
C000
C000
FF80
FFC0
C000
C000
C000
C000
C000
C000
FFF0
FFF0
ENDCHAR
STARTCHAR 0205
ENCODING 517
SWIDTH 630 0
DWIDTH 14 0
BBX 12 18 1 0
BITMAP
1B00
1900
0980
0C80
0000
0000
1F80
38C0
6060
4020
C030
FFF0
FFE0
4000
6000
6000
3DE0
0F80
ENDCHAR
STARTCHAR 0206
ENCODING 518
SWIDTH 675 0
DWIDTH 15 0
BBX 12 23 2 0
BITMAP
0700
0F80
18C0
10C0
0000
0000
FFF0
C000
C000
C000
C000
C000
C000
FF80
FFC0
C000
C000
C000
C000
C000
C000
FFF0
FFF0
ENDCHAR
STARTCHAR 0207
ENCODING 519
SWIDTH 630 0
DWIDTH 14 0
BBX 12 17 1 0
BITMAP
1F80
1880
1080
0000
0000
1F80
38C0
6060
4020
C030
FFF0
FFE0
4000
6000
6000
3DE0
0F80
ENDCHAR
STARTCHAR 0208
ENCODING 520
SWIDTH 270 0
DWIDTH 6 0
BBX 6 23 0 1
BITMAP
D8
4C
6C
64
00
00
30
30
30
30
30
30
30
30
30
30
30
30
30
30
30
30
30
ENDCHAR
STARTCHAR 0209
ENCODING 521
SWIDTH 270 0
DWIDTH 6 0
BBX 6 18 0 0
BITMAP
C8
4C
6C
24
00
00
30
30
30
30
30
30
30
30
30
30
30
30
ENDCHAR
STARTCHAR 020A
ENCODING 522
SWIDTH 270 0
DWIDTH 6 0
BBX 6 23 0 0
BITMAP
30
FC
84
84
00
00
30
30
30
30
30
30
30
30
30
30
30
30
30
30
30
30
30
ENDCHAR
STARTCHAR 020B
ENCODING 523
SWIDTH 270 0
DWIDTH 6 0
BBX 6 17 0 0
BITMAP
7C
C4
C4
00
00
30
30
30
30
30
30
30
30
30
30
30
30
ENDCHAR
STARTCHAR 020C
ENCODING 524
SWIDTH 900 0
DWIDTH 20 0
BBX 18 24 1 0
BITMAP
002000
032000
013000
019000
009000
000000
00C000
07FC00
1E0E00
380300
300180
600180
6000C0
4000C0
C000C0
C000C0
C000C0
4000C0
6000C0
600180
300380
180700
0F3E00
03F800
ENDCHAR
STARTCHAR 020D
ENCODING 525
SWIDTH 675 0
DWIDTH 15 0
BBX 13 18 1 0
BITMAP
0980
0D80
0C80
04C0
0000
0000
1FC0
38E0
6030
6030
C018
C018
C018
4018
6030
7070
3DE0
0F80
ENDCHAR
STARTCHAR 020E
ENCODING 526
SWIDTH 900 0
DWIDTH 20 0
BBX 18 23 1 0
BITMAP
00C000
03F000
031800
021800
000000
00C000
07FC00
1E0E00
380300
300180
600180
6000C0
4000C0
C000C0
C000C0
C000C0
4000C0
6000C0
600180
300380
180700
0F3E00
03F800
ENDCHAR
STARTCHAR 020F
ENCODING 527
SWIDTH 675 0
DWIDTH 15 0
BBX 13 17 1 0
BITMAP
0F80
18C0
18C0
0000
0000
1FC0
38E0
6030
6030
C018
C018
C018
4018
6030
7070
3DE0
0F80
ENDCHAR
STARTCHAR 0210
ENCODING 528
SWIDTH 630 0
DWIDTH 14 0
BBX 11 23 2 1
BITMAP
3600
1300
1B00
0900
0000
0000
FF00
C1C0
C0C0
C060
C060
C060
C060
C0C0
C380
FF00
C300
C300
C180
C0C0
C0C0
C060
C020
ENDCHAR
STARTCHAR 0211
ENCODING 529
SWIDTH 450 0
DWIDTH 10 0
BBX 7 18 2 0
BITMAP
4C
6C
24
26
00
00
DE
F0
C0
C0
C0
C0
C0
C0
C0
C0
C0
C0
ENDCHAR
STARTCHAR 0212
ENCODING 530
SWIDTH 630 0
DWIDTH 14 0
BBX 11 23 2 0
BITMAP
0C00
3F00
2180
2100
0000
0000
FF00
C1C0
C0C0
C060
C060
C060
C060
C0C0
C380
FF00
C300
C300
C180
C0C0
C0C0
C060
C020
ENDCHAR
STARTCHAR 0213
ENCODING 531
SWIDTH 450 0
DWIDTH 10 0
BBX 7 17 2 0
BITMAP
7C
C6
C2
00
00
DE
F0
C0
C0
C0
C0
C0
C0
C0
C0
C0
C0
ENDCHAR
STARTCHAR 0214
ENCODING 532
SWIDTH 810 0
DWIDTH 18 0
BBX 14 23 2 1
BITMAP
0D80
04C0
06C0
0640
0000
0000
C00C
C00C
C00C
C00C
C00C
C00C
C00C
C00C
C00C
C00C
C00C
C00C
C00C
600C
6018
3870
1FE0
ENDCHAR
STARTCHAR 0215
ENCODING 533
SWIDTH 675 0
DWIDTH 15 0
BBX 11 18 2 0
BITMAP
1300
1B00
1900
0980
0000
0000
8060
8060
8060
8060
8060
8060
8060
C060
C060
E0E0
7BE0
3F60
ENDCHAR
STARTCHAR 0216
ENCODING 534
SWIDTH 810 0
DWIDTH 18 0
BBX 14 23 2 0
BITMAP
0300
0FC0
0840
0840
0000
0000
C00C
C00C
C00C
C00C
C00C
C00C
C00C
C00C
C00C
C00C
C00C
C00C
C00C
600C
6018
3870
1FE0
ENDCHAR
STARTCHAR 0217
ENCODING 535
SWIDTH 675 0
DWIDTH 15 0
BBX 11 17 2 0
BITMAP
1F00
3180
3180
0000
0000
8060
8060
8060
8060
8060
8060
8060
C060
C060
E0E0
7BE0
3F60
ENDCHAR
STARTCHAR 0218
ENCODING 536
SWIDTH 675 0
DWIDTH 15 0
BBX 12 23 1 -5
BITMAP
0200
1FC0
3060
6030
6000
6000
6000
3000
1F00
07E0
0070
0030
0010
0010
C030
6030
3CE0
1FC0
0000
0700
0080
0880
0F80
ENDCHAR
STARTCHAR 0219
ENCODING 537
SWIDTH 540 0
DWIDTH 12 0
BBX 10 17 1 -5
BITMAP
3F00
7180
60C0
6000
6000
3E00
0780
00C0
00C0
C0C0
7380
3F00
0000
0E00
0300
1100
1E00
ENDCHAR
STARTCHAR 021A
ENCODING 538
SWIDTH 675 0
DWIDTH 15 0
BBX 14 22 0 -5
BITMAP
FFFC
0300
0300
0300
0300
0300
0300
0300
0300
0300
0300
0300
0300
0300
0300
0300
0300
0000
0380
0040
0440
07C0
ENDCHAR
STARTCHAR 021B
ENCODING 539
SWIDTH 405 0
DWIDTH 9 0
BBX 7 21 1 -5
BITMAP
20
20
20
20
FC
FE
20
20
20
20
20
20
20
30
1E
0E
00
1C
06
66
3C
ENDCHAR
STARTCHAR 022A
ENCODING 554
SWIDTH 900 0
DWIDTH 20 0
BBX 18 26 1 0
BITMAP
03F800
03F800
000000
000000
031800
033800
000000
000000
00C000
07FC00
1E0E00
380300
300180
600180
6000C0
4000C0
C000C0
C000C0
C000C0
4000C0
6000C0
600180
300380
180700
0F3E00
03F800
ENDCHAR
STARTCHAR 022B
ENCODING 555
SWIDTH 675 0
DWIDTH 15 0
BBX 13 20 1 0
BITMAP
1FC0
0000
0000
18C0
18C0
0880
0000
0000
1FC0
38E0
6030
6030
C018
C018
C018
4018
6030
7070
3DE0
0F80
ENDCHAR
STARTCHAR 022C
ENCODING 556
SWIDTH 900 0
DWIDTH 20 0
BBX 18 25 1 0
BITMAP
03F800
03F800
000000
01C000
07FC00
063800
000000
00C000
07FC00
1E0E00
380300
300180
600180
6000C0
4000C0
C000C0
C000C0
C000C0
4000C0
6000C0
600180
300380
180700
0F3E00
03F800
ENDCHAR
STARTCHAR 022D
ENCODING 557
SWIDTH 675 0
DWIDTH 15 0
BBX 13 20 1 0
BITMAP
1FC0
1FC0
0000
0C00
1F60
31E0
0000
0000
1FC0
38E0
6030
6030
C018
C018
C018
4018
6030
7070
3DE0
0F80
ENDCHAR
STARTCHAR 0230
ENCODING 560
SWIDTH 900 0
DWIDTH 20 0
BBX 18 25 1 0
BITMAP
03F800
03F000
000000
00C000
00C000
000000
000000
00C000
07FC00
1E0E00
380300
300180
600180
6000C0
4000C0
C000C0
C000C0
C000C0
4000C0
6000C0
600180
300380
180700
0F3E00
03F800
ENDCHAR
STARTCHAR 0231
ENCODING 561
SWIDTH 675 0
DWIDTH 15 0
BBX 13 20 1 0
BITMAP
1FC0
1FC0
0000
0200
0700
0200
0000
0000
1FC0
38E0
6030
6030
C018
C018
C018
4018
6030
7070
3DE0
0F80
ENDCHAR
STARTCHAR 0232
ENCODING 562
SWIDTH 630 0
DWIDTH 14 0
BBX 14 21 0 0
BITMAP
1FE0
0000
0000
0000
C00C
600C
6018
3018
3030
1860
0C60
0CC0
0680
0380
0300
0300
0300
0300
0300
0300
0300
ENDCHAR
STARTCHAR 0233
ENCODING 563
SWIDTH 540 0
DWIDTH 12 0
BBX 12 21 0 -5
BITMAP
3FC0
0000
0000
0000
C030
6030
6060
2060
3040
10C0
1880
0980
0D00
0700
0700
0600
0600
0C00
0C00
0800
1800
ENDCHAR
STARTCHAR 0237
ENCODING 567
SWIDTH 270 0
DWIDTH 6 0
BBX 6 17 -2 -5
BITMAP
0C
0C
0C
0C
0C
0C
0C
0C
0C
0C
0C
0C
0C
0C
18
78
F0
ENDCHAR
STARTCHAR 0259
ENCODING 601
SWIDTH 630 0
DWIDTH 14 0
BBX 11 12 1 0
BITMAP
3F00
71C0
00C0
0060
0060
FFE0
FFE0
C060
C060
60C0
7BC0
1F00
ENDCHAR
STARTCHAR 02BB
ENCODING 699
SWIDTH 225 0
DWIDTH 5 0
BBX 3 6 1 12
BITMAP
20
60
40
E0
E0
40
ENDCHAR
STARTCHAR 02BC
ENCODING 700
SWIDTH 180 0
DWIDTH 4 0
BBX 2 5 -1 13
BITMAP
C0
C0
C0
C0
80
ENDCHAR
STARTCHAR 02C6
ENCODING 710
SWIDTH 405 0
DWIDTH 9 0
BBX 7 3 1 14
BITMAP
30
7C
CE
ENDCHAR
STARTCHAR 02C7
ENCODING 711
SWIDTH 405 0
DWIDTH 9 0
BBX 7 3 1 14
BITMAP
C6
EC
38
ENDCHAR
STARTCHAR 02C9
ENCODING 713
SWIDTH 405 0
DWIDTH 9 0
BBX 7 2 1 14
BITMAP
7C
FE
ENDCHAR
STARTCHAR 02D8
ENCODING 728
SWIDTH 405 0
DWIDTH 9 0
BBX 7 3 1 14
BITMAP
86
C6
7C
ENDCHAR
STARTCHAR 02D9
ENCODING 729
SWIDTH 180 0
DWIDTH 4 0
BBX 2 2 1 14
BITMAP
C0
C0
ENDCHAR
STARTCHAR 02DA
ENCODING 730
SWIDTH 270 0
DWIDTH 6 0
BBX 4 4 1 14
BITMAP
F0
90
90
60
ENDCHAR
STARTCHAR 02DB
ENCODING 731
SWIDTH 315 0
DWIDTH 7 0
BBX 5 6 1 -5
BITMAP
20
60
C0
C0
F8
70
ENDCHAR
STARTCHAR 02DC
ENCODING 732
SWIDTH 450 0
DWIDTH 10 0
BBX 9 3 1 14
BITMAP
3000
FD80
8F00
ENDCHAR
STARTCHAR 02DD
ENCODING 733
SWIDTH 360 0
DWIDTH 8 0
BBX 6 4 1 13
BITMAP
6C
CC
C8
98
ENDCHAR
STARTCHAR 0300
ENCODING 768
SWIDTH 0 0
DWIDTH 0 0
BBX 4 4 1 14
BITMAP
C0
60
30
10
ENDCHAR
STARTCHAR 0301
ENCODING 769
SWIDTH 0 0
DWIDTH 0 0
BBX 4 4 1 14
BITMAP
30
70
E0
C0
ENDCHAR
STARTCHAR 0302
ENCODING 770
SWIDTH 0 0
DWIDTH 0 0
BBX 7 3 1 14
BITMAP
38
EC
C6
ENDCHAR
STARTCHAR 0303
ENCODING 771
SWIDTH 0 0
DWIDTH 0 0
BBX 9 3 1 14
BITMAP
3000
FD80
8F00
ENDCHAR
STARTCHAR 0304
ENCODING 772
SWIDTH 0 0
DWIDTH 0 0
BBX 8 1 2 15
BITMAP
FF
ENDCHAR
STARTCHAR 0306
ENCODING 774
SWIDTH 0 0
DWIDTH 0 0
BBX 7 3 1 14
BITMAP
C6
EC
78
ENDCHAR
STARTCHAR 0307
ENCODING 775
SWIDTH 0 0
DWIDTH 0 0
BBX 2 3 2 14
BITMAP
C0
C0
40
ENDCHAR
STARTCHAR 0308
ENCODING 776
SWIDTH 0 0
DWIDTH 0 0
BBX 7 3 2 14
BITMAP
C6
C6
44
ENDCHAR
STARTCHAR 0309
ENCODING 777
SWIDTH 0 0
DWIDTH 0 0
BBX 5 6 1 13
BITMAP
F0
D8
18
38
60
20
ENDCHAR
STARTCHAR 030A
ENCODING 778
SWIDTH 0 0
DWIDTH 0 0
BBX 4 4 1 14
BITMAP
F0
90
90
60
ENDCHAR
STARTCHAR 030B
ENCODING 779
SWIDTH 0 0
DWIDTH 0 0
BBX 6 4 1 14
BITMAP
6C
CC
C8
98
ENDCHAR
STARTCHAR 030C
ENCODING 780
SWIDTH 0 0
DWIDTH 0 0
BBX 7 3 1 15
BITMAP
CE
7C
10
ENDCHAR
STARTCHAR 030F
ENCODING 783
SWIDTH 0 0
DWIDTH 0 0
BBX 6 4 1 14
BITMAP
98
D8
4C
4C
ENDCHAR
STARTCHAR 0311
ENCODING 785
SWIDTH 0 0
DWIDTH 0 0
BBX 7 3 1 14
BITMAP
7C
C6
C6
ENDCHAR
STARTCHAR 0312
ENCODING 786
SWIDTH 0 0
DWIDTH 0 0
BBX 3 6 1 14
BITMAP
60
40
C0
E0
E0
40
ENDCHAR
STARTCHAR 031B
ENCODING 795
SWIDTH 0 0
DWIDTH 0 0
BBX 4 4 0 11
BITMAP
20
30
20
E0
ENDCHAR
STARTCHAR 0323
ENCODING 803
SWIDTH 0 0
DWIDTH 0 0
BBX 3 3 1 -5
BITMAP
40
E0
40
ENDCHAR
STARTCHAR 0324
ENCODING 804
SWIDTH 0 0
DWIDTH 0 0
BBX 7 3 1 -5
BITMAP
C6
E6
40
ENDCHAR
STARTCHAR 0326
ENCODING 806
SWIDTH 0 0
DWIDTH 0 0
BBX 5 4 1 -5
BITMAP
78
08
88
F8
ENDCHAR
STARTCHAR 0327
ENCODING 807
SWIDTH 0 0
DWIDTH 0 0
BBX 5 6 1 -5
BITMAP
30
20
38
08
D8
F8
ENDCHAR
STARTCHAR 0328
ENCODING 808
SWIDTH 0 0
DWIDTH 0 0
BBX 5 6 1 -5
BITMAP
20
60
C0
C0
F8
70
ENDCHAR
STARTCHAR 032E
ENCODING 814
SWIDTH 0 0
DWIDTH 0 0
BBX 7 3 1 -5
BITMAP
86
C6
7C
ENDCHAR
STARTCHAR 0331
ENCODING 817
SWIDTH 0 0
DWIDTH 0 0
BBX 8 2 1 -4
BITMAP
FF
FE
ENDCHAR
STARTCHAR 0335
ENCODING 821
SWIDTH 0 0
DWIDTH 0 0
BBX 8 2 2 6
BITMAP
FF
FF
ENDCHAR
STARTCHAR 0336
ENCODING 822
SWIDTH 0 0
DWIDTH 0 0
BBX 18 2 1 6
BITMAP
FFFFC0
FFFFC0
ENDCHAR
STARTCHAR 0344
ENCODING 836
SWIDTH 0 0
DWIDTH 0 0
BBX 9 5 -4 14
BITMAP
0C00
0C00
D900
DB80
9900
ENDCHAR
STARTCHAR 0374
ENCODING 884
SWIDTH 270 0
DWIDTH 6 0
BBX 4 7 1 12
BITMAP
30
30
60
60
40
C0
C0
ENDCHAR
STARTCHAR 0375
ENCODING 885
SWIDTH 270 0
DWIDTH 6 0
BBX 4 6 1 -6
BITMAP
30
60
60
60
C0
C0
ENDCHAR
STARTCHAR 037E
ENCODING 894
SWIDTH 180 0
DWIDTH 4 0
BBX 3 16 1 -4
BITMAP
C0
C0
40
00
00
00
00
00
00
00
E0
E0
60
60
40
80
ENDCHAR
STARTCHAR 0384
ENCODING 900
SWIDTH 225 0
DWIDTH 5 0
BBX 3 5 1 14
BITMAP
20
60
60
C0
C0
ENDCHAR
STARTCHAR 0385
ENCODING 901
SWIDTH 585 0
DWIDTH 13 0
BBX 9 5 2 14
BITMAP
0C00
0C00
CD80
D980
4980
ENDCHAR
STARTCHAR 0386
ENCODING 902
SWIDTH 720 0
DWIDTH 16 0
BBX 15 17 0 0
BITMAP
1980
3380
33C0
62C0
0640
0660
0C20
0C30
0830
1818
1818
3FF8
3FFC
600C
6006
4006
C002
ENDCHAR
STARTCHAR 0387
ENCODING 903
SWIDTH 180 0
DWIDTH 4 0
BBX 2 2 1 10
BITMAP
C0
C0
ENDCHAR
STARTCHAR 0388
ENCODING 904
SWIDTH 675 0
DWIDTH 15 0
BBX 17 17 -3 0
BITMAP
67FF80
660000
C60000
C60000
060000
060000
060000
07FC00
07FE00
060000
060000
060000
060000
060000
060000
07FF80
07FF80
ENDCHAR
STARTCHAR 0389
ENCODING 905
SWIDTH 855 0
DWIDTH 19 0
BBX 20 17 -3 0
BITMAP
660030
660030
C60030
C60030
060030
060030
060030
07FFF0
07FFF0
060030
060030
060030
060030
060030
060030
060030
060020
ENDCHAR
STARTCHAR 038A
ENCODING 906
SWIDTH 270 0
DWIDTH 6 0
BBX 7 17 -3 0
BITMAP
66
66
C6
C6
06
06
06
06
06
06
06
06
06
06
06
06
06
ENDCHAR
STARTCHAR 038C
ENCODING 908
SWIDTH 900 0
DWIDTH 20 0
BBX 21 18 -2 0
BITMAP
001800
20FF80
63C1C0
670060
C60030
0C0030
0C0018
080018
180018
180018
180018
080018
0C0018
0C0030
060070
0300E0
01E7C0
007F00
ENDCHAR
STARTCHAR 038E
ENCODING 910
SWIDTH 630 0
DWIDTH 14 0
BBX 19 17 -5 0
BITMAP
260060
630060
6300C0
C180C0
018180
00C300
006300
006600
003400
001C00
001800
001800
001800
001800
001800
001800
001800
ENDCHAR
STARTCHAR 038F
ENCODING 911
SWIDTH 855 0
DWIDTH 19 0
BBX 20 18 -2 0
BITMAP
003800
21FF00
6383C0
6600E0
CC0060
0C0030
080030
180030
180030
180030
080030
0C0060
060060
0701C0
01C780
004600
0FC7E0
0FC7F0
ENDCHAR
STARTCHAR 0390
ENCODING 912
SWIDTH 360 0
DWIDTH 8 0
BBX 10 19 -2 0
BITMAP
0400
0C00
4C80
EDC0
4880
0000
0000
0800
0800
0800
0800
0800
0800
0800
0800
0C00
0C00
0780
0380
ENDCHAR
STARTCHAR 0391
ENCODING 913
SWIDTH 720 0
DWIDTH 16 0
BBX 15 17 0 0
BITMAP
0180
0380
03C0
02C0
0640
0660
0C20
0C30
0830
1818
1818
3FF8
3FFC
600C
6006
4006
C002
ENDCHAR
STARTCHAR 0392
ENCODING 914
SWIDTH 675 0
DWIDTH 15 0
BBX 12 17 2 0
BITMAP
FF80
C0C0
C060
C020
C020
C060
C0C0
FF80
FFE0
C030
C030
C030
C030
C030
C070
FFE0
FF80
ENDCHAR
STARTCHAR 0393
ENCODING 915
SWIDTH 585 0
DWIDTH 13 0
BBX 12 17 1 0
BITMAP
FFF0
C000
C000
C000
C000
C000
C000
C000
C000
C000
C000
C000
C000
C000
C000
C000
8000
ENDCHAR
STARTCHAR 0394
ENCODING 916
SWIDTH 720 0
DWIDTH 16 0
BBX 15 17 0 0
BITMAP
0180
0380
03C0
03C0
0640
0660
0C60
0C30
0830
1818
1818
3008
300C
600C
6006
7FFE
FFFE
ENDCHAR
STARTCHAR 0395
ENCODING 917
SWIDTH 675 0
DWIDTH 15 0
BBX 12 17 2 0
BITMAP
FFF0
C000
C000
C000
C000
C000
C000
FF80
FFC0
C000
C000
C000
C000
C000
C000
FFF0
FFF0
ENDCHAR
STARTCHAR 0396
ENCODING 918
SWIDTH 720 0
DWIDTH 16 0
BBX 14 17 1 0
BITMAP
FFFC
0008
0018
0030
0060
00C0
0080
0180
0300
0600
0C00
0800
1800
3000
6000
FFF8
FFFC
ENDCHAR
STARTCHAR 0397
ENCODING 919
SWIDTH 855 0
DWIDTH 19 0
BBX 15 17 2 0
BITMAP
C006
C006
C006
C006
C006
C006
C006
FFFE
FFFE
C006
C006
C006
C006
C006
C006
C006
C004
ENDCHAR
STARTCHAR 0398
ENCODING 920
SWIDTH 900 0
DWIDTH 20 0
BBX 18 18 1 0
BITMAP
00C000
07FC00
1E0E00
380300
300180
600180
6000C0
4000C0
C3F8C0
C7FCC0
C000C0
4000C0
6000C0
600180
300380
180700
0F3E00
03F800
ENDCHAR
STARTCHAR 0399
ENCODING 921
SWIDTH 270 0
DWIDTH 6 0
BBX 2 17 2 0
BITMAP
C0
C0
C0
C0
C0
C0
C0
C0
C0
C0
C0
C0
C0
C0
C0
C0
C0
ENDCHAR
STARTCHAR 039A
ENCODING 922
SWIDTH 675 0
DWIDTH 15 0
BBX 12 17 2 0
BITMAP
C030
C060
C0C0
C180
C300
C600
CC00
D800
FC00
E600
C700
C300
C180
C0C0
C0E0
C060
C020
ENDCHAR
STARTCHAR 039B
ENCODING 923
SWIDTH 675 0
DWIDTH 15 0
BBX 15 17 0 0
BITMAP
0180
0380
0380
06C0
06C0
0460
0C60
0C20
1830
1830
1018
3018
3008
600C
600C
4006
C006
ENDCHAR
STARTCHAR 039C
ENCODING 924
SWIDTH 990 0
DWIDTH 22 0
BBX 18 17 2 0
BITMAP
C000C0
E001C0
E001C0
F003C0
F002C0
D806C0
D804C0
CC0CC0
CC08C0
C618C0
C610C0
C330C0
C320C0
C1E0C0
C1C0C0
C0C0C0
C08080
ENDCHAR
STARTCHAR 039D
ENCODING 925
SWIDTH 810 0
DWIDTH 18 0
BBX 14 17 2 0
BITMAP
C00C
E00C
F00C
D00C
D80C
CC0C
C60C
C20C
C30C
C18C
C0CC
C06C
C06C
C03C
C01C
C00C
C00C
ENDCHAR
STARTCHAR 039E
ENCODING 926
SWIDTH 765 0
DWIDTH 17 0
BBX 15 17 1 0
BITMAP
FFFE
0000
0000
0000
0000
0000
0000
1FF0
3FF8
0000
0000
0000
0000
0000
0000
FFFE
FFFE
ENDCHAR
STARTCHAR 039F
ENCODING 927
SWIDTH 900 0
DWIDTH 20 0
BBX 18 18 1 0
BITMAP
00C000
07FC00
1E0E00
380300
300180
600180
6000C0
4000C0
C000C0
C000C0
C000C0
4000C0
6000C0
600180
300380
180700
0F3E00
03F800
ENDCHAR
STARTCHAR 03A0
ENCODING 928
SWIDTH 810 0
DWIDTH 18 0
BBX 14 17 2 0
BITMAP
FFFC
C00C
C00C
C00C
C00C
C00C
C00C
C00C
C00C
C00C
C00C
C00C
C00C
C00C
C00C
C00C
C00C
ENDCHAR
STARTCHAR 03A1
ENCODING 929
SWIDTH 630 0
DWIDTH 14 0
BBX 11 17 2 0
BITMAP
FF80
C1C0
C0C0
C060
C060
C060
C060
C060
C0C0
FF80
FF00
C000
C000
C000
C000
C000
C000
ENDCHAR
STARTCHAR 03A3
ENCODING 931
SWIDTH 720 0
DWIDTH 16 0
BBX 14 17 1 0
BITMAP
FFFC
6000
3000
3800
1800
0C00
0600
0300
0300
0600
0C00
0C00
1800
3000
6000
7FF8
FFFC
ENDCHAR
STARTCHAR 03A4
ENCODING 932
SWIDTH 675 0
DWIDTH 15 0
BBX 14 17 0 0
BITMAP
FFFC
0300
0300
0300
0300
0300
0300
0300
0300
0300
0300
0300
0300
0300
0300
0300
0300
ENDCHAR
STARTCHAR 03A5
ENCODING 933
SWIDTH 630 0
DWIDTH 14 0
BBX 14 17 0 0
BITMAP
C00C
600C
6018
3018
3030
1860
0C60
0CC0
0680
0380
0300
0300
0300
0300
0300
0300
0300
ENDCHAR
STARTCHAR 03A6
ENCODING 934
SWIDTH 900 0
DWIDTH 20 0
BBX 18 18 1 0
BITMAP
00C000
00C000
07FC00
1CCE00
30C300
60C180
60C0C0
C0C0C0
C0C0C0
C0C0C0
C0C0C0
40C0C0
60C080
70C180
38C700
0FFE00
03F000
00C000
ENDCHAR
STARTCHAR 03A7
ENCODING 935
SWIDTH 720 0
DWIDTH 16 0
BBX 14 17 1 0
BITMAP
C00C
6018
3030
3070
1860
0CC0
0780
0780
0700
0780
0CC0
18E0
1860
3030
6018
C018
C00C
ENDCHAR
STARTCHAR 03A8
ENCODING 936
SWIDTH 900 0
DWIDTH 20 0
BBX 16 17 2 0
BITMAP
C183
C183
C183
C183
C183
C183
C183
C183
6182
6186
399C
1FF8
0180
0180
0180
0180
0180
ENDCHAR
STARTCHAR 03A9
ENCODING 937
SWIDTH 855 0
DWIDTH 19 0
BBX 17 18 1 0
BITMAP
01C000
0FF800
1C1E00
300700
600300
600180
400180
C00180
C00180
C00180
400180
600300
300300
380E00
0E3C00
023000
7E3F00
7E3F80
ENDCHAR
STARTCHAR 03AA
ENCODING 938
SWIDTH 270 0
DWIDTH 6 0
BBX 7 22 0 0
BITMAP
CC
CE
00
00
00
30
30
30
30
30
30
30
30
30
30
30
30
30
30
30
30
30
ENDCHAR
STARTCHAR 03AB
ENCODING 939
SWIDTH 630 0
DWIDTH 14 0
BBX 14 22 0 0
BITMAP
0C60
0CE0
0000
0000
0000
C00C
600C
6018
3018
3030
1860
0C60
0CC0
0680
0380
0300
0300
0300
0300
0300
0300
0300
ENDCHAR
STARTCHAR 03AC
ENCODING 940
SWIDTH 765 0
DWIDTH 17 0
BBX 15 19 1 0
BITMAP
0180
0180
0300
0300
0200
0000
0000
1F84
38CC
606C
6038
C038
C018
C018
4038
602C
606C
39C4
0F86
ENDCHAR
STARTCHAR 03AD
ENCODING 941
SWIDTH 585 0
DWIDTH 13 0
BBX 10 19 2 0
BITMAP
0200
0600
0600
0C00
0C00
0000
0000
3F80
E1C0
C040
C000
C000
7F00
7E00
C000
8000
C040
E3C0
3F80
ENDCHAR
STARTCHAR 03AE
ENCODING 942
SWIDTH 675 0
DWIDTH 15 0
BBX 11 24 2 -5
BITMAP
0300
0300
0600
0600
0400
0000
0000
DF80
F1C0
E060
C060
C060
C020
C020
C020
C020
C020
C020
C020
0020
0020
0020
0020
0020
ENDCHAR
STARTCHAR 03AF
ENCODING 943
SWIDTH 360 0
DWIDTH 8 0
BBX 5 19 2 0
BITMAP
20
60
60
C0
C0
00
00
80
80
80
80
80
80
80
80
C0
C0
78
38
ENDCHAR
STARTCHAR 03B0
ENCODING 944
SWIDTH 675 0
DWIDTH 15 0
BBX 11 19 2 0
BITMAP
0600
0600
66C0
64C0
2440
0000
0000
C060
C060
C060
C060
C060
C060
C060
C060
C060
60C0
7BC0
1F00
ENDCHAR
STARTCHAR 03B1
ENCODING 945
SWIDTH 765 0
DWIDTH 17 0
BBX 15 12 1 0
BITMAP
1F84
38CC
606C
6038
C038
C018
C018
4038
602C
606C
39C4
0F86
ENDCHAR
STARTCHAR 03B2
ENCODING 946
SWIDTH 675 0
DWIDTH 15 0
BBX 12 22 2 -5
BITMAP
3F80
71C0
40C0
C040
C040
C040
C0C0
CF80
C1E0
C020
C030
C030
C030
C030
E060
FDC0
CF80
C000
C000
C000
C000
C000
ENDCHAR
STARTCHAR 03B3
ENCODING 947
SWIDTH 540 0
DWIDTH 12 0
BBX 11 17 0 -5
BITMAP
C020
4060
6060
2040
30C0
3080
1980
1980
0B00
0F00
0600
0600
0600
0600
0600
0600
0600
ENDCHAR
STARTCHAR 03B4
ENCODING 948
SWIDTH 675 0
DWIDTH 15 0
BBX 13 17 1 0
BITMAP
7FF0
3800
1C00
0E00
0700
0FC0
3DE0
7060
6030
4010
C018
C018
4010
6030
7060
3DE0
0F80
ENDCHAR
STARTCHAR 03B5
ENCODING 949
SWIDTH 585 0
DWIDTH 13 0
BBX 10 12 2 0
BITMAP
3F80
E1C0
C040
C000
C000
7F00
7E00
C000
8000
C040
E3C0
3F80
ENDCHAR
STARTCHAR 03B6
ENCODING 950
SWIDTH 540 0
DWIDTH 12 0
BBX 10 22 1 -5
BITMAP
FFC0
01C0
0300
0600
0C00
1800
3000
2000
6000
4000
C000
C000
C000
C000
6000
3C00
1F80
00C0
00C0
00C0
0180
0380
ENDCHAR
STARTCHAR 03B7
ENCODING 951
SWIDTH 675 0
DWIDTH 15 0
BBX 11 17 2 -5
BITMAP
DF80
F1C0
E060
C060
C060
C020
C020
C020
C020
C020
C020
C020
0020
0020
0020
0020
0020
ENDCHAR
STARTCHAR 03B8
ENCODING 952
SWIDTH 675 0
DWIDTH 15 0
BBX 13 17 1 0
BITMAP
1FC0
38E0
3060
6030
4030
4010
C018
C018
FFF8
C018
C010
4010
6030
6030
3060
1DC0
0F80
ENDCHAR
STARTCHAR 03B9
ENCODING 953
SWIDTH 360 0
DWIDTH 8 0
BBX 5 12 2 0
BITMAP
80
80
80
80
80
80
80
80
C0
C0
78
38
ENDCHAR
STARTCHAR 03BA
ENCODING 954
SWIDTH 585 0
DWIDTH 13 0
BBX 9 12 2 0
BITMAP
C180
C380
C600
CC00
D800
F800
EC00
CE00
C600
C300
C180
C080
ENDCHAR
STARTCHAR 03BB
ENCODING 955
SWIDTH 540 0
DWIDTH 12 0
BBX 11 17 0 0
BITMAP
1000
1800
1800
0C00
0C00
0600
0E00
0F00
1B00
1900
1180
3180
30C0
60C0
6060
C060
C020
ENDCHAR
STARTCHAR 03BC
ENCODING 956
SWIDTH 675 0
DWIDTH 15 0
BBX 11 17 2 -5
BITMAP
C060
C060
C060
C060
C060
C060
C060
C060
C060
E0E0
FBE0
DF60
C000
C000
C000
C000
C000
ENDCHAR
STARTCHAR 03BD
ENCODING 957
SWIDTH 540 0
DWIDTH 12 0
BBX 11 12 0 0
BITMAP
C020
4060
6060
2040
30C0
3080
1980
1980
0B00
0F00
0600
0600
ENDCHAR
STARTCHAR 03BE
ENCODING 958
SWIDTH 585 0
DWIDTH 13 0
BBX 11 22 1 -5
BITMAP
FFE0
0F00
3000
2000
6000
6000
2000
3800
0F80
3800
6000
6000
4000
6000
6000
3E00
1FC0
0060
0060
0060
00C0
0380
ENDCHAR
STARTCHAR 03BF
ENCODING 959
SWIDTH 675 0
DWIDTH 15 0
BBX 13 12 1 0
BITMAP
1FC0
38E0
6030
6030
C018
C018
C018
4018
6030
7070
3DE0
0F80
ENDCHAR
STARTCHAR 03C0
ENCODING 960
SWIDTH 765 0
DWIDTH 17 0
BBX 15 12 1 0
BITMAP
FFFE
1830
1830
1830
1830
1830
1830
1830
1830
1830
181E
180E
ENDCHAR
STARTCHAR 03C1
ENCODING 961
SWIDTH 720 0
DWIDTH 16 0
BBX 12 17 2 -5
BITMAP
1F80
38E0
6060
C030
C030
C010
C010
C030
C030
E060
F9C0
CF80
C000
C000
C000
C000
C000
ENDCHAR
STARTCHAR 03C2
ENCODING 962
SWIDTH 585 0
DWIDTH 13 0
BBX 11 17 1 -5
BITMAP
1F80
38C0
6060
6000
C000
C000
C000
C000
6000
6000
3C00
0F80
00C0
0040
00C0
01C0
0380
ENDCHAR
STARTCHAR 03C3
ENCODING 963
SWIDTH 765 0
DWIDTH 17 0
BBX 15 12 1 0
BITMAP
0FFE
3DE0
7030
6030
C018
C018
C018
4018
6030
7070
3DE0
0F80
ENDCHAR
STARTCHAR 03C4
ENCODING 964
SWIDTH 540 0
DWIDTH 12 0
BBX 11 12 0 0
BITMAP
FFE0
0400
0400
0400
0400
0400
0400
0400
0600
0600
03C0
01C0
ENDCHAR
STARTCHAR 03C5
ENCODING 965
SWIDTH 675 0
DWIDTH 15 0
BBX 11 12 2 0
BITMAP
C060
C060
C060
C060
C060
C060
C060
C060
C060
60C0
7BC0
1F00
ENDCHAR
STARTCHAR 03C6
ENCODING 966
SWIDTH 810 0
DWIDTH 18 0
BBX 15 21 1 -5
BITMAP
0180
0180
0180
0180
0FF0
399C
618E
6186
C182
C182
C182
4182
6186
718C
3DBC
0FF0
0180
0180
0180
0180
0180
ENDCHAR
STARTCHAR 03C7
ENCODING 967
SWIDTH 540 0
DWIDTH 12 0
BBX 10 17 1 -5
BITMAP
C040
C0C0
6180
6180
3300
3300
1E00
1E00
0C00
0E00
1E00
3300
3300
6180
60C0
C0C0
C040
ENDCHAR
STARTCHAR 03C8
ENCODING 968
SWIDTH 810 0
DWIDTH 18 0
BBX 14 21 2 -5
BITMAP
0300
0300
0300
0300
C30C
C30C
C30C
C30C
C30C
C30C
C30C
C30C
C318
6318
3FF0
1FE0
0300
0300
0300
0300
0300
ENDCHAR
STARTCHAR 03C9
ENCODING 969
SWIDTH 900 0
DWIDTH 20 0
BBX 16 12 2 0
BITMAP
300C
6006
C006
C183
C183
8181
8181
8181
8181
C183
67E6
3E7C
ENDCHAR
STARTCHAR 03CA
ENCODING 970
SWIDTH 360 0
DWIDTH 8 0
BBX 8 17 -1 0
BITMAP
46
E6
46
00
00
10
10
10
10
10
10
10
10
18
18
0F
07
ENDCHAR
STARTCHAR 03CB
ENCODING 971
SWIDTH 675 0
DWIDTH 15 0
BBX 11 17 2 0
BITMAP
3180
3380
3100
0000
0000
C060
C060
C060
C060
C060
C060
C060
C060
C060
60C0
7BC0
1F00
ENDCHAR
STARTCHAR 03CC
ENCODING 972
SWIDTH 675 0
DWIDTH 15 0
BBX 13 19 1 0
BITMAP
0180
0180
0300
0300
0200
0000
0000
1FC0
38E0
6030
6030
C018
C018
C018
4018
6030
7070
3DE0
0F80
ENDCHAR
STARTCHAR 03CD
ENCODING 973
SWIDTH 675 0
DWIDTH 15 0
BBX 11 19 2 0
BITMAP
0300
0300
0600
0600
0400
0000
0000
C060
C060
C060
C060
C060
C060
C060
C060
C060
60C0
7BC0
1F00
ENDCHAR
STARTCHAR 03CE
ENCODING 974
SWIDTH 900 0
DWIDTH 20 0
BBX 16 19 2 0
BITMAP
0040
00C0
00C0
0180
0080
0000
0000
300C
6006
C006
C183
C183
8181
8181
8181
8181
C183
67E6
3E7C
ENDCHAR
STARTCHAR 03CF
ENCODING 975
SWIDTH 675 0
DWIDTH 15 0
BBX 12 21 2 -4
BITMAP
C030
C060
C0C0
C180
C300
C600
CC00
D800
FC00
E600
C700
C300
C180
C0C0
C060
C070
C070
00E0
01C0
0380
1E00
ENDCHAR
STARTCHAR 03D7
ENCODING 983
SWIDTH 630 0
DWIDTH 14 0
BBX 11 17 2 -5
BITMAP
C180
C380
C600
CC00
D800
F800
EC00
C600
C700
C380
C180
C0C0
0040
0060
0040
03C0
0780
ENDCHAR
STARTCHAR 0400
ENCODING 1024
SWIDTH 675 0
DWIDTH 15 0
BBX 12 23 2 1
BITMAP
1800
0C00
0600
0200
0000
0000
FFF0
C000
C000
C000
C000
C000
C000
FF80
FFC0
C000
C000
C000
C000
C000
C000
FFF0
FFF0
ENDCHAR
STARTCHAR 0401
ENCODING 1025
SWIDTH 675 0
DWIDTH 15 0
BBX 12 22 2 0
BITMAP
18C0
18C0
0000
0000
0000
FFF0
C000
C000
C000
C000
C000
C000
FF80
FFC0
C000
C000
C000
C000
C000
C000
FFF0
FFF0
ENDCHAR
STARTCHAR 0402
ENCODING 1026
SWIDTH 765 0
DWIDTH 17 0
BBX 16 17 0 0
BITMAP
FFF8
0400
0400
0400
0400
05F8
078E
0606
0403
0403
0403
0403
0403
0403
0406
041C
0478
ENDCHAR
STARTCHAR 0403
ENCODING 1027
SWIDTH 630 0
DWIDTH 14 0
BBX 11 23 2 0
BITMAP
0180
0300
0600
0400
0000
0000
FFE0
C000
C000
C000
C000
C000
C000
C000
C000
C000
C000
C000
C000
C000
C000
C000
C000
ENDCHAR
STARTCHAR 0404
ENCODING 1028
SWIDTH 765 0
DWIDTH 17 0
BBX 15 18 1 0
BITMAP
00C0
07F8
1E0E
3804
3000
6000
6000
4000
FFC0
FFE0
C000
4000
6000
6000
3000
1806
0F3C
03F8
ENDCHAR
STARTCHAR 0405
ENCODING 1029
SWIDTH 675 0
DWIDTH 15 0
BBX 12 18 1 0
BITMAP
0200
1FC0
3060
6030
6000
6000
6000
3000
1F00
07E0
0070
0030
0010
0010
C030
6030
3CE0
1FC0
ENDCHAR
STARTCHAR 0406
ENCODING 1030
SWIDTH 270 0
DWIDTH 6 0
BBX 2 17 2 0
BITMAP
C0
C0
C0
C0
C0
C0
C0
C0
C0
C0
C0
C0
C0
C0
C0
C0
C0
ENDCHAR
STARTCHAR 0407
ENCODING 1031
SWIDTH 270 0
DWIDTH 6 0
BBX 7 22 0 0
BITMAP
CC
CE
00
00
00
30
30
30
30
30
30
30
30
30
30
30
30
30
30
30
30
30
ENDCHAR
STARTCHAR 0408
ENCODING 1032
SWIDTH 630 0
DWIDTH 14 0
BBX 10 17 1 0
BITMAP
0040
0040
0040
0040
0040
0040
0040
0040
0040
0040
0040
C040
C040
C0C0
60C0
7380
3F00
ENDCHAR
STARTCHAR 0409
ENCODING 1033
SWIDTH 1035 0
DWIDTH 23 0
BBX 22 17 0 0
BITMAP
018000
018000
03C000
02C000
064000
066000
0C2000
0C3FF0
083038
181818
18180C
30080C
300C0C
600C08
600618
4007F0
C003E0
ENDCHAR
STARTCHAR 040A
ENCODING 1034
SWIDTH 1170 0
DWIDTH 26 0
BBX 23 17 2 0
BITMAP
C00C00
C00C00
C00C00
C00C00
C00C00
C00C00
C00C00
FFFFF8
FFFC1C
C00C04
C00C06
C00C06
C00C06
C00C06
C00C0C
C00FF8
C00FF0
ENDCHAR
STARTCHAR 040B
ENCODING 1035
SWIDTH 855 0
DWIDTH 19 0
BBX 18 17 0 0
BITMAP
FFFC00
060000
060000
060000
060000
060000
06FE00
078700
060180
060180
060080
060080
0600C0
0600C0
0600C0
0600C0
060080
ENDCHAR
STARTCHAR 040C
ENCODING 1036
SWIDTH 675 0
DWIDTH 15 0
BBX 12 23 2 0
BITMAP
0180
0300
0600
0400
0000
0000
C030
C060
C0E0
C0C0
C180
C300
C600
FC00
FC00
C600
C300
C180
C0C0
C0E0
C060
C030
C010
ENDCHAR
STARTCHAR 040D
ENCODING 1037
SWIDTH 855 0
DWIDTH 19 0
BBX 15 23 2 1
BITMAP
0C00
0600
0300
0100
0000
0000
C006
C00E
C01E
C036
C066
C066
C0C6
C186
C306
C206
C606
CC06
D806
F006
E006
E006
C004
ENDCHAR
STARTCHAR 040E
ENCODING 1038
SWIDTH 720 0
DWIDTH 16 0
BBX 15 23 0 0
BITMAP
0820
0C30
0E60
07C0
0000
0000
C006
C00C
600C
2018
3018
1830
1830
0C20
0460
0640
02C0
0380
0180
0180
0300
3E00
3C00
ENDCHAR
STARTCHAR 040F
ENCODING 1039
SWIDTH 810 0
DWIDTH 18 0
BBX 14 21 2 -4
BITMAP
C00C
C00C
C00C
C00C
C00C
C00C
C00C
C00C
C00C
C00C
C00C
C00C
C00C
C00C
C00C
FFFC
FFFC
0300
0300
0300
0300
ENDCHAR
STARTCHAR 0410
ENCODING 1040
SWIDTH 720 0
DWIDTH 16 0
BBX 15 17 0 0
BITMAP
0180
0380
03C0
02C0
0640
0660
0C20
0C30
0830
1818
1818
3FF8
3FFC
600C
6006
4006
C002
ENDCHAR
STARTCHAR 0411
ENCODING 1041
SWIDTH 720 0
DWIDTH 16 0
BBX 13 17 2 0
BITMAP
FFE0
C000
C000
C000
C000
C000
C000
FFC0
C070
C030
C018
C018
C018
C018
C030
FFE0
FFC0
ENDCHAR
STARTCHAR 0412
ENCODING 1042
SWIDTH 675 0
DWIDTH 15 0
BBX 12 17 2 0
BITMAP
FF80
C0C0
C060
C020
C020
C060
C0C0
FF80
FFE0
C030
C030
C030
C030
C030
C070
FFE0
FF80
ENDCHAR
STARTCHAR 0413
ENCODING 1043
SWIDTH 630 0
DWIDTH 14 0
BBX 11 17 2 0
BITMAP
FFE0
C000
C000
C000
C000
C000
C000
C000
C000
C000
C000
C000
C000
C000
C000
C000
C000
ENDCHAR
STARTCHAR 0414
ENCODING 1044
SWIDTH 855 0
DWIDTH 19 0
BBX 17 21 1 -4
BITMAP
018000
01C000
03C000
034000
026000
062000
063000
0C3000
0C1000
081800
180800
180C00
300C00
300600
200600
FFFF80
FFFF80
800180
800180
800180
800180
ENDCHAR
STARTCHAR 0415
ENCODING 1045
SWIDTH 675 0
DWIDTH 15 0
BBX 12 17 2 0
BITMAP
FFF0
C000
C000
C000
C000
C000
C000
FF80
FFC0
C000
C000
C000
C000
C000
C000
FFF0
FFF0
ENDCHAR
STARTCHAR 0416
ENCODING 1046
SWIDTH 1035 0
DWIDTH 23 0
BBX 21 17 1 0
BITMAP
C06018
606030
306060
3060C0
1860C0
0C6180
046300
07FE00
07FE00
066300
0C6180
1860C0
3060C0
306060
606030
C06018
802008
ENDCHAR
STARTCHAR 0417
ENCODING 1047
SWIDTH 630 0
DWIDTH 14 0
BBX 12 18 1 0
BITMAP
0600
3F80
70C0
4060
0060
0060
0060
00C0
0F80
07C0
0060
0030
0030
0030
0030
C060
79C0
3F80
ENDCHAR
STARTCHAR 0418
ENCODING 1048
SWIDTH 855 0
DWIDTH 19 0
BBX 15 17 2 0
BITMAP
C006
C00E
C01E
C036
C066
C066
C0C6
C186
C306
C206
C606
CC06
D806
F006
E006
E006
C004
ENDCHAR
STARTCHAR 0419
ENCODING 1049
SWIDTH 855 0
DWIDTH 19 0
BBX 15 23 2 0
BITMAP
0820
0820
0C60
07C0
0000
0000
C006
C00E
C01E
C036
C066
C066
C0C6
C186
C306
C206
C606
CC06
D806
F006
E006
E006
C004
ENDCHAR
STARTCHAR 041A
ENCODING 1050
SWIDTH 675 0
DWIDTH 15 0
BBX 12 17 2 0
BITMAP
C030
C060
C0E0
C0C0
C180
C300
C600
FC00
FC00
C600
C300
C180
C0C0
C0E0
C060
C030
C010
ENDCHAR
STARTCHAR 041B
ENCODING 1051
SWIDTH 720 0
DWIDTH 16 0
BBX 15 17 0 0
BITMAP
0180
0180
03C0
02C0
0640
0660
0C20
0C30
0830
1818
1818
3008
300C
600C
6006
4006
C002
ENDCHAR
STARTCHAR 041C
ENCODING 1052
SWIDTH 990 0
DWIDTH 22 0
BBX 18 17 2 0
BITMAP
C000C0
E001C0
E001C0
F003C0
F002C0
D806C0
D804C0
CC0CC0
CC08C0
C618C0
C610C0
C330C0
C320C0
C1E0C0
C1C0C0
C0C0C0
C08080
ENDCHAR
STARTCHAR 041D
ENCODING 1053
SWIDTH 855 0
DWIDTH 19 0
BBX 15 17 2 0
BITMAP
C006
C006
C006
C006
C006
C006
C006
FFFE
FFFE
C006
C006
C006
C006
C006
C006
C006
C004
ENDCHAR
STARTCHAR 041E
ENCODING 1054
SWIDTH 900 0
DWIDTH 20 0
BBX 18 18 1 0
BITMAP
00C000
07FC00
1E0E00
380300
300180
600180
6000C0
4000C0
C000C0
C000C0
C000C0
4000C0
6000C0
600180
300380
180700
0F3E00
03F800
ENDCHAR
STARTCHAR 041F
ENCODING 1055
SWIDTH 810 0
DWIDTH 18 0
BBX 14 17 2 0
BITMAP
FFFC
C00C
C00C
C00C
C00C
C00C
C00C
C00C
C00C
C00C
C00C
C00C
C00C
C00C
C00C
C00C
C00C
ENDCHAR
STARTCHAR 0420
ENCODING 1056
SWIDTH 630 0
DWIDTH 14 0
BBX 11 17 2 0
BITMAP
FF80
C1C0
C0C0
C060
C060
C060
C060
C060
C0C0
FF80
FF00
C000
C000
C000
C000
C000
C000
ENDCHAR
STARTCHAR 0421
ENCODING 1057
SWIDTH 765 0
DWIDTH 17 0
BBX 15 18 1 0
BITMAP
00C0
07F8
1E0E
3804
3000
6000
6000
4000
C000
C000
C000
4000
6000
6000
3000
1806
0F3C
03F8
ENDCHAR
STARTCHAR 0422
ENCODING 1058
SWIDTH 675 0
DWIDTH 15 0
BBX 14 17 0 0
BITMAP
FFFC
0300
0300
0300
0300
0300
0300
0300
0300
0300
0300
0300
0300
0300
0300
0300
0300
ENDCHAR
STARTCHAR 0423
ENCODING 1059
SWIDTH 720 0
DWIDTH 16 0
BBX 15 17 0 0
BITMAP
C006
C00C
600C
2018
3018
1830
1830
0C20
0460
0640
02C0
0380
0180
0180
0300
3E00
3C00
ENDCHAR
STARTCHAR 0424
ENCODING 1060
SWIDTH 855 0
DWIDTH 19 0
BBX 17 17 1 0
BITMAP
008000
008000
0FF800
1C9E00
308600
608300
408180
C08180
C08180
C08180
608100
608300
308600
1EBC00
07F000
008000
008000
ENDCHAR
STARTCHAR 0425
ENCODING 1061
SWIDTH 720 0
DWIDTH 16 0
BBX 14 17 1 0
BITMAP
C00C
6018
3030
3070
1860
0CC0
0780
0780
0700
0780
0CC0
18E0
1860
3030
6018
C018
C00C
ENDCHAR
STARTCHAR 0426
ENCODING 1062
SWIDTH 855 0
DWIDTH 19 0
BBX 16 21 2 -4
BITMAP
C00C
C00C
C00C
C00C
C00C
C00C
C00C
C00C
C00C
C00C
C00C
C00C
C00C
C00C
C00C
FFFF
FFFF
0003
0003
0003
0003
ENDCHAR
STARTCHAR 0427
ENCODING 1063
SWIDTH 765 0
DWIDTH 17 0
BBX 13 17 2 0
BITMAP
8018
8018
8018
8018
8018
C018
C018
C018
6038
3FF8
1F98
0018
0018
0018
0018
0018
0018
ENDCHAR
STARTCHAR 0428
ENCODING 1064
SWIDTH 1080 0
DWIDTH 24 0
BBX 20 17 2 0
BITMAP
C06030
C06030
C06030
C06030
C06030
C06030
C06030
C06030
C06030
C06030
C06030
C06030
C06030
C06030
C06030
FFFFF0
FFFFE0
ENDCHAR
STARTCHAR 0429
ENCODING 1065
SWIDTH 1125 0
DWIDTH 25 0
BBX 22 21 2 -4
BITMAP
C06030
C06030
C06030
C06030
C06030
C06030
C06030
C06030
C06030
C06030
C06030
C06030
C06030
C06030
C06030
FFFFF8
FFFFFC
00000C
00000C
00000C
00000C
ENDCHAR
STARTCHAR 042A
ENCODING 1066
SWIDTH 855 0
DWIDTH 19 0
BBX 18 17 0 0
BITMAP
FE0000
020000
020000
020000
020000
020000
020000
03FE00
020380
020180
0200C0
0200C0
0200C0
020080
020180
03FF00
03FE00
ENDCHAR
STARTCHAR 042B
ENCODING 1067
SWIDTH 900 0
DWIDTH 20 0
BBX 16 17 2 0
BITMAP
C001
C003
C003
C003
C003
C003
C003
FF83
C0C3
C063
C023
C033
C033
C063
C063
FFC3
FF81
ENDCHAR
STARTCHAR 042C
ENCODING 1068
SWIDTH 675 0
DWIDTH 15 0
BBX 12 17 2 0
BITMAP
C000
C000
C000
C000
C000
C000
C000
FFC0
C060
C030
C030
C010
C010
C030
C070
FFE0
FF80
ENDCHAR
STARTCHAR 042D
ENCODING 1069
SWIDTH 765 0
DWIDTH 17 0
BBX 15 18 1 0
BITMAP
0600
3FC0
70F0
4038
0018
000C
0004
0006
07FE
0FFE
0006
0004
000C
000C
0018
C030
79E0
3FC0
ENDCHAR
STARTCHAR 042E
ENCODING 1070
SWIDTH 1170 0
DWIDTH 26 0
BBX 23 18 2 0
BITMAP
000600
C03FC0
C0F0F0
C1C038
C18018
C3000C
C30004
C20006
FE0006
FE0006
C20006
C20004
C3000C
C3000C
C18018
C0C030
C079E0
C03FC0
ENDCHAR
STARTCHAR 042F
ENCODING 1071
SWIDTH 675 0
DWIDTH 15 0
BBX 11 17 2 0
BITMAP
3FE0
7020
C020
C020
8020
8020
C020
C020
7020
1FE0
1820
1820
3020
6020
6020
C020
8020
ENDCHAR
STARTCHAR 0430
ENCODING 1072
SWIDTH 675 0
DWIDTH 15 0
BBX 13 12 1 0
BITMAP
1FC0
38E0
6030
6030
C018
C018
C018
4018
6038
7078
3DD8
0F98
ENDCHAR
STARTCHAR 0431
ENCODING 1073
SWIDTH 675 0
DWIDTH 15 0
BBX 12 18 1 0
BITMAP
0060
03C0
0F00
1C00
3000
2000
6000
5FC0
70E0
E030
C030
C010
C010
4010
6030
6060
3DE0
0F80
ENDCHAR
STARTCHAR 0432
ENCODING 1074
SWIDTH 585 0
DWIDTH 13 0
BBX 10 12 2 0
BITMAP
FF80
C180
C0C0
C0C0
C080
FF00
C1C0
C0C0
C040
C0C0
FFC0
FF80
ENDCHAR
STARTCHAR 0433
ENCODING 1075
SWIDTH 495 0
DWIDTH 11 0
BBX 9 12 1 0
BITMAP
3F00
6380
C180
0180
0180
0F00
7800
C000
C000
C080
7380
3F00
ENDCHAR
STARTCHAR 0434
ENCODING 1076
SWIDTH 675 0
DWIDTH 15 0
BBX 13 17 1 -5
BITMAP
1FC0
38E0
6030
6030
C018
C018
C018
4018
6038
7038
3DD8
0F98
0010
6030
7060
3FC0
0F80
ENDCHAR
STARTCHAR 0435
ENCODING 1077
SWIDTH 630 0
DWIDTH 14 0
BBX 12 12 1 0
BITMAP
1F80
38C0
6060
4020
C030
FFF0
FFE0
4000
6000
6000
3DE0
0F80
ENDCHAR
STARTCHAR 0436
ENCODING 1078
SWIDTH 765 0
DWIDTH 17 0
BBX 16 12 1 0
BITMAP
C182
4186
618C
318C
1198
1FF0
1FF0
3198
318C
6186
C186
8183
ENDCHAR
STARTCHAR 0437
ENCODING 1079
SWIDTH 495 0
DWIDTH 11 0
BBX 9 12 1 0
BITMAP
3F00
6380
C180
0180
0180
1E00
0380
0080
0080
C080
F380
3F00
ENDCHAR
STARTCHAR 0438
ENCODING 1080
SWIDTH 675 0
DWIDTH 15 0
BBX 11 12 2 0
BITMAP
8060
8060
8060
8060
8060
8060
8060
C060
C060
E0E0
7BE0
3F60
ENDCHAR
STARTCHAR 0439
ENCODING 1081
SWIDTH 675 0
DWIDTH 15 0
BBX 11 17 2 0
BITMAP
2080
3180
1F00
0000
0000
8060
8060
8060
8060
8060
8060
8060
C060
C060
E0E0
7BE0
3F60
ENDCHAR
STARTCHAR 043A
ENCODING 1082
SWIDTH 540 0
DWIDTH 12 0
BBX 10 12 2 0
BITMAP
C080
C180
C300
C600
CC00
F800
FC00
CE00
C600
C300
C180
C0C0
ENDCHAR
STARTCHAR 043B
ENCODING 1083
SWIDTH 585 0
DWIDTH 13 0
BBX 11 12 1 0
BITMAP
0400
0E00
0E00
1B00
1900
3180
3180
60C0
60C0
C060
C060
8020
ENDCHAR
STARTCHAR 043C
ENCODING 1084
SWIDTH 765 0
DWIDTH 17 0
BBX 13 12 2 0
BITMAP
C008
E018
E038
F068
D868
C8C8
CD88
C708
C308
C008
C008
C008
ENDCHAR
STARTCHAR 043D
ENCODING 1085
SWIDTH 675 0
DWIDTH 15 0
BBX 11 12 2 0
BITMAP
C020
C020
C020
C020
C020
FFE0
FFE0
C020
C020
C020
C020
C020
ENDCHAR
STARTCHAR 043E
ENCODING 1086
SWIDTH 675 0
DWIDTH 15 0
BBX 13 12 1 0
BITMAP
1FC0
38E0
6030
6030
C018
C018
C018
4018
6030
7070
3DE0
0F80
ENDCHAR
STARTCHAR 043F
ENCODING 1087
SWIDTH 675 0
DWIDTH 15 0
BBX 11 12 2 0
BITMAP
DF80
F1C0
E060
C060
C060
C020
C020
C020
C020
C020
C020
C020
ENDCHAR
STARTCHAR 0440
ENCODING 1088
SWIDTH 720 0
DWIDTH 16 0
BBX 12 17 2 -5
BITMAP
1F80
38E0
6060
C030
C030
C010
C010
C030
C030
E060
F9C0
CF80
C000
C000
C000
C000
C000
ENDCHAR
STARTCHAR 0441
ENCODING 1089
SWIDTH 585 0
DWIDTH 13 0
BBX 11 12 1 0
BITMAP
1F80
38C0
6060
6000
C000
C000
C000
4000
6000
6040
3DE0
0F80
ENDCHAR
STARTCHAR 0442
ENCODING 1090
SWIDTH 945 0
DWIDTH 21 0
BBX 17 12 2 0
BITMAP
FF3E00
F3F300
C1C180
C0C180
C0C080
C0C080
C0C080
C0C080
C0C080
C0C080
C0C080
C08080
ENDCHAR
STARTCHAR 0443
ENCODING 1091
SWIDTH 540 0
DWIDTH 12 0
BBX 12 17 0 -5
BITMAP
C030
6020
6060
2060
30C0
10C0
1980
0980
0D00
0700
0600
0600
0600
0C00
0C00
9800
F000
ENDCHAR
STARTCHAR 0444
ENCODING 1092
SWIDTH 765 0
DWIDTH 17 0
BBX 14 22 1 -5
BITMAP
0100
0300
0300
0300
0300
1FE0
3B38
6318
630C
C304
C304
C304
430C
630C
7318
3F78
0FE0
0300
0300
0300
0300
0100
ENDCHAR
STARTCHAR 0445
ENCODING 1093
SWIDTH 540 0
DWIDTH 12 0
BBX 10 12 1 0
BITMAP
C0C0
60C0
6180
3300
1E00
0C00
1E00
1E00
3300
6180
C0C0
8040
ENDCHAR
STARTCHAR 0446
ENCODING 1094
SWIDTH 720 0
DWIDTH 16 0
BBX 13 16 2 -4
BITMAP
8060
8060
8060
8060
8060
8060
8060
C060
C060
60E0
7BE0
1F38
0008
0008
0008
0008
ENDCHAR
STARTCHAR 0447
ENCODING 1095
SWIDTH 585 0
DWIDTH 13 0
BBX 10 12 1 0
BITMAP
C0C0
C0C0
C0C0
C0C0
C0C0
C0C0
73C0
3FC0
00C0
00C0
00C0
00C0
ENDCHAR
STARTCHAR 0448
ENCODING 1096
SWIDTH 945 0
DWIDTH 21 0
BBX 17 12 2 0
BITMAP
808180
808180
808180
808180
808180
808180
808180
808180
C18180
C1C180
767F80
3C3D80
ENDCHAR
STARTCHAR 0449
ENCODING 1097
SWIDTH 990 0
DWIDTH 22 0
BBX 19 16 2 -4
BITMAP
808180
808180
808180
808180
808180
808180
808180
808180
C18180
C1C180
767F80
3C3CE0
000020
000020
000020
000020
ENDCHAR
STARTCHAR 044A
ENCODING 1098
SWIDTH 675 0
DWIDTH 15 0
BBX 14 12 0 0
BITMAP
FC00
0C00
0C00
0C00
0FF0
0C38
0C0C
0C0C
0C0C
060C
0738
01F0
ENDCHAR
STARTCHAR 044B
ENCODING 1099
SWIDTH 765 0
DWIDTH 17 0
BBX 13 12 2 0
BITMAP
C008
C018
C018
C018
FF18
C398
C198
C0D8
C0D8
C198
7398
3F08
ENDCHAR
STARTCHAR 044C
ENCODING 1100
SWIDTH 585 0
DWIDTH 13 0
BBX 10 12 2 0
BITMAP
C000
C000
C000
C000
FF00
C180
C0C0
C0C0
C0C0
C0C0
7380
3F00
ENDCHAR
STARTCHAR 044D
ENCODING 1101
SWIDTH 585 0
DWIDTH 13 0
BBX 11 12 1 0
BITMAP
3F00
7380
C0C0
0040
0060
1FE0
0FE0
0060
0040
40C0
7380
3F00
ENDCHAR
STARTCHAR 044E
ENCODING 1102
SWIDTH 900 0
DWIDTH 20 0
BBX 16 12 2 0
BITMAP
C1F8
C38E
C607
C403
CC01
FC01
FC01
CC01
C603
C606
C3DE
C0F8
ENDCHAR
STARTCHAR 044F
ENCODING 1103
SWIDTH 585 0
DWIDTH 13 0
BBX 10 12 1 0
BITMAP
1FC0
70C0
60C0
40C0
40C0
60C0
3FC0
1FC0
38C0
30C0
60C0
C0C0
ENDCHAR
STARTCHAR 0450
ENCODING 1104
SWIDTH 630 0
DWIDTH 14 0
BBX 12 18 1 0
BITMAP
1800
1C00
0E00
0600
0000
0000
1F80
38C0
6060
4020
C030
FFF0
FFE0
4000
6000
6000
3DE0
0F80
ENDCHAR
STARTCHAR 0451
ENCODING 1105
SWIDTH 630 0
DWIDTH 14 0
BBX 12 17 1 0
BITMAP
1880
19C0
1080
0000
0000
1F80
38C0
6060
4020
C030
FFF0
FFE0
4000
6000
6000
3DE0
0F80
ENDCHAR
STARTCHAR 0452
ENCODING 1106
SWIDTH 720 0
DWIDTH 16 0
BBX 14 22 0 -5
BITMAP
1000
1000
FFC0
1000
1000
1000
13E0
1C30
1818
1808
100C
100C
100C
100C
100C
100C
100C
0008
0018
0018
00F0
00E0
ENDCHAR
STARTCHAR 0453
ENCODING 1107
SWIDTH 495 0
DWIDTH 11 0
BBX 9 18 1 0
BITMAP
0300
0700
0E00
0C00
0000
0000
3F00
6380
C180
0180
0180
0F00
7800
C000
C000
C080
7380
3F00
ENDCHAR
STARTCHAR 0454
ENCODING 1108
SWIDTH 585 0
DWIDTH 13 0
BBX 11 12 1 0
BITMAP
1F80
38C0
6060
6000
C000
FF00
FE00
4000
6000
7040
3DE0
0F80
ENDCHAR
STARTCHAR 0455
ENCODING 1109
SWIDTH 540 0
DWIDTH 12 0
BBX 10 12 1 0
BITMAP
3F00
7180
60C0
6000
6000
3E00
0780
00C0
00C0
C0C0
7380
3F00
ENDCHAR
STARTCHAR 0456
ENCODING 1110
SWIDTH 270 0
DWIDTH 6 0
BBX 2 17 2 0
BITMAP
C0
C0
40
00
00
C0
C0
C0
C0
C0
C0
C0
C0
C0
C0
C0
C0
ENDCHAR
STARTCHAR 0457
ENCODING 1111
SWIDTH 270 0
DWIDTH 6 0
BBX 7 17 0 0
BITMAP
C4
CE
84
00
00
30
30
30
30
30
30
30
30
30
30
30
30
ENDCHAR
STARTCHAR 0458
ENCODING 1112
SWIDTH 270 0
DWIDTH 6 0
BBX 6 22 -2 -5
BITMAP
0C
0C
00
00
00
0C
0C
0C
0C
0C
0C
0C
0C
0C
0C
0C
0C
0C
0C
18
78
F0
ENDCHAR
STARTCHAR 0459
ENCODING 1113
SWIDTH 810 0
DWIDTH 18 0
BBX 16 12 1 0
BITMAP
0400
0E00
0A00
1B00
19FC
3186
3183
60C3
60C3
C063
C07E
803C
ENDCHAR
STARTCHAR 045A
ENCODING 1114
SWIDTH 945 0
DWIDTH 21 0
BBX 18 12 2 0
BITMAP
C06000
C06000
C06000
C06000
C07F00
FFE1C0
FFE0C0
C06040
C06040
C060C0
C039C0
C01F00
ENDCHAR
STARTCHAR 045B
ENCODING 1115
SWIDTH 675 0
DWIDTH 15 0
BBX 14 17 0 0
BITMAP
3000
3000
FFC0
3000
3000
33C0
3FF0
3838
3018
3008
300C
300C
300C
300C
300C
300C
300C
ENDCHAR
STARTCHAR 045C
ENCODING 1116
SWIDTH 540 0
DWIDTH 12 0
BBX 10 18 2 0
BITMAP
0600
0E00
1C00
1800
0000
0000
C080
C180
C300
C600
CC00
F800
FC00
CE00
C600
C300
C180
C0C0
ENDCHAR
STARTCHAR 045D
ENCODING 1117
SWIDTH 675 0
DWIDTH 15 0
BBX 11 18 2 0
BITMAP
3000
1800
0C00
0400
0000
0000
8060
8060
8060
8060
8060
8060
8060
C060
C060
E0E0
7BE0
3F60
ENDCHAR
STARTCHAR 045E
ENCODING 1118
SWIDTH 540 0
DWIDTH 12 0
BBX 12 22 0 -5
BITMAP
30C0
18C0
0F80
0000
0000
C030
6020
6060
2060
30C0
10C0
1980
0980
0D00
0700
0600
0600
0600
0C00
0C00
9800
F000
ENDCHAR
STARTCHAR 045F
ENCODING 1119
SWIDTH 540 0
DWIDTH 12 0
BBX 10 15 1 -3
BITMAP
C040
C040
C040
C040
C040
C040
C040
C040
C040
C040
FFC0
FFC0
0C00
0C00
0C00
ENDCHAR
STARTCHAR 0462
ENCODING 1122
SWIDTH 765 0
DWIDTH 17 0
BBX 16 17 0 0
BITMAP
0C00
0C00
7FE0
FFF0
0C00
0C00
0C00
0FFC
0C0E
0C03
0C03
0C03
0C03
0C03
0C06
0FFE
0FF8
ENDCHAR
STARTCHAR 0463
ENCODING 1123
SWIDTH 585 0
DWIDTH 13 0
BBX 12 17 0 0
BITMAP
1800
1800
1800
1800
7F00
FF80
1800
1800
1800
1FE0
1870
1830
1810
1810
0830
0E70
07E0
ENDCHAR
STARTCHAR 046A
ENCODING 1130
SWIDTH 945 0
DWIDTH 21 0
BBX 19 17 1 0
BITMAP
3FFF00
180300
0C0600
0C0C00
061800
031800
01B000
01E000
0FFC00
18C600
30C300
30C180
60C180
60C0C0
C0C0C0
C0C060
80C060
ENDCHAR
STARTCHAR 046B
ENCODING 1131
SWIDTH 720 0
DWIDTH 16 0
BBX 15 12 1 0
BITMAP
3FF8
1030
1860
0C40
0680
0FC0
3FF0
6318
6308
C30C
C30C
8306
ENDCHAR
STARTCHAR 0472
ENCODING 1138
SWIDTH 900 0
DWIDTH 20 0
BBX 18 18 1 0
BITMAP
00C000
07FC00
1E0E00
380300
300180
600180
6000C0
4000C0
C000C0
FFFFC0
C000C0
4000C0
6000C0
600180
300380
180700
0F3E00
03F800
ENDCHAR
STARTCHAR 0473
ENCODING 1139
SWIDTH 675 0
DWIDTH 15 0
BBX 13 12 1 0
BITMAP
1FC0
38E0
6030
6030
C018
FFF8
FFF8
4018
6030
7070
3DE0
0F80
ENDCHAR
STARTCHAR 0474
ENCODING 1140
SWIDTH 720 0
DWIDTH 16 0
BBX 16 17 0 1
BITMAP
C007
600C
600C
2008
3018
3010
1030
1830
0820
0C60
0C60
0440
06C0
0280
0380
0380
0100
ENDCHAR
STARTCHAR 0475
ENCODING 1141
SWIDTH 540 0
DWIDTH 12 0
BBX 12 12 0 0
BITMAP
C030
4060
60C0
20C0
3080
3180
1980
1900
0F00
0E00
0600
0600
ENDCHAR
STARTCHAR 0490
ENCODING 1168
SWIDTH 630 0
DWIDTH 14 0
BBX 11 21 2 0
BITMAP
0020
0020
0020
0020
FFE0
C000
C000
C000
C000
C000
C000
C000
C000
C000
C000
C000
C000
C000
C000
C000
C000
ENDCHAR
STARTCHAR 0491
ENCODING 1169
SWIDTH 495 0
DWIDTH 11 0
BBX 8 16 2 0
BITMAP
01
01
01
01
FF
C0
C0
C0
C0
C0
C0
C0
C0
C0
C0
C0
ENDCHAR
STARTCHAR 0492
ENCODING 1170
SWIDTH 630 0
DWIDTH 14 0
BBX 13 17 0 0
BITMAP
3FF8
3000
3000
3000
3000
3000
3000
3000
FF00
3000
3000
3000
3000
3000
3000
3000
3000
ENDCHAR
STARTCHAR 0493
ENCODING 1171
SWIDTH 495 0
DWIDTH 11 0
BBX 9 12 1 0
BITMAP
7F80
6000
6000
6000
6000
FE00
FE00
6000
6000
6000
6000
6000
ENDCHAR
STARTCHAR 0494
ENCODING 1172
SWIDTH 675 0
DWIDTH 15 0
BBX 12 17 2 0
BITMAP
FFE0
C000
C000
C000
C000
DF80
F9C0
C060
C030
C030
C030
C030
C030
C020
C060
C1C0
C780
ENDCHAR
STARTCHAR 0495
ENCODING 1173
SWIDTH 585 0
DWIDTH 13 0
BBX 10 16 2 -4
BITMAP
FF00
C000
C000
C000
DE00
FF00
C180
C0C0
C0C0
C0C0
C0C0
C0C0
00C0
0180
0780
0E00
ENDCHAR
STARTCHAR 0496
ENCODING 1174
SWIDTH 1035 0
DWIDTH 23 0
BBX 22 21 1 -4
BITMAP
C06018
606030
306060
3060C0
1860C0
0C6180
046300
07FE00
07FE00
066300
0C6180
186180
3060C0
306060
606030
C0603C
80201C
00000C
00000C
00000C
000004
ENDCHAR
STARTCHAR 0497
ENCODING 1175
SWIDTH 810 0
DWIDTH 18 0
BBX 17 16 1 -4
BITMAP
C10200
418600
618C00
318800
119800
1FF000
1FF000
319800
218800
618C00
C18600
810780
000180
000180
000180
000180
ENDCHAR
STARTCHAR 0498
ENCODING 1176
SWIDTH 630 0
DWIDTH 14 0
BBX 12 22 1 -4
BITMAP
0600
3F80
70C0
4060
0060
0060
0060
00C0
0F80
07C0
0060
0030
0030
0030
0030
C060
79C0
3F80
0600
0600
0600
0200
ENDCHAR
STARTCHAR 0499
ENCODING 1177
SWIDTH 495 0
DWIDTH 11 0
BBX 9 16 1 -4
BITMAP
3F00
6380
C180
0180
0180
1E00
0380
0080
0080
C080
F380
3F00
0C00
0C00
0C00
0800
ENDCHAR
STARTCHAR 049A
ENCODING 1178
SWIDTH 675 0
DWIDTH 15 0
BBX 13 21 2 -4
BITMAP
C030
C060
C0E0
C0C0
C180
C300
C600
FC00
FC00
C600
C300
C300
C180
C0C0
C060
C078
C038
0018
0018
0018
0008
ENDCHAR
STARTCHAR 049B
ENCODING 1179
SWIDTH 585 0
DWIDTH 13 0
BBX 11 16 2 -4
BITMAP
C0C0
C180
C300
C600
C600
FC00
FC00
C600
C600
C300
C180
C0E0
0060
0060
0060
0040
ENDCHAR
STARTCHAR 049C
ENCODING 1180
SWIDTH 675 0
DWIDTH 15 0
BBX 12 17 2 0
BITMAP
C030
C060
C0E0
C0C0
C180
DB00
DE00
FC00
FC00
DE00
DB00
D980
C0C0
C0E0
C060
C030
C010
ENDCHAR
STARTCHAR 049D
ENCODING 1181
SWIDTH 585 0
DWIDTH 13 0
BBX 10 12 2 0
BITMAP
C0C0
C180
C380
D300
D600
FC00
FC00
D600
D300
C180
C0C0
C040
ENDCHAR
STARTCHAR 04A0
ENCODING 1184
SWIDTH 855 0
DWIDTH 19 0
BBX 18 17 0 0
BITMAP
FF00C0
030180
030300
030600
030600
030C00
031800
03F000
03F000
031800
030C00
030E00
030600
030300
030180
0300C0
030040
ENDCHAR
STARTCHAR 04A1
ENCODING 1185
SWIDTH 675 0
DWIDTH 15 0
BBX 14 12 0 0
BITMAP
FC0C
0C18
0C30
0C70
0C60
0FC0
0FC0
0C60
0C30
0C18
0C0C
0C0C
ENDCHAR
STARTCHAR 04A2
ENCODING 1186
SWIDTH 855 0
DWIDTH 19 0
BBX 17 21 2 -4
BITMAP
C00600
C00600
C00600
C00600
C00600
C00600
C00600
FFFE00
FFFE00
C00600
C00600
C00600
C00600
C00600
C00600
C00700
C00780
000180
000180
000180
000180
ENDCHAR
STARTCHAR 04A3
ENCODING 1187
SWIDTH 675 0
DWIDTH 15 0
BBX 13 16 2 -4
BITMAP
C020
C020
C020
C020
C020
FFE0
FFE0
C020
C020
C020
C020
C038
0008
0008
0008
0008
ENDCHAR
STARTCHAR 04A4
ENCODING 1188
SWIDTH 1125 0
DWIDTH 25 0
BBX 22 17 2 0
BITMAP
C00FFC
C00800
C00800
C00800
C00800
C00800
C00800
FFF800
FFF800
C00800
C00800
C00800
C00800
C00800
C00800
C00800
C00800
ENDCHAR
STARTCHAR 04A5
ENCODING 1189
SWIDTH 900 0
DWIDTH 20 0
BBX 17 12 2 0
BITMAP
C07F80
C04000
C04000
C04000
C04000
FFC000
FFC000
C04000
C04000
C04000
C04000
C04000
ENDCHAR
STARTCHAR 04AA
ENCODING 1194
SWIDTH 765 0
DWIDTH 17 0
BBX 15 22 1 -4
BITMAP
00C0
07F8
1E0E
3804
3000
6000
6000
4000
C000
C000
C000
4000
6000
6000
3000
1806
0F3C
03F8
00C0
00C0
00C0
00C0
ENDCHAR
STARTCHAR 04AB
ENCODING 1195
SWIDTH 585 0
DWIDTH 13 0
BBX 11 16 1 -4
BITMAP
1F80
38C0
6060
6000
C000
C000
C000
4000
6000
6040
3DE0
0F80
0200
0200
0200
0200
ENDCHAR
STARTCHAR 04AE
ENCODING 1198
SWIDTH 630 0
DWIDTH 14 0
BBX 14 17 0 0
BITMAP
C00C
600C
6018
3018
3030
1860
0C60
0CC0
0680
0380
0300
0300
0300
0300
0300
0300
0300
ENDCHAR
STARTCHAR 04AF
ENCODING 1199
SWIDTH 540 0
DWIDTH 12 0
BBX 11 17 0 -5
BITMAP
C020
4060
6060
2040
30C0
3080
1980
1980
0B00
0F00
0600
0600
0600
0600
0600
0600
0600
ENDCHAR
STARTCHAR 04B0
ENCODING 1200
SWIDTH 630 0
DWIDTH 14 0
BBX 14 17 0 0
BITMAP
C00C
600C
6018
3018
3030
1860
0C60
0CC0
0680
0380
1FF0
0300
0300
0300
0300
0300
0300
ENDCHAR
STARTCHAR 04B1
ENCODING 1201
SWIDTH 585 0
DWIDTH 13 0
BBX 11 17 1 -5
BITMAP
C060
C060
4040
60C0
2080
3180
3180
1B00
1B00
0E00
0E00
7FC0
7FC0
0400
0400
0400
0400
ENDCHAR
STARTCHAR 04B6
ENCODING 1206
SWIDTH 765 0
DWIDTH 17 0
BBX 15 21 2 -4
BITMAP
8018
8018
8018
8018
8018
C018
C018
C018
6038
3FF8
1F98
0018
0018
0018
0018
001C
001E
0006
0006
0006
0006
ENDCHAR
STARTCHAR 04B7
ENCODING 1207
SWIDTH 585 0
DWIDTH 13 0
BBX 12 16 1 -4
BITMAP
C0C0
C0C0
C0C0
C0C0
C0C0
C0C0
73C0
3FC0
00C0
00C0
00C0
00F0
0030
0030
0030
0010
ENDCHAR
STARTCHAR 04B8
ENCODING 1208
SWIDTH 765 0
DWIDTH 17 0
BBX 13 17 2 0
BITMAP
8018
8018
8018
8018
8018
C018
C218
C618
6638
3FF8
1F98
0618
0618
0218
0018
0018
0018
ENDCHAR
STARTCHAR 04B9
ENCODING 1209
SWIDTH 585 0
DWIDTH 13 0
BBX 10 12 1 0
BITMAP
C0C0
C0C0
C0C0
C0C0
C4C0
C4C0
77C0
3FC0
04C0
04C0
00C0
00C0
ENDCHAR
STARTCHAR 04BA
ENCODING 1210
SWIDTH 765 0
DWIDTH 17 0
BBX 13 17 2 0
BITMAP
C000
C000
C000
C000
C000
C000
DFC0
F070
C030
C018
C018
C018
C018
C018
C018
C018
C018
ENDCHAR
STARTCHAR 04BB
ENCODING 1211
SWIDTH 675 0
DWIDTH 15 0
BBX 11 17 2 0
BITMAP
C000
C000
C000
C000
C000
DF80
F1C0
E060
C060
C060
C020
C020
C020
C020
C020
C020
C020
ENDCHAR
STARTCHAR 04C0
ENCODING 1216
SWIDTH 270 0
DWIDTH 6 0
BBX 2 17 2 0
BITMAP
C0
C0
C0
C0
C0
C0
C0
C0
C0
C0
C0
C0
C0
C0
C0
C0
C0
ENDCHAR
STARTCHAR 04C1
ENCODING 1217
SWIDTH 1035 0
DWIDTH 23 0
BBX 21 23 1 0
BITMAP
010400
010400
018C00
00F800
000000
000000
C06018
606030
306060
3060C0
1860C0
0C6180
046300
07FE00
07FE00
066300
0C6180
1860C0
3060C0
306060
606030
C06018
802008
ENDCHAR
STARTCHAR 04C2
ENCODING 1218
SWIDTH 765 0
DWIDTH 17 0
BBX 16 17 1 0
BITMAP
0830
0C60
07C0
0000
0000
C182
4186
618C
318C
1198
1FF0
1FF0
3198
318C
6186
C186
8183
ENDCHAR
STARTCHAR 04CB
ENCODING 1227
SWIDTH 765 0
DWIDTH 17 0
BBX 13 21 2 -4
BITMAP
8018
8018
8018
8018
8018
C018
C018
C018
6038
3FF8
1F98
0018
0018
0018
0018
0078
0078
0060
0060
0060
0040
ENDCHAR
STARTCHAR 04CC
ENCODING 1228
SWIDTH 585 0
DWIDTH 13 0
BBX 10 16 1 -4
BITMAP
C0C0
C0C0
C0C0
C0C0
C0C0
C0C0
73C0
3FC0
00C0
00C0
00C0
03C0
0300
0300
0300
0300
ENDCHAR
STARTCHAR 04CF
ENCODING 1231
SWIDTH 270 0
DWIDTH 6 0
BBX 4 17 2 0
BITMAP
80
80
80
80
80
80
80
80
80
80
80
80
80
80
C0
F0
70
ENDCHAR
STARTCHAR 04D0
ENCODING 1232
SWIDTH 720 0
DWIDTH 16 0
BBX 15 23 0 0
BITMAP
0820
0C30
0E60
07C0
0000
0000
0180
0380
03C0
02C0
0640
0660
0C20
0C30
0830
1818
1818
3FF8
3FFC
600C
6006
4006
C002
ENDCHAR
STARTCHAR 04D1
ENCODING 1233
SWIDTH 675 0
DWIDTH 15 0
BBX 13 17 1 0
BITMAP
1040
18C0
0F80
0000
0000
1FC0
38E0
6030
6030
C018
C018
C018
4018
6038
7078
3DD8
0F98
ENDCHAR
STARTCHAR 04D2
ENCODING 1234
SWIDTH 720 0
DWIDTH 16 0
BBX 15 22 0 0
BITMAP
0460
0E60
0000
0000
0000
0180
0380
03C0
02C0
0640
0660
0C20
0C30
0830
1818
1818
3FF8
3FFC
600C
6006
4006
C002
ENDCHAR
STARTCHAR 04D3
ENCODING 1235
SWIDTH 675 0
DWIDTH 15 0
BBX 13 17 1 0
BITMAP
18C0
18C0
0880
0000
0000
1FC0
38E0
6030
6030
C018
C018
C018
4018
6038
7078
3DD8
0F98
ENDCHAR
STARTCHAR 04D4
ENCODING 1236
SWIDTH 945 0
DWIDTH 21 0
BBX 20 17 0 0
BITMAP
003FF0
007000
007000
00F000
01B000
01B000
033000
023F80
063FC0
0C3000
0C3000
1FF000
3FF000
303000
603000
603FF0
C03FF0
ENDCHAR
STARTCHAR 04D5
ENCODING 1237
SWIDTH 1080 0
DWIDTH 24 0
BBX 22 12 1 0
BITMAP
1FC3F0
38E638
603C0C
60380C
C01804
C01FFC
C01FFC
401800
603800
707C08
3DDF38
0F9BF0
ENDCHAR
STARTCHAR 04D6
ENCODING 1238
SWIDTH 675 0
DWIDTH 15 0
BBX 12 23 2 0
BITMAP
1040
1040
18C0
0F80
0000
0000
FFF0
C000
C000
C000
C000
C000
C000
FF80
FFC0
C000
C000
C000
C000
C000
C000
FFF0
FFF0
ENDCHAR
STARTCHAR 04D7
ENCODING 1239
SWIDTH 630 0
DWIDTH 14 0
BBX 12 17 1 0
BITMAP
30C0
18C0
0F80
0000
0000
1F80
38C0
6060
4020
C030
FFF0
FFE0
4000
6000
6000
3DE0
0F80
ENDCHAR
STARTCHAR 04D8
ENCODING 1240
SWIDTH 810 0
DWIDTH 18 0
BBX 16 18 1 0
BITMAP
0180
0FF0
1C38
300C
6006
6002
4003
C003
C003
FFFF
0003
0003
0003
0006
2006
301C
1E78
0FE0
ENDCHAR
STARTCHAR 04D9
ENCODING 1241
SWIDTH 630 0
DWIDTH 14 0
BBX 11 12 1 0
BITMAP
3F00
71C0
00C0
0060
0060
FFE0
FFE0
C060
C060
60C0
7BC0
1F00
ENDCHAR
STARTCHAR 04DC
ENCODING 1244
SWIDTH 1035 0
DWIDTH 23 0
BBX 21 22 1 0
BITMAP
018C00
018C00
000000
000000
000000
C06018
606030
306060
3060C0
1860C0
0C6180
046300
07FE00
07FE00
066300
0C6180
1860C0
3060C0
306060
606030
C06018
802008
ENDCHAR
STARTCHAR 04DD
ENCODING 1245
SWIDTH 765 0
DWIDTH 17 0
BBX 16 17 1 0
BITMAP
0460
0E60
0460
0000
0000
C182
4186
618C
318C
1198
1FF0
1FF0
3198
318C
6186
C186
8183
ENDCHAR
STARTCHAR 04DE
ENCODING 1246
SWIDTH 630 0
DWIDTH 14 0
BBX 12 22 1 0
BITMAP
18C0
19C0
0000
0000
0600
3F80
70C0
4060
0060
0060
0060
00C0
0F80
07C0
0060
0030
0030
0030
0030
C060
79C0
3F80
ENDCHAR
STARTCHAR 04DF
ENCODING 1247
SWIDTH 495 0
DWIDTH 11 0
BBX 9 17 1 0
BITMAP
3100
3380
2100
0000
0000
3F00
6380
C180
0180
0180
1E00
0380
0080
0080
C080
F380
3F00
ENDCHAR
STARTCHAR 04E2
ENCODING 1250
SWIDTH 855 0
DWIDTH 19 0
BBX 15 21 2 0
BITMAP
0FE0
0000
0000
0000
C006
C00E
C01E
C036
C066
C066
C0C6
C186
C306
C206
C606
CC06
D806
F006
E006
E006
C004
ENDCHAR
STARTCHAR 04E3
ENCODING 1251
SWIDTH 675 0
DWIDTH 15 0
BBX 11 16 2 0
BITMAP
3F80
0000
0000
0000
8060
8060
8060
8060
8060
8060
8060
C060
C060
E0E0
7BE0
3F60
ENDCHAR
STARTCHAR 04E4
ENCODING 1252
SWIDTH 855 0
DWIDTH 19 0
BBX 15 22 2 0
BITMAP
0C60
0C60
0000
0000
0000
C006
C00E
C01E
C036
C066
C066
C0C6
C186
C306
C206
C606
CC06
D806
F006
E006
E006
C004
ENDCHAR
STARTCHAR 04E5
ENCODING 1253
SWIDTH 675 0
DWIDTH 15 0
BBX 11 17 2 0
BITMAP
3180
3180
1100
0000
0000
8060
8060
8060
8060
8060
8060
8060
C060
C060
E0E0
7BE0
3F60
ENDCHAR
STARTCHAR 04E6
ENCODING 1254
SWIDTH 900 0
DWIDTH 20 0
BBX 18 22 1 0
BITMAP
031800
033800
000000
000000
00C000
07FC00
1E0E00
380300
300180
600180
6000C0
4000C0
C000C0
C000C0
C000C0
4000C0
6000C0
600180
300380
180700
0F3E00
03F800
ENDCHAR
STARTCHAR 04E7
ENCODING 1255
SWIDTH 675 0
DWIDTH 15 0
BBX 13 17 1 0
BITMAP
18C0
18C0
0880
0000
0000
1FC0
38E0
6030
6030
C018
C018
C018
4018
6030
7070
3DE0
0F80
ENDCHAR
STARTCHAR 04E8
ENCODING 1256
SWIDTH 900 0
DWIDTH 20 0
BBX 18 18 1 0
BITMAP
00C000
07FC00
1E0E00
380300
300180
600180
6000C0
4000C0
C000C0
FFFFC0
C000C0
4000C0
6000C0
600180
300380
180700
0F3E00
03F800
ENDCHAR
STARTCHAR 04E9
ENCODING 1257
SWIDTH 675 0
DWIDTH 15 0
BBX 13 12 1 0
BITMAP
1FC0
38E0
6030
6030
C018
FFF8
FFF8
4018
6030
7070
3DE0
0F80
ENDCHAR
STARTCHAR 04EE
ENCODING 1262
SWIDTH 720 0
DWIDTH 16 0
BBX 15 21 0 0
BITMAP
0FF0
0000
0000
0000
C006
C00C
600C
2018
3018
1830
1830
0C20
0460
0640
02C0
0380
0180
0180
0300
3E00
3C00
ENDCHAR
STARTCHAR 04EF
ENCODING 1263
SWIDTH 540 0
DWIDTH 12 0
BBX 12 21 0 -5
BITMAP
3FC0
0000
0000
0000
C030
6020
6060
2060
30C0
10C0
1980
0980
0D00
0700
0600
0600
0600
0C00
0C00
9800
F000
ENDCHAR
STARTCHAR 04F0
ENCODING 1264
SWIDTH 720 0
DWIDTH 16 0
BBX 15 22 0 0
BITMAP
0C60
0E60
0000
0000
0000
C006
C00C
600C
2018
3018
1830
1830
0C20
0460
0640
02C0
0380
0180
0180
0300
3E00
3C00
ENDCHAR
STARTCHAR 04F1
ENCODING 1265
SWIDTH 540 0
DWIDTH 12 0
BBX 12 22 0 -5
BITMAP
1880
19C0
1080
0000
0000
C030
6020
6060
2060
30C0
10C0
1980
0980
0D00
0700
0600
0600
0600
0C00
0C00
9800
F000
ENDCHAR
STARTCHAR 04F2
ENCODING 1266
SWIDTH 720 0
DWIDTH 16 0
BBX 15 24 0 0
BITMAP
0020
0320
0360
0260
0640
0000
0000
C006
C00C
600C
2018
3018
1830
1830
0C20
0460
0640
02C0
0380
0180
0180
0300
3E00
3C00
ENDCHAR
STARTCHAR 04F3
ENCODING 1267
SWIDTH 540 0
DWIDTH 12 0
BBX 12 23 0 -5
BITMAP
06C0
0CC0
0D80
0980
0000
0000
C030
6020
6060
2060
30C0
10C0
1980
0980
0D00
0700
0600
0600
0600
0C00
0C00
9800
F000
ENDCHAR
STARTCHAR 04F4
ENCODING 1268
SWIDTH 765 0
DWIDTH 17 0
BBX 13 22 2 0
BITMAP
1980
19C0
0000
0000
0000
8018
8018
8018
8018
8018
C018
C018
C018
6038
3FF8
1F98
0018
0018
0018
0018
0018
0018
ENDCHAR
STARTCHAR 04F5
ENCODING 1269
SWIDTH 585 0
DWIDTH 13 0
BBX 10 17 1 0
BITMAP
3100
3380
2100
0000
0000
C0C0
C0C0
C0C0
C0C0
C0C0
C0C0
73C0
3FC0
00C0
00C0
00C0
00C0
ENDCHAR
STARTCHAR 04F6
ENCODING 1270
SWIDTH 630 0
DWIDTH 14 0
BBX 11 21 2 -4
BITMAP
FFE0
C000
C000
C000
C000
C000
C000
C000
C000
C000
C000
C000
C000
C000
C000
F000
F000
3000
3000
3000
1000
ENDCHAR
STARTCHAR 04F7
ENCODING 1271
SWIDTH 540 0
DWIDTH 12 0
BBX 9 16 1 -4
BITMAP
3F00
6380
C180
0180
0180
0F00
7800
C000
C000
C080
7380
3F00
0800
0800
0800
0800
ENDCHAR
STARTCHAR 04F8
ENCODING 1272
SWIDTH 900 0
DWIDTH 20 0
BBX 16 22 2 0
BITMAP
0630
0630
0000
0000
0000
C001
C003
C003
C003
C003
C003
C003
FF83
C0C3
C063
C023
C033
C033
C063
C063
FFC3
FF81
ENDCHAR
STARTCHAR 04F9
ENCODING 1273
SWIDTH 765 0
DWIDTH 17 0
BBX 13 17 2 0
BITMAP
18C0
18C0
0880
0000
0000
C008
C018
C018
C018
FF18
C398
C198
C0D8
C0D8
C198
7398
3F08
ENDCHAR
STARTCHAR 051A
ENCODING 1306
SWIDTH 900 0
DWIDTH 20 0
BBX 18 18 1 0
BITMAP
00C000
07FC00
1E0E00
380300
300180
600180
6000C0
4000C0
C000C0
C000C0
C000C0
4000C0
6018C0
600D80
300780
180700
0F3F80
03F880
ENDCHAR
STARTCHAR 051B
ENCODING 1307
SWIDTH 720 0
DWIDTH 16 0
BBX 13 17 1 -5
BITMAP
1FC0
38E0
6030
6030
C018
C018
C018
4018
6038
7078
3DD8
0F98
0018
0018
0018
0018
0018
ENDCHAR
STARTCHAR 051C
ENCODING 1308
SWIDTH 945 0
DWIDTH 21 0
BBX 20 17 0 0
BITMAP
C02010
406030
607030
607030
205020
30D860
309860
308840
1188C0
198CC0
190C80
090480
0F0780
0F0780
060700
060300
060300
ENDCHAR
STARTCHAR 051D
ENCODING 1309
SWIDTH 720 0
DWIDTH 16 0
BBX 16 12 0 0
BITMAP
C183
4183
61C2
61C2
2346
3264
3264
162C
1C28
1C38
0C18
0C10
ENDCHAR
STARTCHAR 1E80
ENCODING 7808
SWIDTH 945 0
DWIDTH 21 0
BBX 20 23 0 1
BITMAP
018000
00C000
006000
002000
000000
000000
C02010
406030
607030
607030
205020
30D860
309860
308840
1188C0
198CC0
190C80
090480
0F0780
0F0780
060700
060300
060300
ENDCHAR
STARTCHAR 1E81
ENCODING 7809
SWIDTH 720 0
DWIDTH 16 0
BBX 16 18 0 0
BITMAP
0600
0700
0380
0180
0000
0000
C183
4183
61C2
61C2
2346
3264
3264
162C
1C28
1C38
0C18
0C10
ENDCHAR
STARTCHAR 1E82
ENCODING 7810
SWIDTH 945 0
DWIDTH 21 0
BBX 20 23 0 0
BITMAP
001C00
003800
003000
002000
000000
000000
C02010
406030
607030
607030
205020
30D860
309860
308840
1188C0
198CC0
190C80
090480
0F0780
0F0780
060700
060300
060300
ENDCHAR
STARTCHAR 1E83
ENCODING 7811
SWIDTH 720 0
DWIDTH 16 0
BBX 16 18 0 0
BITMAP
0060
00E0
01C0
0180
0000
0000
C183
4183
61C2
61C2
2346
3264
3264
162C
1C28
1C38
0C18
0C10
ENDCHAR
STARTCHAR 1E84
ENCODING 7812
SWIDTH 945 0
DWIDTH 21 0
BBX 20 22 0 0
BITMAP
018C00
018C00
000000
000000
000000
C02010
406030
607030
607030
205020
30D860
309860
308840
1188C0
198CC0
190C80
090480
0F0780
0F0780
060700
060300
060300
ENDCHAR
STARTCHAR 1E85
ENCODING 7813
SWIDTH 720 0
DWIDTH 16 0
BBX 16 17 0 0
BITMAP
0620
0670
0420
0000
0000
C183
4183
61C2
61C2
2346
3264
3264
162C
1C28
1C38
0C18
0C10
ENDCHAR
STARTCHAR 1E9E
ENCODING 7838
SWIDTH 675 0
DWIDTH 15 0
BBX 12 17 2 0
BITMAP
3F80
71C0
6060
C0C0
C180
C300
C200
C7C0
C060
C030
C030
C030
C030
C030
C070
CFE0
CF80
ENDCHAR
STARTCHAR 1EA0
ENCODING 7840
SWIDTH 720 0
DWIDTH 16 0
BBX 15 22 0 -5
BITMAP
0180
0380
03C0
02C0
0640
0660
0C20
0C30
0830
1818
1818
3FF8
3FFC
600C
6006
4006
C002
0000
0000
0180
0180
0100
ENDCHAR
STARTCHAR 1EA1
ENCODING 7841
SWIDTH 675 0
DWIDTH 15 0
BBX 13 17 1 -5
BITMAP
1FC0
38E0
6030
6030
C018
C018
C018
4018
6038
7078
3DD8
0F98
0000
0000
0200
0700
0200
ENDCHAR
STARTCHAR 1EA2
ENCODING 7842
SWIDTH 720 0
DWIDTH 16 0
BBX 15 24 0 0
BITMAP
03C0
0260
0060
01C0
0180
0000
0000
0180
0380
03C0
02C0
0640
0660
0C20
0C30
0830
1818
1818
3FF8
3FFC
600C
6006
4006
C002
ENDCHAR
STARTCHAR 1EA3
ENCODING 7843
SWIDTH 675 0
DWIDTH 15 0
BBX 13 19 1 0
BITMAP
0780
0580
0080
0380
0200
0200
0000
1FC0
38E0
6030
6030
C018
C018
C018
4018
6038
7078
3DD8
0F98
ENDCHAR
STARTCHAR 1EA4
ENCODING 7844
SWIDTH 720 0
DWIDTH 16 0
BBX 15 27 0 0
BITMAP
0018
0038
0070
0060
0100
03C0
0EE0
0420
0000
0000
0180
0380
03C0
02C0
0640
0660
0C20
0C30
0830
1818
1818
3FF8
3FFC
600C
6006
4006
C002
ENDCHAR
STARTCHAR 1EA5
ENCODING 7845
SWIDTH 675 0
DWIDTH 15 0
BBX 13 22 1 0
BITMAP
0030
0070
00E0
00C0
0000
0700
1DC0
18C0
0000
0000
1FC0
38E0
6030
6030
C018
C018
C018
4018
6038
7078
3DD8
0F98
ENDCHAR
STARTCHAR 1EA6
ENCODING 7846
SWIDTH 720 0
DWIDTH 16 0
BBX 15 27 0 0
BITMAP
0180
01C0
00E0
0060
0100
03C0
0EE0
0420
0000
0000
0180
0380
03C0
02C0
0640
0660
0C20
0C30
0830
1818
1818
3FF8
3FFC
600C
6006
4006
C002
ENDCHAR
STARTCHAR 1EA7
ENCODING 7847
SWIDTH 675 0
DWIDTH 15 0
BBX 13 22 1 0
BITMAP
0600
0300
0180
0080
0000
0700
1DC0
18C0
0000
0000
1FC0
38E0
6030
6030
C018
C018
C018
4018
6038
7078
3DD8
0F98
ENDCHAR
STARTCHAR 1EA8
ENCODING 7848
SWIDTH 720 0
DWIDTH 16 0
BBX 15 28 0 0
BITMAP
00F0
00D8
0018
0030
0060
0160
03C0
06E0
0420
0000
0000
0180
0380
03C0
02C0
0640
0660
0C20
0C30
0830
1818
1818
3FF8
3FFC
600C
6006
4006
C002
ENDCHAR
STARTCHAR 1EA9
ENCODING 7849
SWIDTH 675 0
DWIDTH 15 0
BBX 13 23 1 0
BITMAP
01C0
01E0
0030
0060
00C0
0080
0700
1DC0
18C0
0000
0000
1FC0
38E0
6030
6030
C018
C018
C018
4018
6038
7078
3DD8
0F98
ENDCHAR
STARTCHAR 1EAA
ENCODING 7850
SWIDTH 720 0
DWIDTH 16 0
BBX 15 26 0 0
BITMAP
0720
0DE0
08C0
0100
03C0
06E0
0420
0000
0000
0180
0380
03C0
02C0
0640
0660
0C20
0C30
0830
1818
1818
3FF8
3FFC
600C
6006
4006
C002
ENDCHAR
STARTCHAR 1EAB
ENCODING 7851
SWIDTH 675 0
DWIDTH 15 0
BBX 13 21 1 0
BITMAP
0C00
1FC0
1180
0000
0700
1DC0
18C0
0000
0000
1FC0
38E0
6030
6030
C018
C018
C018
4018
6038
7078
3DD8
0F98
ENDCHAR
STARTCHAR 1EAC
ENCODING 7852
SWIDTH 720 0
DWIDTH 16 0
BBX 15 28 0 -5
BITMAP
0100
03C0
0EE0
0420
0000
0000
0180
0380
03C0
02C0
0640
0660
0C20
0C30
0830
1818
1818
3FF8
3FFC
600C
6006
4006
C002
0000
0000
0180
0180
0100
ENDCHAR
STARTCHAR 1EAD
ENCODING 7853
SWIDTH 675 0
DWIDTH 15 0
BBX 13 22 1 -5
BITMAP
0700
1DC0
18C0
0000
0000
1FC0
38E0
6030
6030
C018
C018
C018
4018
6038
7078
3DD8
0F98
0000
0000
0200
0700
0200
ENDCHAR
STARTCHAR 1EAE
ENCODING 7854
SWIDTH 720 0
DWIDTH 16 0
BBX 15 27 0 0
BITMAP
0060
00E0
01C0
0180
0420
0C20
07E0
0380
0000
0000
0180
0380
03C0
02C0
0640
0660
0C20
0C30
0830
1818
1818
3FF8
3FFC
600C
6006
4006
C002
ENDCHAR
STARTCHAR 1EAF
ENCODING 7855
SWIDTH 675 0
DWIDTH 15 0
BBX 13 22 1 0
BITMAP
00C0
0180
0300
0300
0000
18C0
1DC0
0F80
0000
0000
1FC0
38E0
6030
6030
C018
C018
C018
4018
6038
7078
3DD8
0F98
ENDCHAR
STARTCHAR 1EB0
ENCODING 7856
SWIDTH 720 0
DWIDTH 16 0
BBX 15 27 0 0
BITMAP
0C00
0600
0300
0180
0420
0C20
07E0
0380
0000
0000
0180
0380
03C0
02C0
0640
0660
0C20
0C30
0830
1818
1818
3FF8
3FFC
600C
6006
4006
C002
ENDCHAR
STARTCHAR 1EB1
ENCODING 7857
SWIDTH 675 0
DWIDTH 15 0
BBX 13 22 1 0
BITMAP
1800
0C00
0600
0200
0000
18C0
1DC0
0F80
0000
0000
1FC0
38E0
6030
6030
C018
C018
C018
4018
6038
7078
3DD8
0F98
ENDCHAR
STARTCHAR 1EB2
ENCODING 7858
SWIDTH 720 0
DWIDTH 16 0
BBX 15 28 0 0
BITMAP
03C0
0360
0060
00C0
0180
0520
0C20
07E0
0380
0000
0000
0180
0380
03C0
02C0
0640
0660
0C20
0C30
0830
1818
1818
3FF8
3FFC
600C
6006
4006
C002
ENDCHAR
STARTCHAR 1EB3
ENCODING 7859
SWIDTH 675 0
DWIDTH 15 0
BBX 13 23 1 0
BITMAP
0700
0780
0080
0180
0300
0200
18C0
1DC0
0F80
0000
0000
1FC0
38E0
6030
6030
C018
C018
C018
4018
6038
7078
3DD8
0F98
ENDCHAR
STARTCHAR 1EB4
ENCODING 7860
SWIDTH 720 0
DWIDTH 16 0
BBX 15 26 0 0
BITMAP
0720
0DE0
08C0
0420
0C20
07E0
0380
0000
0000
0180
0380
03C0
02C0
0640
0660
0C20
0C30
0830
1818
1818
3FF8
3FFC
600C
6006
4006
C002
ENDCHAR
STARTCHAR 1EB5
ENCODING 7861
SWIDTH 675 0
DWIDTH 15 0
BBX 13 21 1 0
BITMAP
0C00
1FC0
1180
0000
18C0
1DC0
0780
0000
0000
1FC0
38E0
6030
6030
C018
C018
C018
4018
6038
7078
3DD8
0F98
ENDCHAR
STARTCHAR 1EB6
ENCODING 7862
SWIDTH 720 0
DWIDTH 16 0
BBX 15 28 0 -5
BITMAP
0420
0C20
07E0
0380
0000
0000
0180
0380
03C0
02C0
0640
0660
0C20
0C30
0830
1818
1818
3FF8
3FFC
600C
6006
4006
C002
0000
0000
0180
0180
0100
ENDCHAR
STARTCHAR 1EB7
ENCODING 7863
SWIDTH 675 0
DWIDTH 15 0
BBX 13 22 1 -5
BITMAP
18C0
1DC0
0F80
0000
0000
1FC0
38E0
6030
6030
C018
C018
C018
4018
6038
7078
3DD8
0F98
0000
0000
0200
0700
0200
ENDCHAR
STARTCHAR 1EB8
ENCODING 7864
SWIDTH 675 0
DWIDTH 15 0
BBX 12 22 2 -5
BITMAP
FFF0
C000
C000
C000
C000
C000
C000
FF80
FFC0
C000
C000
C000
C000
C000
C000
FFF0
FFF0
0000
0000
0600
0600
0600
ENDCHAR
STARTCHAR 1EB9
ENCODING 7865
SWIDTH 630 0
DWIDTH 14 0
BBX 12 17 1 -5
BITMAP
1F80
38C0
6060
4020
C030
FFF0
FFE0
4000
6000
6000
3DE0
0F80
0000
0000
0600
0600
0600
ENDCHAR
STARTCHAR 1EBA
ENCODING 7866
SWIDTH 675 0
DWIDTH 15 0
BBX 12 24 2 0
BITMAP
0780
0480
0080
0380
0200
0200
0000
FFF0
C000
C000
C000
C000
C000
C000
FF80
FFC0
C000
C000
C000
C000
C000
C000
FFF0
FFF0
ENDCHAR
STARTCHAR 1EBB
ENCODING 7867
SWIDTH 630 0
DWIDTH 14 0
BBX 12 19 1 0
BITMAP
0F00
0D80
0180
0300
0600
0600
0000
1F80
38C0
6060
4020
C030
FFF0
FFE0
4000
6000
6000
3DE0
0F80
ENDCHAR
STARTCHAR 1EBC
ENCODING 7868
SWIDTH 675 0
DWIDTH 15 0
BBX 12 22 2 0
BITMAP
0E00
1FE0
31C0
0000
0000
FFF0
C000
C000
C000
C000
C000
C000
FF80
FFC0
C000
C000
C000
C000
C000
C000
FFF0
FFF0
ENDCHAR
STARTCHAR 1EBD
ENCODING 7869
SWIDTH 630 0
DWIDTH 14 0
BBX 12 17 1 0
BITMAP
0C00
3F60
33C0
0000
0000
1F80
38C0
6060
4020
C030
FFF0
FFE0
4000
6000
6000
3DE0
0F80
ENDCHAR
STARTCHAR 1EBE
ENCODING 7870
SWIDTH 675 0
DWIDTH 15 0
BBX 12 27 2 0
BITMAP
0030
0060
00C0
0080
0200
0F00
1DC0
10C0
0000
0000
FFF0
C000
C000
C000
C000
C000
C000
FF80
FFC0
C000
C000
C000
C000
C000
C000
FFF0
FFF0
ENDCHAR
STARTCHAR 1EBF
ENCODING 7871
SWIDTH 630 0
DWIDTH 14 0
BBX 12 22 1 0
BITMAP
0020
0060
00C0
0180
0000
0F00
1F80
1080
0000
0000
1F80
38C0
6060
4020
C030
FFF0
FFE0
4000
6000
6000
3DE0
0F80
ENDCHAR
STARTCHAR 1EC0
ENCODING 7872
SWIDTH 675 0
DWIDTH 15 0
BBX 12 27 2 0
BITMAP
0600
0300
0180
0080
0200
0F00
1DC0
10C0
0000
0000
FFF0
C000
C000
C000
C000
C000
C000
FF80
FFC0
C000
C000
C000
C000
C000
C000
FFF0
FFF0
ENDCHAR
STARTCHAR 1EC1
ENCODING 7873
SWIDTH 630 0
DWIDTH 14 0
BBX 12 22 1 0
BITMAP
0600
0700
0380
0180
0000
0F00
1F80
1080
0000
0000
1F80
38C0
6060
4020
C030
FFF0
FFE0
4000
6000
6000
3DE0
0F80
ENDCHAR
STARTCHAR 1EC2
ENCODING 7874
SWIDTH 675 0
DWIDTH 15 0
BBX 12 28 2 0
BITMAP
01E0
0160
0020
00E0
0080
0280
0F80
1DC0
18C0
0000
0000
FFF0
C000
C000
C000
C000
C000
C000
FF80
FFC0
C000
C000
C000
C000
C000
C000
FFF0
FFF0
ENDCHAR
STARTCHAR 1EC3
ENCODING 7875
SWIDTH 630 0
DWIDTH 14 0
BBX 12 23 1 0
BITMAP
01C0
03E0
0020
0060
01C0
0080
0F00
1F80
1080
0000
0000
1F80
38C0
6060
4020
C030
FFF0
FFE0
4000
6000
6000
3DE0
0F80
ENDCHAR
STARTCHAR 1EC4
ENCODING 7876
SWIDTH 675 0
DWIDTH 15 0
BBX 12 26 2 0
BITMAP
0CC0
1BC0
1180
0200
0F80
1DC0
18C0
0000
0000
FFF0
C000
C000
C000
C000
C000
C000
FF80
FFC0
C000
C000
C000
C000
C000
C000
FFF0
FFF0
ENDCHAR
STARTCHAR 1EC5
ENCODING 7877
SWIDTH 630 0
DWIDTH 14 0
BBX 12 21 1 0
BITMAP
1C80
1F80
1380
0000
0F00
1F80
1080
0000
0000
1F80
38C0
6060
4020
C030
FFF0
FFE0
4000
6000
6000
3DE0
0F80
ENDCHAR
STARTCHAR 1EC6
ENCODING 7878
SWIDTH 675 0
DWIDTH 15 0
BBX 12 28 2 -5
BITMAP
0200
0F00
1DC0
10C0
0000
0000
FFF0
C000
C000
C000
C000
C000
C000
FF80
FFC0
C000
C000
C000
C000
C000
C000
FFF0
FFF0
0000
0000
0600
0600
0600
ENDCHAR
STARTCHAR 1EC7
ENCODING 7879
SWIDTH 630 0
DWIDTH 14 0
BBX 12 22 1 -5
BITMAP
0F00
1F80
1080
0000
0000
1F80
38C0
6060
4020
C030
FFF0
FFE0
4000
6000
6000
3DE0
0F80
0000
0000
0600
0600
0600
ENDCHAR
STARTCHAR 1EC8
ENCODING 7880
SWIDTH 270 0
DWIDTH 6 0
BBX 5 24 1 0
BITMAP
F0
98
18
70
60
00
00
60
60
60
60
60
60
60
60
60
60
60
60
60
60
60
60
60
ENDCHAR
STARTCHAR 1EC9
ENCODING 7881
SWIDTH 270 0
DWIDTH 6 0
BBX 5 19 1 0
BITMAP
70
D8
08
38
60
20
00
60
60
60
60
60
60
60
60
60
60
60
60
ENDCHAR
STARTCHAR 1ECA
ENCODING 7882
SWIDTH 270 0
DWIDTH 6 0
BBX 2 22 2 -5
BITMAP
C0
C0
C0
C0
C0
C0
C0
C0
C0
C0
C0
C0
C0
C0
C0
C0
C0
00
00
C0
C0
C0
ENDCHAR
STARTCHAR 1ECB
ENCODING 7883
SWIDTH 270 0
DWIDTH 6 0
BBX 2 22 2 -5
BITMAP
C0
C0
40
00
00
C0
C0
C0
C0
C0
C0
C0
C0
C0
C0
C0
C0
00
00
C0
C0
40
ENDCHAR
STARTCHAR 1ECC
ENCODING 7884
SWIDTH 900 0
DWIDTH 20 0
BBX 18 23 1 -5
BITMAP
00C000
07FC00
1E0E00
380300
300180
600180
6000C0
4000C0
C000C0
C000C0
C000C0
4000C0
6000C0
600180
300380
180700
0F3E00
03F800
000000
000000
00C000
00C000
004000
ENDCHAR
STARTCHAR 1ECD
ENCODING 7885
SWIDTH 675 0
DWIDTH 15 0
BBX 13 17 1 -5
BITMAP
1FC0
38E0
6030
6030
C018
C018
C018
4018
6030
7070
3DE0
0F80
0000
0000
0200
0700
0200
ENDCHAR
STARTCHAR 1ECE
ENCODING 7886
SWIDTH 900 0
DWIDTH 20 0
BBX 18 24 1 0
BITMAP
01E000
013000
001000
006000
00C000
000000
00C000
07FC00
1E0E00
380300
300180
600180
6000C0
4000C0
C000C0
C000C0
C000C0
4000C0
6000C0
600180
300380
180700
0F3E00
03F800
ENDCHAR
STARTCHAR 1ECF
ENCODING 7887
SWIDTH 675 0
DWIDTH 15 0
BBX 13 19 1 0
BITMAP
0780
0580
0080
0380
0200
0200
0000
1FC0
38E0
6030
6030
C018
C018
C018
4018
6030
7070
3DE0
0F80
ENDCHAR
STARTCHAR 1ED0
ENCODING 7888
SWIDTH 900 0
DWIDTH 20 0
BBX 18 27 1 0
BITMAP
000400
000C00
001800
003000
004000
01E000
03B800
021000
000000
00C000
07FC00
1E0E00
380300
300180
600180
6000C0
4000C0
C000C0
C000C0
C000C0
4000C0
6000C0
600180
300380
180700
0F3E00
03F800
ENDCHAR
STARTCHAR 1ED1
ENCODING 7889
SWIDTH 675 0
DWIDTH 15 0
BBX 13 22 1 0
BITMAP
0030
0070
00E0
00C0
0000
0700
1DC0
18C0
0000
0000
1FC0
38E0
6030
6030
C018
C018
C018
4018
6030
7070
3DE0
0F80
ENDCHAR
STARTCHAR 1ED2
ENCODING 7890
SWIDTH 900 0
DWIDTH 20 0
BBX 18 27 1 0
BITMAP
00C000
006000
003000
001000
004000
01E000
03B800
021000
000000
00C000
07FC00
1E0E00
380300
300180
600180
6000C0
4000C0
C000C0
C000C0
C000C0
4000C0
6000C0
600180
300380
180700
0F3E00
03F800
ENDCHAR
STARTCHAR 1ED3
ENCODING 7891
SWIDTH 675 0
DWIDTH 15 0
BBX 13 22 1 0
BITMAP
0600
0300
0180
0080
0000
0700
1DC0
18C0
0000
0000
1FC0
38E0
6030
6030
C018
C018
C018
4018
6030
7070
3DE0
0F80
ENDCHAR
STARTCHAR 1ED4
ENCODING 7892
SWIDTH 900 0
DWIDTH 20 0
BBX 18 28 1 0
BITMAP
003800
002C00
000400
001C00
001000
005000
01E000
03B800
021800
000000
00C000
07FC00
1E0E00
380300
300180
600180
6000C0
4000C0
C000C0
C000C0
C000C0
4000C0
6000C0
600180
300380
180700
0F3E00
03F800
ENDCHAR
STARTCHAR 1ED5
ENCODING 7893
SWIDTH 675 0
DWIDTH 15 0
BBX 13 23 1 0
BITMAP
01C0
01E0
0030
0060
00C0
0080
0700
1DC0
18C0
0000
0000
1FC0
38E0
6030
6030
C018
C018
C018
4018
6030
7070
3DE0
0F80
ENDCHAR
STARTCHAR 1ED6
ENCODING 7894
SWIDTH 900 0
DWIDTH 20 0
BBX 18 26 1 0
BITMAP
039000
02F000
022000
004000
01E000
03B800
021800
000000
00C000
07FC00
1E0E00
380300
300180
600180
6000C0
4000C0
C000C0
C000C0
C000C0
4000C0
6000C0
600180
300380
180700
0F3E00
03F800
ENDCHAR
STARTCHAR 1ED7
ENCODING 7895
SWIDTH 675 0
DWIDTH 15 0
BBX 13 21 1 0
BITMAP
0C00
1FC0
1180
0000
0700
1DC0
18C0
0000
0000
1FC0
38E0
6030
6030
C018
C018
C018
4018
6030
7070
3DE0
0F80
ENDCHAR
STARTCHAR 1ED8
ENCODING 7896
SWIDTH 900 0
DWIDTH 20 0
BBX 18 28 1 -5
BITMAP
004000
01E000
03B800
021000
000000
00C000
07FC00
1E0E00
380300
300180
600180
6000C0
4000C0
C000C0
C000C0
C000C0
4000C0
6000C0
600180
300380
180700
0F3E00
03F800
000000
000000
00C000
00C000
004000
ENDCHAR
STARTCHAR 1ED9
ENCODING 7897
SWIDTH 675 0
DWIDTH 15 0
BBX 13 22 1 -5
BITMAP
0700
1DC0
18C0
0000
0000
1FC0
38E0
6030
6030
C018
C018
C018
4018
6030
7070
3DE0
0F80
0000
0000
0200
0700
0200
ENDCHAR
STARTCHAR 1EDA
ENCODING 7898
SWIDTH 900 0
DWIDTH 20 0
BBX 18 23 1 0
BITMAP
003000
007000
00E000
00C000
000180
00C180
07FF80
1E0F00
380300
300180
600180
6000C0
4000C0
C000C0
C000C0
C000C0
4000C0
6000C0
600180
300380
180700
0F3E00
03F800
ENDCHAR
STARTCHAR 1EDB
ENCODING 7899
SWIDTH 675 0
DWIDTH 15 0
BBX 13 18 1 0
BITMAP
00C0
0180
0300
0200
0018
0018
1FF0
38F0
6030
6030
C018
C018
C018
4018
6030
7070
3DE0
0F80
ENDCHAR
STARTCHAR 1EDC
ENCODING 7900
SWIDTH 900 0
DWIDTH 20 0
BBX 18 24 1 0
BITMAP
020000
030000
018000
00C000
004000
000180
00C180
07FF80
1E0F00
380300
300180
600180
6000C0
4000C0
C000C0
C000C0
C000C0
4000C0
6000C0
600180
300380
180700
0F3E00
03F800
ENDCHAR
STARTCHAR 1EDD
ENCODING 7901
SWIDTH 675 0
DWIDTH 15 0
BBX 13 18 1 0
BITMAP
1800
0C00
0600
0200
0018
0018
1FF0
38F0
6030
6030
C018
C018
C018
4018
6030
7070
3DE0
0F80
ENDCHAR
STARTCHAR 1EDE
ENCODING 7902
SWIDTH 900 0
DWIDTH 20 0
BBX 18 24 1 0
BITMAP
01E000
013000
001000
006000
00C000
000180
00C180
07FF80
1E0F00
380300
300180
600180
6000C0
4000C0
C000C0
C000C0
C000C0
4000C0
6000C0
600180
300380
180700
0F3E00
03F800
ENDCHAR
STARTCHAR 1EDF
ENCODING 7903
SWIDTH 675 0
DWIDTH 15 0
BBX 13 19 1 0
BITMAP
0780
0580
0080
0380
0200
0218
0018
1FF0
38F0
6030
6030
C018
C018
C018
4018
6030
7070
3DE0
0F80
ENDCHAR
STARTCHAR 1EE0
ENCODING 7904
SWIDTH 900 0
DWIDTH 20 0
BBX 18 22 1 0
BITMAP
01C000
07FC00
063800
000180
00C180
07FF80
1E0F00
380300
300180
600180
6000C0
4000C0
C000C0
C000C0
C000C0
4000C0
6000C0
600180
300380
180700
0F3E00
03F800
ENDCHAR
STARTCHAR 1EE1
ENCODING 7905
SWIDTH 675 0
DWIDTH 15 0
BBX 13 17 1 0
BITMAP
0C00
1F60
31E0
0018
0018
1FF0
38F0
6030
6030
C018
C018
C018
4018
6030
7070
3DE0
0F80
ENDCHAR
STARTCHAR 1EE2
ENCODING 7906
SWIDTH 900 0
DWIDTH 20 0
BBX 18 24 1 -5
BITMAP
000180
00C180
07FF80
1E0F00
380300
300180
600180
6000C0
4000C0
C000C0
C000C0
C000C0
4000C0
6000C0
600180
300380
180700
0F3E00
03F800
000000
000000
00C000
00C000
004000
ENDCHAR
STARTCHAR 1EE3
ENCODING 7907
SWIDTH 675 0
DWIDTH 15 0
BBX 13 19 1 -5
BITMAP
0018
0018
1FF0
38F0
6030
6030
C018
C018
C018
4018
6030
7070
3DE0
0F80
0000
0000
0200
0700
0200
ENDCHAR
STARTCHAR 1EE4
ENCODING 7908
SWIDTH 810 0
DWIDTH 18 0
BBX 14 22 2 -5
BITMAP
C00C
C00C
C00C
C00C
C00C
C00C
C00C
C00C
C00C
C00C
C00C
C00C
C00C
600C
6018
3870
1FE0
0000
0000
0300
0300
0300
ENDCHAR
STARTCHAR 1EE5
ENCODING 7909
SWIDTH 675 0
DWIDTH 15 0
BBX 11 17 2 -5
BITMAP
8060
8060
8060
8060
8060
8060
8060
C060
C060
E0E0
7BE0
3F60
0000
0000
0400
0E00
0400
ENDCHAR
STARTCHAR 1EE6
ENCODING 7910
SWIDTH 810 0
DWIDTH 18 0
BBX 14 24 2 0
BITMAP
0780
04C0
00C0
0380
0300
0000
0000
C00C
C00C
C00C
C00C
C00C
C00C
C00C
C00C
C00C
C00C
C00C
C00C
C00C
600C
6018
3870
1FE0
ENDCHAR
STARTCHAR 1EE7
ENCODING 7911
SWIDTH 675 0
DWIDTH 15 0
BBX 11 19 2 0
BITMAP
0F00
0B00
0100
0700
0400
0400
0000
8060
8060
8060
8060
8060
8060
8060
C060
C060
E0E0
7BE0
3F60
ENDCHAR
STARTCHAR 1EE8
ENCODING 7912
SWIDTH 810 0
DWIDTH 18 0
BBX 17 23 2 0
BITMAP
00C000
01C000
038000
030100
000180
000100
C00F00
C00C00
C00C00
C00C00
C00C00
C00C00
C00C00
C00C00
C00C00
C00C00
C00C00
C00C00
C00C00
600C00
601800
387000
1FE000
ENDCHAR
STARTCHAR 1EE9
ENCODING 7913
SWIDTH 675 0
DWIDTH 15 0
BBX 14 18 2 0
BITMAP
0180
0300
0600
0408
000C
000C
8078
8060
8060
8060
8060
8060
8060
C060
C060
E0E0
7BE0
3F60
ENDCHAR
STARTCHAR 1EEA
ENCODING 7914
SWIDTH 810 0
DWIDTH 18 0
BBX 17 24 2 0
BITMAP
080000
0C0000
060000
030000
010100
000180
000100
C00F00
C00C00
C00C00
C00C00
C00C00
C00C00
C00C00
C00C00
C00C00
C00C00
C00C00
C00C00
C00C00
600C00
601800
387000
1FE000
ENDCHAR
STARTCHAR 1EEB
ENCODING 7915
SWIDTH 675 0
DWIDTH 15 0
BBX 14 18 2 0
BITMAP
3000
1800
0C00
0408
000C
000C
8078
8060
8060
8060
8060
8060
8060
C060
C060
E0E0
7BE0
3F60
ENDCHAR
STARTCHAR 1EEC
ENCODING 7916
SWIDTH 810 0
DWIDTH 18 0
BBX 17 24 2 0
BITMAP
078000
04C000
00C000
038000
030100
000180
000100
C00F00
C00C00
C00C00
C00C00
C00C00
C00C00
C00C00
C00C00
C00C00
C00C00
C00C00
C00C00
C00C00
600C00
601800
387000
1FE000
ENDCHAR
STARTCHAR 1EED
ENCODING 7917
SWIDTH 675 0
DWIDTH 15 0
BBX 14 19 2 0
BITMAP
0F00
0B00
0100
0700
0408
040C
000C
8078
8060
8060
8060
8060
8060
8060
C060
C060
E0E0
7BE0
3F60
ENDCHAR
STARTCHAR 1EEE
ENCODING 7918
SWIDTH 810 0
DWIDTH 18 0
BBX 17 22 2 0
BITMAP
060000
1FF000
10E100
000180
000100
C00F00
C00C00
C00C00
C00C00
C00C00
C00C00
C00C00
C00C00
C00C00
C00C00
C00C00
C00C00
C00C00
600C00
601800
387000
1FE000
ENDCHAR
STARTCHAR 1EEF
ENCODING 7919
SWIDTH 675 0
DWIDTH 15 0
BBX 14 17 2 0
BITMAP
1800
3EC0
63C8
000C
000C
8078
8060
8060
8060
8060
8060
8060
C060
C060
E0E0
7BE0
3F60
ENDCHAR
STARTCHAR 1EF0
ENCODING 7920
SWIDTH 810 0
DWIDTH 18 0
BBX 17 25 2 -5
BITMAP
000100
000180
000100
C00F00
C00C00
C00C00
C00C00
C00C00
C00C00
C00C00
C00C00
C00C00
C00C00
C00C00
C00C00
C00C00
600C00
601800
387000
1FE000
000000
000000
030000
030000
030000
ENDCHAR
STARTCHAR 1EF1
ENCODING 7921
SWIDTH 675 0
DWIDTH 15 0
BBX 14 20 2 -5
BITMAP
0008
000C
000C
8078
8060
8060
8060
8060
8060
8060
C060
C060
E0E0
7BE0
3F60
0000
0000
0400
0E00
0400
ENDCHAR
STARTCHAR 1EF2
ENCODING 7922
SWIDTH 630 0
DWIDTH 14 0
BBX 14 24 0 0
BITMAP
0800
0C00
0600
0300
0100
0000
0000
C00C
600C
6018
3018
3030
1860
0C60
0CC0
0680
0380
0300
0300
0300
0300
0300
0300
0300
ENDCHAR
STARTCHAR 1EF3
ENCODING 7923
SWIDTH 540 0
DWIDTH 12 0
BBX 12 23 0 -5
BITMAP
1800
1C00
0E00
0600
0000
0000
C030
6030
6060
2060
3040
10C0
1880
0980
0D00
0700
0700
0600
0600
0C00
0C00
0800
1800
ENDCHAR
STARTCHAR 1EF4
ENCODING 7924
SWIDTH 630 0
DWIDTH 14 0
BBX 14 22 0 -5
BITMAP
C00C
600C
6018
3018
3030
1860
0C60
0CC0
0680
0380
0300
0300
0300
0300
0300
0300
0300
0000
0000
0300
0300
0100
ENDCHAR
STARTCHAR 1EF5
ENCODING 7925
SWIDTH 540 0
DWIDTH 12 0
BBX 12 17 0 -5
BITMAP
C030
6030
6060
2060
3040
10C0
1880
0980
0D00
0700
0700
0600
0600
0C00
0C80
09C0
1880
ENDCHAR
STARTCHAR 1EF6
ENCODING 7926
SWIDTH 630 0
DWIDTH 14 0
BBX 14 24 0 0
BITMAP
0780
04C0
0040
0180
0300
0000
0000
C00C
600C
6018
3018
3030
1860
0C60
0CC0
0680
0380
0300
0300
0300
0300
0300
0300
0300
ENDCHAR
STARTCHAR 1EF7
ENCODING 7927
SWIDTH 540 0
DWIDTH 12 0
BBX 12 24 0 -5
BITMAP
0700
0D80
0080
0380
0600
0200
0000
C030
6030
6060
2060
3040
10C0
1880
0980
0D00
0700
0700
0600
0600
0C00
0C00
0800
1800
ENDCHAR
STARTCHAR 1EF8
ENCODING 7928
SWIDTH 630 0
DWIDTH 14 0
BBX 14 22 0 0
BITMAP
0700
1FF0
18E0
0000
0000
C00C
600C
6018
3018
3030
1860
0C60
0CC0
0680
0380
0300
0300
0300
0300
0300
0300
0300
ENDCHAR
STARTCHAR 1EF9
ENCODING 7929
SWIDTH 540 0
DWIDTH 12 0
BBX 12 22 0 -5
BITMAP
0C00
1F60
31C0
0000
0000
C030
6030
6060
2060
3040
10C0
1880
0980
0D00
0700
0700
0600
0600
0C00
0C00
0800
1800
ENDCHAR
STARTCHAR 2010
ENCODING 8208
SWIDTH 405 0
DWIDTH 9 0
BBX 7 2 1 5
BITMAP
FE
FE
ENDCHAR
STARTCHAR 2013
ENCODING 8211
SWIDTH 405 0
DWIDTH 9 0
BBX 10 2 -1 5
BITMAP
FFC0
FFC0
ENDCHAR
STARTCHAR 2014
ENCODING 8212
SWIDTH 945 0
DWIDTH 21 0
BBX 23 2 -1 5
BITMAP
FFFFFE
FFFFFE
ENDCHAR
STARTCHAR 2015
ENCODING 8213
SWIDTH 720 0
DWIDTH 16 0
BBX 18 2 -1 5
BITMAP
FFFFC0
FFFF80
ENDCHAR
STARTCHAR 2017
ENCODING 8215
SWIDTH 450 0
DWIDTH 10 0
BBX 12 5 -1 -5
BITMAP
FFF0
FFF0
0000
FFF0
FFF0
ENDCHAR
STARTCHAR 2018
ENCODING 8216
SWIDTH 225 0
DWIDTH 5 0
BBX 3 6 1 12
BITMAP
20
60
40
E0
E0
40
ENDCHAR
STARTCHAR 2019
ENCODING 8217
SWIDTH 180 0
DWIDTH 4 0
BBX 3 6 0 12
BITMAP
40
E0
E0
C0
C0
80
ENDCHAR
STARTCHAR 201A
ENCODING 8218
SWIDTH 225 0
DWIDTH 5 0
BBX 3 6 1 -4
BITMAP
60
E0
60
40
C0
80
ENDCHAR
STARTCHAR 201B
ENCODING 8219
SWIDTH 225 0
DWIDTH 5 0
BBX 3 6 1 12
BITMAP
40
E0
E0
40
60
20
ENDCHAR
STARTCHAR 201C
ENCODING 8220
SWIDTH 270 0
DWIDTH 6 0
BBX 6 6 0 12
BITMAP
24
6C
6C
EC
EC
48
ENDCHAR
STARTCHAR 201D
ENCODING 8221
SWIDTH 270 0
DWIDTH 6 0
BBX 6 6 0 12
BITMAP
98
C8
CC
EC
FC
48
ENDCHAR
STARTCHAR 201E
ENCODING 8222
SWIDTH 270 0
DWIDTH 6 0
BBX 5 6 1 -4
BITMAP
D8
D8
D8
D8
90
90
ENDCHAR
STARTCHAR 2020
ENCODING 8224
SWIDTH 540 0
DWIDTH 12 0
BBX 10 22 1 -5
BITMAP
0C00
0C00
0C00
0C00
0C00
FFC0
FFC0
0C00
0C00
0C00
0C00
0C00
0C00
0C00
0C00
0C00
0C00
0C00
0C00
0C00
0C00
0C00
ENDCHAR
STARTCHAR 2021
ENCODING 8225
SWIDTH 540 0
DWIDTH 12 0
BBX 10 22 1 -5
BITMAP
0C00
0C00
0C00
0C00
0C00
FFC0
FFC0
0C00
0C00
0C00
0C00
0C00
0C00
0C00
0C00
FFC0
FFC0
0C00
0C00
0C00
0C00
0C00
ENDCHAR
STARTCHAR 2022
ENCODING 8226
SWIDTH 405 0
DWIDTH 9 0
BBX 5 5 2 6
BITMAP
F0
F8
F8
F8
70
ENDCHAR
STARTCHAR 2026
ENCODING 8230
SWIDTH 720 0
DWIDTH 16 0
BBX 13 3 1 0
BITMAP
4210
C738
C638
ENDCHAR
STARTCHAR 2030
ENCODING 8240
SWIDTH 1305 0
DWIDTH 29 0
BBX 27 17 1 0
BITMAP
3E030000
67060000
C30C0000
C11C0000
C1180000
C3300000
67600000
3EC00000
01CC0300
01BF0FC0
037198E0
06609860
0C609020
1C609060
18619860
303F0FC0
201E0780
ENDCHAR
STARTCHAR 2032
ENCODING 8242
SWIDTH 180 0
DWIDTH 4 0
BBX 2 4 1 13
BITMAP
40
C0
C0
80
ENDCHAR
STARTCHAR 2033
ENCODING 8243
SWIDTH 360 0
DWIDTH 8 0
BBX 6 4 1 13
BITMAP
6C
C8
D8
98
ENDCHAR
STARTCHAR 2039
ENCODING 8249
SWIDTH 270 0
DWIDTH 6 0
BBX 4 12 1 0
BITMAP
30
30
60
60
C0
C0
C0
40
60
20
30
10
ENDCHAR
STARTCHAR 203A
ENCODING 8250
SWIDTH 270 0
DWIDTH 6 0
BBX 4 12 1 0
BITMAP
C0
C0
60
60
30
30
30
30
60
60
C0
C0
ENDCHAR
STARTCHAR 203C
ENCODING 8252
SWIDTH 405 0
DWIDTH 9 0
BBX 7 17 1 0
BITMAP
46
46
46
46
46
46
46
46
46
46
46
46
46
00
44
EE
C6
ENDCHAR
STARTCHAR 203E
ENCODING 8254
SWIDTH 450 0
DWIDTH 10 0
BBX 12 2 -1 19
BITMAP
FFF0
FFF0
ENDCHAR
STARTCHAR 2044
ENCODING 8260
SWIDTH 315 0
DWIDTH 7 0
BBX 11 17 -2 0
BITMAP
0020
0060
00C0
00C0
0180
0300
0300
0600
0400
0C00
1800
1000
3000
6000
4000
C000
8000
ENDCHAR
STARTCHAR 2052
ENCODING 8274
SWIDTH 765 0
DWIDTH 17 0
BBX 14 17 3 0
BITMAP
F00C
F018
F030
6070
0060
00C0
0180
0300
0700
0600
0C00
1800
3000
7078
6078
C078
8030
ENDCHAR
STARTCHAR 2074
ENCODING 8308
SWIDTH 405 0
DWIDTH 9 0
BBX 7 8 1 8
BITMAP
0C
1C
3C
6C
4C
FE
FE
0C
ENDCHAR
STARTCHAR 20A1
ENCODING 8353
SWIDTH 765 0
DWIDTH 17 0
BBX 15 20 1 -2
BITMAP
0008
00D8
07F8
1E1E
3834
3030
6060
6060
4040
C0C0
C0C0
C180
4180
6100
6300
3200
1E06
0F3C
0FF8
0C00
ENDCHAR
STARTCHAR 20A3
ENCODING 8355
SWIDTH 720 0
DWIDTH 16 0
BBX 15 17 1 0
BITMAP
3FFE
3000
3000
3000
3000
3000
3000
3FE0
3FF0
3000
3000
3000
FF80
7F80
3000
3000
1000
ENDCHAR
STARTCHAR 20A4
ENCODING 8356
SWIDTH 540 0
DWIDTH 12 0
BBX 10 17 1 0
BITMAP
1F00
3380
6180
4000
4000
6000
6000
FF00
2000
FE00
FF00
3000
2000
2000
6040
7FC0
7FC0
ENDCHAR
STARTCHAR 20A6
ENCODING 8358
SWIDTH 810 0
DWIDTH 18 0
BBX 18 17 0 0
BITMAP
300300
380300
3C0300
340300
360300
330300
318300
308300
FFFFC0
306300
303300
301B00
301B00
300F00
300700
300300
300300
ENDCHAR
STARTCHAR 20A7
ENCODING 8359
SWIDTH 675 0
DWIDTH 15 0
BBX 14 17 1 0
BITMAP
7FC0
60E0
6060
6030
6030
FFFC
6030
6030
6060
7FC0
7F80
6000
6000
6000
6000
6000
6000
ENDCHAR
STARTCHAR 20A9
ENCODING 8361
SWIDTH 945 0
DWIDTH 21 0
BBX 17 17 2 0
BITMAP
808180
818180
C1C180
C1C100
414100
434300
636300
626200
FFFF80
262600
363600
343400
141400
1C1C00
1C1C00
181800
080800
ENDCHAR
STARTCHAR 20AB
ENCODING 8363
SWIDTH 675 0
DWIDTH 15 0
BBX 13 18 1 0
BITMAP
0020
0020
07F8
0020
0E20
3FA0
60E0
C060
C060
C020
C020
C060
6060
71C0
1F80
0000
7FE0
FFF0
ENDCHAR
STARTCHAR 20AC
ENCODING 8364
SWIDTH 810 0
DWIDTH 18 0
BBX 16 18 1 0
BITMAP
0030
03FE
0707
0C01
1800
1800
3000
FFFC
3000
3000
FFF0
FFF0
3000
1800
0C00
0E03
07CF
01FC
ENDCHAR
STARTCHAR 20AD
ENCODING 8365
SWIDTH 675 0
DWIDTH 15 0
BBX 14 17 0 0
BITMAP
300C
3018
3030
3060
30C0
3180
3300
F7F8
3F00
3980
31C0
30C0
3060
3030
3038
3018
3008
ENDCHAR
STARTCHAR 20AE
ENCODING 8366
SWIDTH 675 0
DWIDTH 15 0
BBX 14 17 0 0
BITMAP
FFFC
0300
0300
0300
0300
0330
03F0
1F00
1B00
0370
07E0
1F00
1300
0300
0300
0300
0300
ENDCHAR
STARTCHAR 20B1
ENCODING 8369
SWIDTH 675 0
DWIDTH 15 0
BBX 14 17 1 0
BITMAP
7FC0
60E0
6060
FFFC
FFF8
6030
FFFC
6030
6060
7FC0
7F80
6000
6000
6000
6000
6000
6000
ENDCHAR
STARTCHAR 20B2
ENCODING 8370
SWIDTH 765 0
DWIDTH 17 0
BBX 15 23 1 -3
BITMAP
00C0
00C0
00C0
07F8
1E0E
3804
3000
6000
6000
4000
C000
C07C
C07E
4006
6006
6006
3006
1806
0F3C
03F8
00C0
00C0
0080
ENDCHAR
STARTCHAR 20B4
ENCODING 8372
SWIDTH 720 0
DWIDTH 16 0
BBX 12 18 2 0
BITMAP
0600
3FC0
70E0
6060
0020
0020
0060
00C0
FFF0
0000
FFF0
FFF0
4000
C000
C030
6070
79E0
1F80
ENDCHAR
STARTCHAR 20B5
ENCODING 8373
SWIDTH 765 0
DWIDTH 17 0
BBX 15 23 1 -3
BITMAP
0080
00C0
00C0
07F8
1E0E
3804
3000
6000
6000
4000
C000
C000
C000
4000
6000
6000
3000
1806
0F3C
03F8
00C0
00C0
0080
ENDCHAR
STARTCHAR 20B8
ENCODING 8376
SWIDTH 675 0
DWIDTH 15 0
BBX 14 17 0 0
BITMAP
FFFC
0000
0000
FFFC
7FFC
0300
0300
0300
0300
0300
0300
0300
0300
0300
0300
0300
0300
ENDCHAR
STARTCHAR 20B9
ENCODING 8377
SWIDTH 540 0
DWIDTH 12 0
BBX 10 17 1 0
BITMAP
FFC0
0E00
0300
0100
FFC0
0100
0300
0700
FC00
1800
0800
0C00
0600
0600
0300
0180
0180
ENDCHAR
STARTCHAR 20BA
ENCODING 8378
SWIDTH 585 0
DWIDTH 13 0
BBX 11 17 1 0
BITMAP
3000
3000
3100
3F00
3C00
F100
BF00
3C00
F000
B000
3020
3060
3060
3060
30C0
3F80
3F00
ENDCHAR
STARTCHAR 20BC
ENCODING 8380
SWIDTH 810 0
DWIDTH 18 0
BBX 14 17 2 1
BITMAP
0300
0780
1FE0
3330
6318
C318
C308
C30C
C30C
C30C
C30C
C30C
C30C
C30C
C20C
C00C
C00C
ENDCHAR
STARTCHAR 20BD
ENCODING 8381
SWIDTH 630 0
DWIDTH 14 0
BBX 13 17 0 0
BITMAP
3FE0
3070
3018
3018
3008
3008
3018
3018
3030
FFF0
FFC0
3000
7F00
FF80
3000
3000
3000
ENDCHAR
STARTCHAR 2105
ENCODING 8453
SWIDTH 945 0
DWIDTH 21 0
BBX 20 17 0 0
BITMAP
3E0100
630300
400600
C00400
C00C00
401800
621000
3E3000
006180
0047E0
00CC30
018810
010810
030810
060C30
0C07E0
0C03C0
ENDCHAR
STARTCHAR 2113
ENCODING 8467
SWIDTH 405 0
DWIDTH 9 0
BBX 7 17 1 0
BITMAP
3C
36
26
26
2C
28
38
30
30
60
E0
E0
A0
20
20
3C
1C
ENDCHAR
STARTCHAR 2116
ENCODING 8470
SWIDTH 1260 0
DWIDTH 28 0
BBX 25 17 2 0
BITMAP
C00C3E00
E00C6700
F00CC180
F80CC180
D80CC180
CC0CC100
C60C7700
C70C3E00
C30C0000
C18C7F00
C0CCFF80
C06C0000
C07C0000
C03C0000
C01C0000
C00C0000
C00C0000
ENDCHAR
STARTCHAR 2122
ENCODING 8482
SWIDTH 765 0
DWIDTH 17 0
BBX 16 7 0 11
BITMAP
FE83
10C3
10E5
10A5
10B9
1099
1081
ENDCHAR
STARTCHAR 2126
ENCODING 8486
SWIDTH 855 0
DWIDTH 19 0
BBX 17 18 1 0
BITMAP
01C000
0FF800
1C1E00
300700
600300
600180
400180
C00180
C00180
C00180
400180
600300
300300
380E00
0E3C00
023000
7E3F00
7E3F80
ENDCHAR
STARTCHAR 212E
ENCODING 8494
SWIDTH 630 0
DWIDTH 14 0
BBX 12 12 1 0
BITMAP
1F80
3FC0
6060
E060
E070
FFF0
FFF0
E000
E000
60C0
3FC0
0F00
ENDCHAR
STARTCHAR 215B
ENCODING 8539
SWIDTH 810 0
DWIDTH 18 0
BBX 17 17 0 0
BITMAP
780400
F80C00
181800
181000
183000
186000
184000
18C000
018E00
011B00
031100
061B00
041E00
0C3100
083180
183100
301F00
ENDCHAR
STARTCHAR 215C
ENCODING 8540
SWIDTH 810 0
DWIDTH 18 0
BBX 16 18 1 0
BITMAP
3000
780C
CC08
8C18
3830
1820
8C60
CCC0
7880
319E
0313
0333
061E
041E
0C33
1821
1033
301E
ENDCHAR
STARTCHAR 215D
ENCODING 8541
SWIDTH 810 0
DWIDTH 18 0
BBX 15 17 1 0
BITMAP
7C08
4018
4030
7820
0C60
8CC0
CC80
7980
033C
0266
0666
0C3C
0C3C
1866
1042
3066
603C
ENDCHAR
STARTCHAR 215E
ENCODING 8542
SWIDTH 765 0
DWIDTH 17 0
BBX 15 17 1 0
BITMAP
FC18
0810
1830
1060
3060
20C0
6180
6180
4338
026C
0644
0C6C
083C
1846
3046
2066
607C
ENDCHAR
STARTCHAR 2190
ENCODING 8592
SWIDTH 945 0
DWIDTH 21 0
BBX 19 8 1 2
BITMAP
180000
300000
600000
FFFFE0
FFFFE0
600000
300000
180000
ENDCHAR
STARTCHAR 2191
ENCODING 8593
SWIDTH 450 0
DWIDTH 10 0
BBX 9 20 1 -4
BITMAP
0800
1C00
3E00
7F00
DB80
9900
1800
1800
1800
1800
1800
1800
1800
1800
1800
1800
1800
1800
1800
0800
ENDCHAR
STARTCHAR 2192
ENCODING 8594
SWIDTH 945 0
DWIDTH 21 0
BBX 19 8 1 2
BITMAP
000300
000180
0000C0
FFFFE0
FFFFE0
0001C0
000380
000300
ENDCHAR
STARTCHAR 2193
ENCODING 8595
SWIDTH 450 0
DWIDTH 10 0
BBX 8 19 1 -4
BITMAP
08
18
18
18
18
18
18
18
18
18
18
18
18
18
99
DB
7F
3E
1C
ENDCHAR
STARTCHAR 2194
ENCODING 8596
SWIDTH 945 0
DWIDTH 21 0
BBX 19 8 1 2
BITMAP
180300
300180
6000C0
FFFFE0
FFFFE0
7001C0
300380
180300
ENDCHAR
STARTCHAR 2195
ENCODING 8597
SWIDTH 450 0
DWIDTH 10 0
BBX 9 19 1 -4
BITMAP
0800
1C00
3E00
7F00
DB80
1800
1800
1800
1800
1800
1800
1800
1800
1800
9900
DB00
7F00
3E00
1C00
ENDCHAR
STARTCHAR 21A8
ENCODING 8616
SWIDTH 450 0
DWIDTH 10 0
BBX 9 20 1 -4
BITMAP
0800
1C00
3E00
7F00
DB80
1800
1800
1800
1800
1800
1800
1800
DB80
7F00
3E00
1C00
0800
0000
FF00
FF00
ENDCHAR
STARTCHAR 2202
ENCODING 8706
SWIDTH 630 0
DWIDTH 14 0
BBX 12 17 1 0
BITMAP
7F00
4380
00C0
0060
0020
1FB0
3FF0
6070
C030
C030
C030
C030
C030
C060
60E0
3FC0
0F00
ENDCHAR
STARTCHAR 2206
ENCODING 8710
SWIDTH 720 0
DWIDTH 16 0
BBX 14 17 1 0
BITMAP
0300
0700
0780
0780
0CC0
0CC0
18C0
1860
1060
3030
3030
6010
6018
C018
C00C
FFFC
FFFC
ENDCHAR
STARTCHAR 220F
ENCODING 8719
SWIDTH 720 0
DWIDTH 16 0
BBX 14 22 1 -5
BITMAP
FFFC
C00C
C00C
C00C
C00C
C00C
C00C
C00C
C00C
C00C
C00C
C00C
C00C
C00C
C00C
C00C
C00C
C00C
C00C
C00C
C00C
C00C
ENDCHAR
STARTCHAR 2211
ENCODING 8721
SWIDTH 720 0
DWIDTH 16 0
BBX 14 22 1 -5
BITMAP
FFFC
E000
6000
3000
1800
0C00
0600
0700
0380
0180
00C0
00C0
0180
0300
0700
0E00
0C00
1800
3000
6000
FFF8
FFFC
ENDCHAR
STARTCHAR 2212
ENCODING 8722
SWIDTH 540 0
DWIDTH 12 0
BBX 10 2 1 7
BITMAP
FFC0
FFC0
ENDCHAR
STARTCHAR 2215
ENCODING 8725
SWIDTH 450 0
DWIDTH 10 0
BBX 9 19 1 -2
BITMAP
0180
0300
0300
0200
0600
0600
0C00
0C00
0800
1800
1800
3000
3000
2000
6000
6000
C000
C000
8000
ENDCHAR
STARTCHAR 2219
ENCODING 8729
SWIDTH 315 0
DWIDTH 7 0
BBX 5 5 1 5
BITMAP
20
70
F8
F8
70
ENDCHAR
STARTCHAR 221A
ENCODING 8730
SWIDTH 765 0
DWIDTH 17 0
BBX 15 19 1 0
BITMAP
000E
000E
0018
0018
0030
0030
0060
0040
00C0
0080
8180
C100
C300
6200
6600
3400
3C00
1800
1800
ENDCHAR
STARTCHAR 221E
ENCODING 8734
SWIDTH 810 0
DWIDTH 18 0
BBX 16 9 1 2
BITMAP
3C78
7FFE
C386
C183
C183
C183
E3C6
7EFC
1C38
ENDCHAR
STARTCHAR 221F
ENCODING 8735
SWIDTH 720 0
DWIDTH 16 0
BBX 14 14 1 0
BITMAP
8000
C000
C000
C000
C000
C000
C000
C000
C000
C000
C000
C000
FFF8
FFFC
ENDCHAR
STARTCHAR 2229
ENCODING 8745
SWIDTH 810 0
DWIDTH 18 0
BBX 14 18 2 0
BITMAP
0780
1FE0
3038
6018
400C
C00C
C00C
C00C
C00C
C00C
C00C
C00C
C00C
C00C
C00C
C00C
C00C
C00C
ENDCHAR
STARTCHAR 222B
ENCODING 8747
SWIDTH 540 0
DWIDTH 12 0
BBX 10 22 1 -2
BITMAP
0380
07C0
06C0
0600
0600
0400
0400
0400
0C00
0C00
0C00
0C00
0C00
0C00
0C00
0C00
0800
0800
1800
9800
D800
F000
ENDCHAR
STARTCHAR 2248
ENCODING 8776
SWIDTH 450 0
DWIDTH 10 0
BBX 9 6 1 5
BITMAP
7880
DF80
8600
0000
7980
CF00
ENDCHAR
STARTCHAR 2260
ENCODING 8800
SWIDTH 495 0
DWIDTH 11 0
BBX 9 16 1 0
BITMAP
0200
0300
0200
0600
0600
FF80
0C00
0C00
0800
1800
FF80
FF80
3000
3000
3000
2000
ENDCHAR
STARTCHAR 2261
ENCODING 8801
SWIDTH 495 0
DWIDTH 11 0
BBX 9 10 1 3
BITMAP
FF80
FF80
0000
0000
FF80
FF80
0000
0000
0000
FF80
ENDCHAR
STARTCHAR 2264
ENCODING 8804
SWIDTH 540 0
DWIDTH 12 0
BBX 10 15 1 1
BITMAP
0040
01C0
0380
0E00
3C00
7000
E000
7000
1C00
0F00
0380
00C0
0040
FFC0
FFC0
ENDCHAR
STARTCHAR 2265
ENCODING 8805
SWIDTH 540 0
DWIDTH 12 0
BBX 10 15 1 1
BITMAP
8000
E000
7800
1C00
0700
03C0
00C0
0380
0F00
1C00
7000
E000
0000
FFC0
FFC0
ENDCHAR
STARTCHAR 27E8
ENCODING 10216
SWIDTH 270 0
DWIDTH 6 0
BBX 5 18 0 0
BITMAP
08
08
18
10
30
20
60
40
C0
80
C0
40
60
20
30
10
18
08
ENDCHAR
STARTCHAR 27E9
ENCODING 10217
SWIDTH 270 0
DWIDTH 6 0
BBX 5 18 1 0
BITMAP
80
80
C0
40
60
20
30
10
18
08
18
10
30
20
60
40
C0
80
ENDCHAR
STARTCHAR FB01
ENCODING 64257
SWIDTH 585 0
DWIDTH 13 0
BBX 10 17 1 0
BITMAP
0FC0
18C0
3000
2000
2000
FE40
FE40
2040
2040
2040
2040
2040
2040
2040
2040
2040
2040
ENDCHAR
STARTCHAR FB02
ENCODING 64258
SWIDTH 630 0
DWIDTH 14 0
BBX 13 17 1 0
BITMAP
0FC0
18C0
3040
2040
2040
FC40
FE40
2040
2040
2040
2040
2040
2040
2040
2060
2078
2038
ENDCHAR
ENDFONT
